<svg width="142" height="132" viewBox="0 0 142 132" fill="none" xmlns="http://www.w3.org/2000/svg">
<path d="M7.931 49.5891C11.2424 19.1167 55.822 5.50485 86.2944 8.8162C116.767 12.1276 138.623 41.0059 135.312 71.4783C132 101.951 86.1785 126.995 55.706 123.684C25.2336 120.373 4.61964 80.0615 7.931 49.5891Z" fill="#FFE5E5"/>
<g clip-path="url(#clip0_831_222)">
<path d="M67.1974 82.9779H58.7063V81.9482C58.7063 81.608 58.4305 81.3323 58.0904 81.3323H54.7171V77.959C54.7171 77.6188 54.4414 77.3431 54.1012 77.3431H53.0369V52.6569H54.1012C54.4414 52.6569 54.7171 52.3812 54.7171 52.041V48.6678H58.0904C58.4305 48.6678 58.7063 48.3921 58.7063 48.0519V47.0169H80.8438C81.1839 47.0169 81.4596 46.7412 81.4596 46.401C81.4596 46.0608 81.1839 45.7852 80.8438 45.7852H58.7063V44.6159C58.7063 44.2757 58.4305 44 58.0904 44H50.6652C50.3251 44 50.0493 44.2757 50.0493 44.6159V52.041C50.0493 52.3812 50.3251 52.6569 50.6652 52.6569H51.8051V77.3431H50.6652C50.3251 77.3431 50.0493 77.6188 50.0493 77.959V85.3842C50.0493 85.7244 50.3251 86.0001 50.6652 86.0001H58.0903C58.4305 86.0001 58.7062 85.7244 58.7062 85.3842V84.2097H67.1974C67.5375 84.2097 67.8132 83.934 67.8132 83.5938C67.8132 83.2536 67.5375 82.9779 67.1974 82.9779ZM51.281 45.2317H57.4745V46.3963C57.4745 46.3979 57.4742 46.3995 57.4742 46.401C57.4742 46.4026 57.4745 46.4042 57.4745 46.4058V47.436H54.1012C53.7611 47.436 53.4854 47.7116 53.4854 48.0518V51.4251H51.281V45.2317ZM51.281 84.7683V78.5747H52.4178C52.4189 78.5747 52.42 78.5749 52.421 78.5749C52.4221 78.5749 52.4232 78.5747 52.4242 78.5747H53.4855V81.9481C53.4855 82.2883 53.7612 82.5639 54.1013 82.5639H57.4747V83.589C57.4747 83.5906 57.4744 83.5922 57.4744 83.5937C57.4744 83.5953 57.4747 83.5969 57.4747 83.5985V84.7683H51.281Z" fill="#252525"/>
<path d="M83.7852 48.6678H87.1585V52.041C87.1585 52.3812 87.4343 52.6569 87.7744 52.6569H88.9222L88.9128 68.6583C88.9127 68.9985 89.1882 69.2744 89.5284 69.2746H89.5287C89.8686 69.2746 90.1444 68.9992 90.1445 68.6591L90.1539 52.6569H91.2105C91.5506 52.6569 91.8263 52.3812 91.8263 52.041V44.6159C91.8263 44.2757 91.5506 44 91.2105 44H83.7853C83.4452 44 83.1694 44.2757 83.1694 44.6159V48.0519C83.1694 48.392 83.4451 48.6678 83.7852 48.6678ZM84.4011 45.2317H90.5945V51.4252H88.3902V48.0519C88.3902 47.7117 88.1144 47.4361 87.7743 47.4361H84.401V45.2317H84.4011Z" fill="#252525"/>
<path d="M90.3438 70.9298H85.4486C85.2749 70.9298 85.125 70.8119 85.0839 70.643L84.8852 69.8249C84.7097 69.102 84.0675 68.5972 83.3237 68.5972H78.2287C77.4848 68.5972 76.8427 69.102 76.6672 69.8249L76.4684 70.643C76.4274 70.812 76.2774 70.9298 76.1038 70.9298H71.2085C70.3224 70.9298 69.6016 71.6507 69.6016 72.5368V84.3751C69.6016 85.2612 70.3224 85.982 71.2085 85.982H90.3438C91.2299 85.982 91.9508 85.2612 91.9508 84.3751V72.5368C91.9508 71.6507 91.2299 70.9298 90.3438 70.9298ZM90.7191 84.3751C90.7191 84.582 90.5508 84.7503 90.3438 84.7503H71.2085C71.0016 84.7503 70.8333 84.5819 70.8333 84.3751V72.5368C70.8333 72.3297 71.0016 72.1615 71.2085 72.1615H76.1038C76.8476 72.1615 77.4898 71.6567 77.6653 70.9337L77.8641 70.1155C77.905 69.9467 78.055 69.8289 78.2287 69.8289H83.3237C83.4974 69.8289 83.6474 69.9468 83.6883 70.1155L83.887 70.9337V70.9338C84.0626 71.6567 84.7047 72.1615 85.4486 72.1615H90.3438C90.5508 72.1615 90.7191 72.3298 90.7191 72.5368V84.3751Z" fill="#252525"/>
<path d="M85.2324 79.2245C84.9103 79.115 84.5606 79.2876 84.4513 79.6096C83.9169 81.1837 82.4401 82.2413 80.7765 82.2413C78.6372 82.2413 76.8968 80.5009 76.8968 78.3616C76.8968 76.2224 78.6372 74.482 80.7765 74.482C82.4322 74.482 83.9067 75.5329 84.4457 77.0971C84.5565 77.4188 84.9072 77.5898 85.2285 77.4787C85.5501 77.3679 85.721 77.0174 85.6101 76.6958C84.9 74.6349 82.9575 73.2502 80.7765 73.2502C77.9581 73.2502 75.665 75.5432 75.665 78.3616C75.665 81.18 77.958 83.473 80.7765 83.473C82.968 83.473 84.9136 82.0796 85.6177 80.0055C85.7269 79.6835 85.5545 79.3338 85.2324 79.2245Z" fill="#252525"/>
<path d="M78.167 78.3617C78.167 79.8005 79.3375 80.971 80.7763 80.971C82.2151 80.971 83.3856 79.8005 83.3856 78.3617C83.3856 76.923 82.2151 75.7524 80.7763 75.7524C79.3375 75.7524 78.167 76.9229 78.167 78.3617ZM82.1539 78.3617C82.1539 79.1213 81.5359 79.7393 80.7763 79.7393C80.0167 79.7393 79.3987 79.1213 79.3987 78.3617C79.3987 77.6021 80.0167 76.9842 80.7763 76.9842C81.5359 76.9842 82.1539 77.6021 82.1539 78.3617Z" fill="#252525"/>
<path d="M88.872 73.2502H86.5324C86.1922 73.2502 85.9165 73.5259 85.9165 73.8661C85.9165 74.2063 86.1922 74.482 86.5324 74.482H88.872C89.2121 74.482 89.4878 74.2063 89.4878 73.8661C89.4878 73.5259 89.2121 73.2502 88.872 73.2502Z" fill="#252525"/>
</g>
<defs>
<clipPath id="clip0_831_222">
<rect width="42" height="42" fill="white" transform="translate(50 44)"/>
</clipPath>
</defs>
</svg>
