<svg width="171" height="166" viewBox="0 0 171 166" fill="none" xmlns="http://www.w3.org/2000/svg">
<path d="M137.209 123.018C122.364 149.835 75.9902 145.136 49.173 130.291C22.3558 115.447 13.3767 80.3605 28.2215 53.5432C43.0663 26.726 95.0098 21.3634 121.827 36.2082C148.644 51.0531 152.054 96.2005 137.209 123.018Z" fill="#DDFFDC"/>
<path d="M104.097 90.8292C106.215 89.2474 105.065 85.9368 102.405 85.9368C102.405 85.9368 102.404 85.9368 102.403 85.9368H100.596V81.4083C100.596 80.4437 99.8511 79.6465 98.8939 79.5364C98.9677 79.3368 99.0082 79.1216 99.0082 78.8974V78.2522C99.0082 77.3663 98.3796 76.6216 97.5355 76.4206V74.0792C97.5355 73.7313 97.247 73.4493 96.8909 73.4493C96.5349 73.4493 96.2464 73.7313 96.2464 74.0792V76.3668H94.3773V68.1517C94.3773 68.0364 94.3449 67.9233 94.2837 67.8248L93.3881 66.3833C93.3669 66.3491 93.3599 66.3087 93.3685 66.2697L94.2533 62.2598H96.3707L97.2569 66.277C97.2645 66.3114 97.2584 66.3469 97.2397 66.377L96.3401 67.8248C96.2789 67.9233 96.2465 68.0364 96.2465 68.1518V71.1392C96.2465 71.4871 96.535 71.7691 96.891 71.7691C97.2471 71.7691 97.5356 71.4871 97.5356 71.1392V68.328L98.3416 67.0307C98.5321 66.7241 98.5943 66.3621 98.517 66.0113L97.6108 61.9033C97.4952 61.3799 97.0134 61 96.4655 61H94.1422C93.6033 61 93.1297 61.3737 93.0161 61.8886L92.1082 66.0043C92.0299 66.3596 92.093 66.7265 92.286 67.0372L93.088 68.328V76.4206C92.2444 76.622 91.6165 77.3665 91.6165 78.252V78.8971C91.6165 79.1214 91.6569 79.3365 91.7307 79.5362C90.9584 79.625 90.3246 80.1612 90.1083 80.8718C83.2957 82.387 83.7008 82.2906 83.6128 82.3297C81.9378 83.0725 80.9576 84.209 79.8357 85.316C79.3608 85.7847 78.5046 85.9258 77.3654 85.9588C77.151 85.2485 76.4785 84.7281 75.6832 84.7281H73.1245C72.7685 84.7281 72.48 85.0101 72.48 85.3579C72.48 85.7058 72.7685 85.9878 73.1245 85.9878H75.6832C75.9398 85.9878 76.1485 86.1918 76.1485 86.4426C76.1485 87.1537 76.1485 99.6272 76.1485 100.364V100.786C76.1485 101.037 75.9398 101.241 75.6832 101.241H67.5582C67.3016 101.241 67.0929 101.037 67.0929 100.786V86.4428C67.0929 86.192 67.3016 85.988 67.5582 85.988H70.1168C70.4729 85.988 70.7614 85.706 70.7614 85.3581C70.7614 85.0103 70.4729 84.7282 70.1168 84.7282H67.5582C66.5907 84.7282 65.8037 85.4974 65.8037 86.4429V100.786C65.8037 101.732 66.5908 102.501 67.5582 102.501H75.6834C76.5788 102.501 77.3183 101.842 77.4237 100.994L78.0464 100.994C78.0473 100.994 78.0481 100.994 78.0489 100.994C79.2573 100.994 79.8197 101.525 80.5317 102.198C81.3821 103.001 82.4399 104 84.7357 104C84.738 104 84.7406 104 84.7429 104H101.248C103.738 104 104.971 101.041 103.21 99.3369C104.687 98.381 104.89 96.4221 103.696 95.2012C105.342 94.2217 105.5 92.0465 104.097 90.8292ZM98.667 80.7825C99.02 80.7826 99.3071 81.0632 99.3071 81.4081V85.9366H97.5344V80.7825H98.667ZM92.9057 78.2519C92.9057 77.9069 93.1929 77.6263 93.5458 77.6263C93.6842 77.6263 93.8014 77.6263 93.9014 77.6263C94.2768 77.6263 94.3983 77.6263 94.394 77.6263C94.8455 77.6263 95.6646 77.6263 97.0788 77.6263C97.4317 77.6263 97.7189 77.9069 97.7189 78.2519V78.897C97.7189 79.242 97.4317 79.5226 97.0788 79.5226C95.6691 79.5226 94.9095 79.5226 94.5239 79.5226C94.2631 79.5226 94.1727 79.5226 94.1706 79.5226C94.0225 79.5226 93.8195 79.5226 93.5458 79.5226C93.1929 79.5226 92.9057 79.242 92.9057 78.897V78.2519ZM96.2453 80.7826V85.9368H94.3796V80.7826H96.2453ZM91.3176 81.4082C91.3176 81.0632 91.6048 80.7826 91.9578 80.7826H93.0904V85.9368H91.88C91.57 85.9368 91.3176 85.6903 91.3176 85.3873V81.4082H91.3176ZM98.0069 90.1298C97.6509 90.1298 97.3624 90.4119 97.3624 90.7597C97.3624 91.1076 97.6509 91.3896 98.0069 91.3896C98.7902 91.3896 101.329 91.3896 102.229 91.3896C103.538 91.3896 104.282 92.9396 103.333 93.8867C102.803 94.4153 102.254 94.3536 101.612 94.3536H98.2339C97.8778 94.3536 97.5894 94.6356 97.5894 94.9835C97.5894 95.3313 97.8778 95.6133 98.2339 95.6133C98.3267 95.6133 101.606 95.6133 101.682 95.6133C102.968 95.6133 103.699 97.1393 102.753 98.0807C102.241 98.5907 101.698 98.5467 101.178 98.5467H98.0071C97.6511 98.5467 97.3626 98.8287 97.3626 99.1765C97.3626 99.5244 97.6511 99.8064 98.0071 99.8064C98.0073 99.8064 98.0713 99.8064 101.248 99.8064C102.076 99.8064 102.749 100.464 102.749 101.273C102.749 102.082 102.076 102.74 101.248 102.74H84.7423C84.7402 102.74 84.738 102.74 84.7359 102.74C82.9613 102.74 82.2504 102.068 81.4277 101.291C80.6546 100.561 79.7787 99.7335 78.0494 99.7335C78.0483 99.7335 78.0472 99.7335 78.0461 99.7335L77.438 99.7338V87.2181C78.6501 87.1828 79.9257 87.0178 80.752 86.2025C81.9697 85.0008 82.601 84.2306 84.095 83.5013L90.0285 82.1816V85.3871C90.0285 86.3848 90.8592 87.1964 91.88 87.1964C92.2606 87.1964 101.872 87.1964 102.404 87.1964C102.404 87.1964 102.404 87.1964 102.405 87.1964C103.233 87.1964 103.908 87.8521 103.908 88.6584C103.909 89.4686 103.235 90.1282 102.406 90.1289C100.649 90.1302 104.608 90.1298 98.0069 90.1298Z" fill="#252525"/>
</svg>
