<svg width="175" height="175" viewBox="0 0 175 175" fill="none" xmlns="http://www.w3.org/2000/svg">
<path d="M47.4771 35.738C68.599 13.5254 112.294 29.7553 134.506 50.8772C156.719 71.9991 156.569 108.216 135.447 130.428C114.325 152.641 62.7063 144.745 40.4938 123.623C18.2812 102.501 26.3552 57.9506 47.4771 35.738Z" fill="#FFF8D0"/>
<g clip-path="url(#clip0_831_223)">
<path d="M103.738 68.4053H103.42V67.5084C103.42 66.079 102.257 64.916 100.828 64.916C99.3986 64.916 98.236 66.079 98.236 67.5084V68.4053H94.5479V67.5084C94.5475 66.079 93.3849 64.916 91.9555 64.916C90.5258 64.916 89.3631 66.079 89.3631 67.5084V68.4053H85.675V67.5084C85.675 66.079 84.512 64.916 83.0827 64.916C81.6533 64.916 80.4903 66.079 80.4903 67.5084V68.4053H76.8022V67.5084C76.8022 66.079 75.6395 64.916 74.2098 64.916C72.7808 64.916 71.6178 66.079 71.6178 67.5084V68.4053H71.2999C69.3502 68.4053 67.7637 69.9918 67.7637 71.9415V98.8064C67.7637 99.1542 68.0458 99.4363 68.3939 99.4363C68.742 99.4363 69.0241 99.1542 69.0241 98.8064V76.893H106.014V82.2824C106.014 82.6302 106.296 82.9123 106.644 82.9123C106.992 82.9123 107.274 82.6302 107.274 82.2824V71.9415C107.274 69.9918 105.688 68.4053 103.738 68.4053ZM99.4961 67.5084C99.4961 66.7738 100.093 66.1764 100.828 66.1764C101.563 66.1764 102.16 66.7738 102.16 67.5084V70.5289C102.16 71.2634 101.563 71.8608 100.828 71.8608C100.093 71.8608 99.4961 71.2634 99.4961 70.5289V67.5084ZM90.6232 67.5084C90.6232 66.7738 91.2209 66.1764 91.9555 66.1764C92.6897 66.1764 93.2874 66.7738 93.2874 67.5084V70.5289C93.2874 71.2634 92.69 71.8608 91.9555 71.8608C91.2209 71.8608 90.6232 71.2634 90.6232 70.5289V67.5084ZM81.7507 67.5084C81.7507 66.7738 82.3481 66.1764 83.0827 66.1764C83.8172 66.1764 84.4146 66.7738 84.4146 67.5084V70.5289C84.4146 71.2634 83.8172 71.8608 83.0827 71.8608C82.3484 71.8608 81.7507 71.2634 81.7507 70.5289V67.5084ZM72.8779 67.5084C72.8779 66.7738 73.4756 66.1764 74.2098 66.1764C74.9444 66.1764 75.5421 66.7738 75.5421 67.5084V70.5289C75.5421 71.2634 74.9444 71.8608 74.2098 71.8608C73.4756 71.8608 72.8779 71.2634 72.8779 70.5289V67.5084ZM69.0241 75.6329V71.9415C69.0241 70.6867 70.045 69.6657 71.2999 69.6657H71.6178V70.5289C71.6178 71.9583 72.7808 73.1212 74.2101 73.1212C75.6395 73.1212 76.8022 71.9583 76.8022 70.5289V69.6657H80.4903V70.5289C80.4903 71.9583 81.6533 73.1212 83.0827 73.1212C84.512 73.1212 85.675 71.9583 85.675 70.5289V69.6657H89.3631V70.5289C89.3631 71.9583 90.5258 73.1212 91.9552 73.1212C93.3845 73.1212 94.5475 71.9583 94.5475 70.5289V69.6657H98.2356V70.5289C98.2356 71.9583 99.3986 73.1212 100.828 73.1212C102.257 73.1212 103.42 71.9583 103.42 70.5289V69.6657H103.738C104.993 69.6657 106.014 70.6867 106.014 71.9415V75.6329H69.0241Z" fill="#252525"/>
<path d="M106.644 84.1741C106.296 84.1741 106.014 84.4562 106.014 84.8043V104.38C106.014 105.635 104.993 106.656 103.738 106.656H71.2999C70.045 106.656 69.0238 105.635 69.0238 104.38V101.328C69.0238 100.98 68.742 100.698 68.3939 100.698C68.0458 100.698 67.7637 100.98 67.7637 101.328V104.38C67.7637 106.33 69.3502 107.916 71.2999 107.916H103.738C105.688 107.916 107.274 106.33 107.274 104.38V84.8043C107.274 84.4562 106.992 84.1741 106.644 84.1741Z" fill="#252525"/>
<path d="M74.1552 86.5928H77.011C77.9056 86.5928 78.6336 85.8648 78.6336 84.9702V82.1144C78.6336 81.2198 77.9056 80.4915 77.011 80.4915H74.1552C73.2602 80.4915 72.5322 81.2198 72.5322 82.1144V84.9702C72.5322 85.8648 73.2602 86.5928 74.1552 86.5928ZM73.7927 82.1144C73.7927 81.9146 73.955 81.7519 74.1548 81.7519H77.0106C77.2108 81.7519 77.3731 81.9146 77.3731 82.1144V84.9702C77.3731 85.17 77.2108 85.3327 77.0106 85.3327H74.1552C73.955 85.3327 73.7927 85.17 73.7927 84.9702V82.1144Z" fill="#252525"/>
<path d="M82.1127 86.5928H84.9685C85.8631 86.5928 86.5911 85.8648 86.5911 84.9702V82.1144C86.5911 81.2198 85.8631 80.4915 84.9685 80.4915H82.1127C81.218 80.4915 80.4897 81.2198 80.4897 82.1144V84.9702C80.4897 85.8648 81.2177 86.5928 82.1127 86.5928ZM81.7502 82.1144C81.7502 81.9146 81.9126 81.7519 82.1127 81.7519H84.9685C85.1683 81.7519 85.3307 81.9146 85.3307 82.1144V84.9702C85.3307 85.17 85.1683 85.3327 84.9685 85.3327H82.1127C81.9126 85.3327 81.7502 85.17 81.7502 84.9702V82.1144Z" fill="#252525"/>
<path d="M90.0699 86.5928H92.9257C93.8203 86.5928 94.5483 85.8648 94.5483 84.9702V82.1144C94.5483 81.2198 93.8203 80.4915 92.9257 80.4915H90.0699C89.1752 80.4915 88.4473 81.2198 88.4473 82.1144V84.9702C88.4469 85.8648 89.1749 86.5928 90.0699 86.5928ZM89.7074 82.1144C89.7074 81.9146 89.8701 81.7519 90.0699 81.7519H92.9257C93.1255 81.7519 93.2882 81.9146 93.2882 82.1144V84.9702C93.2882 85.17 93.1255 85.3327 92.9257 85.3327H90.0699C89.8701 85.3327 89.7074 85.17 89.7074 84.9702V82.1144Z" fill="#252525"/>
<path d="M98.0269 86.5928H100.883C101.778 86.5928 102.505 85.8648 102.505 84.9702V82.1144C102.505 81.2198 101.778 80.4915 100.883 80.4915H98.0269C97.1323 80.4915 96.4043 81.2198 96.4043 82.1144V84.9702C96.404 85.8648 97.1323 86.5928 98.0269 86.5928ZM97.6644 82.1144C97.6644 81.9146 97.8271 81.7519 98.0269 81.7519H100.883C101.082 81.7519 101.245 81.9146 101.245 82.1144V84.9702C101.245 85.17 101.082 85.3327 100.883 85.3327H98.0269C97.8271 85.3327 97.6644 85.17 97.6644 84.9702V82.1144Z" fill="#252525"/>
<path d="M72.5322 93.2326C72.5322 94.1275 73.2602 94.8555 74.1548 94.8555H77.0106C77.9056 94.8555 78.6336 94.1275 78.6336 93.2326V90.3768C78.6336 89.4821 77.9056 88.7542 77.0106 88.7542H74.1552C73.2602 88.7542 72.5322 89.4821 72.5322 90.3768V93.2326ZM73.7927 90.3768C73.7927 90.177 73.955 90.0142 74.1548 90.0142H77.0106C77.2108 90.0142 77.3731 90.177 77.3731 90.3768V93.2326C77.3731 93.4324 77.2108 93.5951 77.0106 93.5951H74.1552C73.955 93.5951 73.7927 93.4324 73.7927 93.2326V90.3768Z" fill="#252525"/>
<path d="M80.4897 93.2326C80.4897 94.1275 81.2177 94.8555 82.1127 94.8555H84.9685C85.8631 94.8555 86.5911 94.1275 86.5911 93.2326V90.3768C86.5911 89.4821 85.8631 88.7542 84.9685 88.7542H82.1127C81.2177 88.7542 80.4897 89.4821 80.4897 90.3768V93.2326ZM81.7502 90.3768C81.7502 90.177 81.9126 90.0142 82.1127 90.0142H84.9685C85.1683 90.0142 85.3307 90.177 85.3307 90.3768V93.2326C85.3307 93.4324 85.1683 93.5951 84.9685 93.5951H82.1127C81.9126 93.5951 81.7502 93.4324 81.7502 93.2326V90.3768Z" fill="#252525"/>
<path d="M88.4468 93.2326C88.4468 94.1275 89.1748 94.8555 90.0697 94.8555H92.9255C93.8201 94.8555 94.5481 94.1275 94.5481 93.2326V90.3768C94.5481 89.4821 93.8201 88.7542 92.9255 88.7542H90.0697C89.1748 88.7542 88.4468 89.4821 88.4468 90.3768V93.2326ZM89.7072 90.3768C89.7072 90.177 89.8699 90.0142 90.0697 90.0142H92.9255C93.1253 90.0142 93.288 90.177 93.288 90.3768V93.2326C93.288 93.4324 93.1253 93.5951 92.9255 93.5951H90.0697C89.8699 93.5951 89.7072 93.4324 89.7072 93.2326V90.3768Z" fill="#252525"/>
<path d="M96.4038 93.2326C96.4038 94.1275 97.1321 94.8555 98.0267 94.8555H100.883C101.777 94.8555 102.505 94.1275 102.505 93.2326V90.3768C102.505 89.4821 101.777 88.7542 100.883 88.7542H98.0267C97.1321 88.7542 96.4038 89.4821 96.4038 90.3768V93.2326ZM97.6642 90.3768C97.6642 90.177 97.827 90.0142 98.0267 90.0142H100.883C101.082 90.0142 101.245 90.177 101.245 90.3768V93.2326C101.245 93.4324 101.082 93.5951 100.883 93.5951H98.0267C97.827 93.5951 97.6642 93.4324 97.6642 93.2326V90.3768Z" fill="#252525"/>
<path d="M72.5322 101.495C72.5322 102.39 73.2602 103.118 74.1548 103.118H77.0106C77.9056 103.118 78.6336 102.39 78.6336 101.495V98.6395C78.6336 97.7446 77.9056 97.0166 77.0106 97.0166H74.1552C73.2602 97.0166 72.5322 97.7446 72.5322 98.6395V101.495ZM73.7927 98.6395C73.7927 98.4394 73.955 98.277 74.1548 98.277H77.0106C77.2108 98.277 77.3731 98.4394 77.3731 98.6395V101.495C77.3731 101.695 77.2108 101.858 77.0106 101.858H74.1552C73.955 101.858 73.7927 101.695 73.7927 101.495V98.6395Z" fill="#252525"/>
<path d="M80.4897 101.495C80.4897 102.39 81.2177 103.118 82.1127 103.118H84.9685C85.8631 103.118 86.5911 102.39 86.5911 101.495V98.6395C86.5911 97.7446 85.8631 97.0166 84.9685 97.0166H82.1127C81.2177 97.0166 80.4897 97.7446 80.4897 98.6395V101.495ZM81.7502 98.6395C81.7502 98.4394 81.9126 98.277 82.1127 98.277H84.9685C85.1683 98.277 85.3307 98.4394 85.3307 98.6395V101.495C85.3307 101.695 85.1683 101.858 84.9685 101.858H82.1127C81.9126 101.858 81.7502 101.695 81.7502 101.495V98.6395Z" fill="#252525"/>
<path d="M88.4468 101.495C88.4468 102.39 89.1748 103.118 90.0697 103.118H92.9255C93.8201 103.118 94.5481 102.39 94.5481 101.495V98.6395C94.5481 97.7446 93.8201 97.0166 92.9255 97.0166H90.0697C89.1748 97.0166 88.4468 97.7446 88.4468 98.6395V101.495ZM89.7072 98.6395C89.7072 98.4394 89.8699 98.277 90.0697 98.277H92.9255C93.1253 98.277 93.288 98.4394 93.288 98.6395V101.495C93.288 101.695 93.1253 101.858 92.9255 101.858H90.0697C89.8699 101.858 89.7072 101.695 89.7072 101.495V98.6395Z" fill="#252525"/>
<path d="M96.4038 101.495C96.4038 102.39 97.1321 103.118 98.0267 103.118H100.883C101.777 103.118 102.505 102.39 102.505 101.495V98.6395C102.505 97.7446 101.777 97.0166 100.883 97.0166H98.0267C97.1321 97.0166 96.4038 97.7446 96.4038 98.6395V101.495ZM97.6642 98.6395C97.6642 98.4394 97.827 98.277 98.0267 98.277H100.883C101.082 98.277 101.245 98.4394 101.245 98.6395V101.495C101.245 101.695 101.082 101.858 100.883 101.858H98.0267C97.827 101.858 97.6642 101.695 97.6642 101.495V98.6395Z" fill="#252525"/>
</g>
<defs>
<clipPath id="clip0_831_223">
<rect width="43" height="43" fill="white" transform="translate(66 65)"/>
</clipPath>
</defs>
</svg>
