<svg width="130" height="118" viewBox="0 0 130 118" fill="none" xmlns="http://www.w3.org/2000/svg">
<path d="M129.5 69C129.5 99.6518 86.6518 118 56 118C25.3482 118 0.5 91.6518 0.5 61C0.5 30.3482 43.3482 0.5 74 0.5C104.652 0.5 129.5 38.3482 129.5 69Z" fill="#D0F1FF"/>
<g clip-path="url(#clip0_831_221)">
<path d="M55.2069 80.9018L51.2988 80.9023C49.6888 80.9023 48.3789 79.5627 48.3789 77.9161V54.9375C48.3789 54.5654 48.0772 54.2637 47.7051 54.2637C47.3329 54.2637 47.0312 54.5654 47.0312 54.9375V77.9161C47.0312 80.3058 48.9457 82.25 51.2989 82.25L55.2071 82.2495C55.5793 82.2495 55.8809 81.9477 55.8809 81.5755C55.8808 81.2034 55.5791 80.9018 55.2069 80.9018Z" fill="#252525"/>
<path d="M81.9885 47.6935L71.7643 37.2583C71.1364 36.6176 70.2654 36.25 69.3745 36.25H51.2988C48.9457 36.25 47.0312 38.1942 47.0312 40.5839V51.793C47.0312 52.1651 47.3329 52.4668 47.7051 52.4668C48.0772 52.4668 48.3789 52.1651 48.3789 51.793V40.5839C48.3789 38.9373 49.6888 37.5977 51.2988 37.5977L69.8194 37.6496V46.4892C69.8194 48.2282 71.2116 49.643 72.9228 49.643H74.793C75.1651 49.643 75.4668 49.3413 75.4668 48.9692C75.4668 48.597 75.1651 48.2954 74.793 48.2954H72.9228C71.9546 48.2954 71.1671 47.4851 71.1671 46.4892V38.5744L80.6914 48.2953H77.9375C77.5654 48.2953 77.2637 48.597 77.2637 48.9691C77.2637 49.3412 77.5654 49.6429 77.9375 49.6429H81.5691L81.6211 77.9132C81.6211 79.5592 80.3103 80.8985 78.699 80.8987L58.3515 80.9014C57.9793 80.9014 57.6776 81.2031 57.6777 81.5753C57.6778 81.9474 57.9795 82.2491 58.3517 82.249L78.6992 82.2463C81.0535 82.246 82.9688 80.3022 82.9688 77.9132V50.1044C82.9688 49.195 82.6206 48.3388 81.9885 47.6935Z" fill="#252525"/>
<path d="M52.8711 61.8098H68.477C68.8492 61.8098 69.1509 61.5081 69.1509 61.136C69.1509 60.7639 68.8492 60.4622 68.477 60.4622H52.8711C52.499 60.4622 52.1973 60.7639 52.1973 61.136C52.1973 61.5081 52.499 61.8098 52.8711 61.8098Z" fill="#252525"/>
<path d="M52.6914 66.302H75.5117C75.8839 66.302 76.1855 66.0003 76.1855 65.6282C76.1855 65.256 75.8839 64.9543 75.5117 64.9543H52.6914C52.3193 64.9543 52.0176 65.256 52.0176 65.6282C52.0176 66.0003 52.3193 66.302 52.6914 66.302Z" fill="#252525"/>
<path d="M75.5117 69.4465H69.4922C69.1201 69.4465 68.8184 69.7482 68.8184 70.1204C68.8184 70.4925 69.1201 70.7942 69.4922 70.7942H75.5117C75.8839 70.7942 76.1855 70.4925 76.1855 70.1204C76.1855 69.7482 75.8839 69.4465 75.5117 69.4465Z" fill="#252525"/>
<path d="M52.6914 70.7942H66.3477C66.7198 70.7942 67.0215 70.4925 67.0215 70.1204C67.0215 69.7482 66.7198 69.4465 66.3477 69.4465H52.6914C52.3193 69.4465 52.0176 69.7482 52.0176 70.1204C52.0176 70.4925 52.3193 70.7942 52.6914 70.7942Z" fill="#252525"/>
<path d="M52.6914 75.2864H75.5117C75.8839 75.2864 76.1855 74.9847 76.1855 74.6125C76.1855 74.2404 75.8839 73.9387 75.5117 73.9387H52.6914C52.3193 73.9387 52.0176 74.2404 52.0176 74.6125C52.0176 74.9847 52.3193 75.2864 52.6914 75.2864Z" fill="#252525"/>
<path d="M65.7884 48.1342C65.6541 47.7255 65.308 47.4328 64.8851 47.3702L61.5973 46.8841L60.1248 43.8484C59.7551 43.0133 58.4757 43.0135 58.106 43.8484L56.6335 46.8841L53.3457 47.3702C52.9227 47.4328 52.5766 47.7256 52.4424 48.1342C52.3072 48.546 52.4138 48.991 52.7207 49.2954L55.1066 51.6618L54.543 55.0061C54.3594 55.8949 55.3913 56.6504 56.1775 56.1945L59.1155 54.6229L62.0534 56.1944C62.8411 56.6504 63.8709 55.8946 63.6879 55.0061L63.1242 51.6618L65.5102 49.2954C65.817 48.991 65.9236 48.5461 65.7884 48.1342ZM62.0963 50.7832C61.8351 51.0423 61.7158 51.4144 61.7772 51.7784L62.2848 54.79L59.6424 53.3765C59.3124 53.2 58.9184 53.2 58.5884 53.3765L55.9461 54.7899L56.4537 51.7783C56.515 51.4143 56.3957 51.0422 56.1345 50.783L53.9734 48.6397L56.9491 48.1998C57.3162 48.1455 57.6326 47.9126 57.7953 47.577L59.1154 44.8554L60.4355 47.577C60.5983 47.9127 60.9146 48.1457 61.2817 48.1998L64.2575 48.6398L62.0963 50.7832Z" fill="#252525"/>
</g>
<defs>
<clipPath id="clip0_831_221">
<rect width="46" height="46" fill="white" transform="translate(42 36.25)"/>
</clipPath>
</defs>
</svg>
