<svg width="18" height="18" viewBox="0 0 18 18" fill="none" xmlns="http://www.w3.org/2000/svg">
<g clip-path="url(#clip0_288_237)">
<path d="M9.29697 0.579102C5.83417 0.579102 3.01709 3.39618 3.01709 6.85898C3.01709 7.99896 3.52835 9.22502 3.54977 9.27673C3.7149 9.66867 4.04071 10.2774 4.27565 10.6343L8.58143 17.1583C8.75764 17.4258 9.01844 17.5791 9.29697 17.5791C9.5755 17.5791 9.8363 17.4258 10.0125 17.1587L14.3187 10.6343C14.554 10.2774 14.8794 9.66867 15.0445 9.27673C15.066 9.22539 15.5768 7.99933 15.5768 6.85898C15.5768 3.39618 12.7598 0.579102 9.29697 0.579102ZM14.3634 8.99008C14.216 9.34138 13.9127 9.90768 13.7017 10.2276L9.3956 16.752C9.31064 16.8809 9.28367 16.8809 9.19871 16.752L4.89256 10.2276C4.68163 9.90768 4.37835 9.34101 4.23095 8.98971C4.22467 8.97456 3.7559 7.84603 3.7559 6.85898C3.7559 3.80363 6.24162 1.31791 9.29697 1.31791C12.3523 1.31791 14.838 3.80363 14.838 6.85898C14.838 7.84751 14.3682 8.97899 14.3634 8.99008Z" fill="black"/>
<path d="M9.29705 3.53467C7.4637 3.53467 5.97241 5.02632 5.97241 6.85931C5.97241 8.69229 7.4637 10.184 9.29705 10.184C11.1304 10.184 12.6217 8.69229 12.6217 6.85931C12.6217 5.02632 11.1304 3.53467 9.29705 3.53467ZM9.29705 9.44514C7.87152 9.44514 6.71122 8.28521 6.71122 6.85931C6.71122 5.43341 7.87152 4.27348 9.29705 4.27348C10.7226 4.27348 11.8829 5.43341 11.8829 6.85931C11.8829 8.28521 10.7226 9.44514 9.29705 9.44514Z" fill="black"/>
</g>
<defs>
<clipPath id="clip0_288_237">
<rect width="17" height="17" fill="white" transform="translate(0.796875 0.579102)"/>
</clipPath>
</defs>
</svg>
