<svg width="12" height="12" viewBox="0 0 12 12" fill="none" xmlns="http://www.w3.org/2000/svg">
<path d="M6.46824 9.33358L11.8083 3.99343C11.9319 3.86992 12 3.70504 12 3.52924C12 3.35343 11.9319 3.18856 11.8083 3.06504L11.4151 2.67178C11.1589 2.41588 10.7425 2.41588 10.4867 2.67178L6.00249 7.15604L1.51326 2.6668C1.38965 2.54329 1.22487 2.4751 1.04916 2.4751C0.873261 2.4751 0.708482 2.54329 0.584775 2.6668L0.191706 3.06007C0.0680971 3.18368 0 3.34846 0 3.52426C0 3.70006 0.0680971 3.86494 0.191706 3.98845L5.53664 9.33358C5.66064 9.45738 5.8262 9.52538 6.00219 9.52499C6.17888 9.52538 6.34434 9.45738 6.46824 9.33358Z" fill="#252525"/>
</svg>
