<svg width="12" height="12" viewBox="0 0 12 12" fill="none" xmlns="http://www.w3.org/2000/svg">
<path d="M6.46824 2.66642L11.8083 8.00657C11.9319 8.13008 12 8.29496 12 8.47076C12 8.64657 11.9319 8.81144 11.8083 8.93496L11.4151 9.32822C11.1589 9.58412 10.7425 9.58412 10.4867 9.32822L6.00249 4.84396L1.51326 9.3332C1.38965 9.45671 1.22487 9.5249 1.04916 9.5249C0.873261 9.5249 0.708482 9.45671 0.584775 9.3332L0.191706 8.93993C0.0680971 8.81632 0 8.65154 0 8.47574C0 8.29994 0.0680971 8.13506 0.191706 8.01155L5.53664 2.66642C5.66064 2.54262 5.8262 2.47462 6.00219 2.47501C6.17888 2.47462 6.34434 2.54262 6.46824 2.66642Z" fill="#252525"/>
</svg>
