<svg width="5" height="5" viewBox="0 0 5 5" fill="none" xmlns="http://www.w3.org/2000/svg">
<path d="M3.88895 2.3049L1.66389 0.0798774C1.61242 0.0283738 1.54373 0 1.47047 0C1.39722 0 1.32852 0.0283738 1.27706 0.0798774L1.1132 0.243697C1.00658 0.350444 1.00658 0.523939 1.1132 0.630523L2.98164 2.49896L1.11113 4.36948C1.05966 4.42098 1.03125 4.48964 1.03125 4.56285C1.03125 4.63614 1.05966 4.7048 1.11113 4.75634L1.27499 4.92012C1.32649 4.97163 1.39515 5 1.4684 5C1.54165 5 1.61035 4.97163 1.66181 4.92012L3.88895 2.69307C3.94054 2.6414 3.96887 2.57242 3.96871 2.49909C3.96887 2.42547 3.94054 2.35653 3.88895 2.3049Z" fill="#424242"/>
</svg>
