<svg width="23" height="23" viewBox="0 0 23 23" fill="none" xmlns="http://www.w3.org/2000/svg">
<path d="M2.71094 5.08341C2.71094 4.5765 3.1216 4.16675 3.6276 4.16675H15.5443C16.0503 4.16675 16.4609 4.5765 16.4609 5.08341C16.4609 5.59033 16.0503 6.00008 15.5443 6.00008H3.6276C3.1216 6.00008 2.71094 5.59033 2.71094 5.08341ZM20.1276 10.5834H3.6276C3.1216 10.5834 2.71094 10.9932 2.71094 11.5001C2.71094 12.007 3.1216 12.4167 3.6276 12.4167H20.1276C20.6336 12.4167 21.0443 12.007 21.0443 11.5001C21.0443 10.9932 20.6336 10.5834 20.1276 10.5834ZM11.8776 17.0001H3.6276C3.1216 17.0001 2.71094 17.4098 2.71094 17.9167C2.71094 18.4237 3.1216 18.8334 3.6276 18.8334H11.8776C12.3836 18.8334 12.7943 18.4237 12.7943 17.9167C12.7943 17.4098 12.3836 17.0001 11.8776 17.0001Z" fill="white"/>
</svg>
