<svg width="21" height="21" viewBox="0 0 21 21" fill="none" xmlns="http://www.w3.org/2000/svg">
<rect x="0.660156" y="0.976562" width="20" height="20" rx="5" fill="#252525"/>
<g clip-path="url(#clip0_821_333)">
<path d="M9.80059 13.6469C9.73047 13.7174 9.63484 13.7568 9.53547 13.7568C9.43609 13.7568 9.34047 13.7174 9.27034 13.6469L7.15309 11.5293C6.93334 11.3095 6.93334 10.9533 7.15309 10.7339L7.41822 10.4688C7.63797 10.249 7.99384 10.249 8.21359 10.4688L9.53547 11.7906L13.1073 8.21877C13.3271 7.99902 13.6833 7.99902 13.9027 8.21877L14.1678 8.48389C14.3876 8.70364 14.3876 9.05989 14.1678 9.27927L9.80059 13.6469Z" fill="white"/>
</g>
<defs>
<clipPath id="clip0_821_333">
<rect width="9" height="9" fill="white" transform="translate(6.16016 6.47656)"/>
</clipPath>
</defs>
</svg>
