<svg width="13" height="13" viewBox="0 0 13 13" fill="none" xmlns="http://www.w3.org/2000/svg">
<path d="M6.50148 0C3.85346 0 1.69922 2.15424 1.69922 4.80226C1.69922 5.67401 2.09018 6.61158 2.10656 6.65113C2.23283 6.95085 2.48199 7.41638 2.66165 7.68927L5.9543 12.6782C6.08905 12.8828 6.28848 13 6.50148 13C6.71447 13 6.91391 12.8828 7.04865 12.6785L10.3416 7.68927C10.5215 7.41638 10.7704 6.95085 10.8967 6.65113C10.9131 6.61186 11.3037 5.67429 11.3037 4.80226C11.3037 2.15424 9.1495 0 6.50148 0ZM10.3758 6.43192C10.2631 6.70056 10.0311 7.13362 9.86984 7.37825L6.5769 12.3675C6.51193 12.4661 6.49131 12.4661 6.42634 12.3675L3.1334 7.37825C2.9721 7.13362 2.74018 6.70028 2.62747 6.43164C2.62266 6.42006 2.26419 5.55706 2.26419 4.80226C2.26419 2.46582 4.16504 0.564972 6.50148 0.564972C8.83792 0.564972 10.7388 2.46582 10.7388 4.80226C10.7388 5.55819 10.3794 6.42345 10.3758 6.43192Z" fill="black"/>
<path d="M6.50331 2.26025C5.10133 2.26025 3.96094 3.40093 3.96094 4.80263C3.96094 6.20432 5.10133 7.345 6.50331 7.345C7.90529 7.345 9.04568 6.20432 9.04568 4.80263C9.04568 3.40093 7.90529 2.26025 6.50331 2.26025ZM6.50331 6.78003C5.4132 6.78003 4.52591 5.89302 4.52591 4.80263C4.52591 3.71223 5.4132 2.82523 6.50331 2.82523C7.59342 2.82523 8.48071 3.71223 8.48071 4.80263C8.48071 5.89302 7.59342 6.78003 6.50331 6.78003Z" fill="black"/>
</svg>
