<svg width="16" height="16" viewBox="0 0 16 16" fill="none" xmlns="http://www.w3.org/2000/svg">
<g clip-path="url(#clip0_260_1810)">
<path d="M13.198 0.598877H2.36142C1.16861 0.598877 0.198242 1.56927 0.198242 2.76205V10.0758C0.198242 11.2686 1.16861 12.239 2.36142 12.239H3.21027L3.22689 14.1487C3.22837 14.3247 3.32944 14.4846 3.48777 14.5616C3.55212 14.5928 3.62139 14.6082 3.69033 14.6082C3.79099 14.6082 3.89092 14.5754 3.9736 14.5116L6.91808 12.239H13.198C14.3908 12.239 15.3612 11.2686 15.3612 10.0758V2.76205C15.3612 1.56927 14.3908 0.598877 13.198 0.598877ZM14.4341 10.0758C14.4341 10.7574 13.8796 11.312 13.198 11.312H6.76002C6.65756 11.312 6.55796 11.3459 6.47681 11.4085L4.14578 13.2076L4.13329 11.7715C4.13109 11.517 3.9242 11.312 3.66978 11.312H2.36142C1.67982 11.312 1.12531 10.7574 1.12531 10.0758V2.76205C1.12531 2.08046 1.67982 1.52595 2.36142 1.52595H13.198C13.8796 1.52595 14.4341 2.08046 14.4341 2.76205L14.4341 10.0758Z" fill="#FF1B6D"/>
</g>
<defs>
<clipPath id="clip0_260_1810">
<rect width="15.1629" height="15.1629" fill="white" transform="translate(0.198242 0.0219727)"/>
</clipPath>
</defs>
</svg>
