<svg width="16" height="16" viewBox="0 0 16 16" fill="none" xmlns="http://www.w3.org/2000/svg">
<g clip-path="url(#clip0_348_2135)">
<path d="M13.613 0.656738H2.77645C1.58365 0.656738 0.613281 1.62714 0.613281 2.81991V10.1337C0.613281 11.3265 1.58365 12.2969 2.77645 12.2969H3.62531L3.64193 14.2065C3.64341 14.3825 3.74448 14.5425 3.9028 14.6194C3.96716 14.6507 4.03643 14.6661 4.10537 14.6661C4.20603 14.6661 4.30595 14.6333 4.38864 14.5695L7.33312 12.2969H13.613C14.8058 12.2969 15.7762 11.3265 15.7762 10.1337V2.81991C15.7762 1.62714 14.8058 0.656738 13.613 0.656738ZM14.8491 10.1337C14.8491 10.8153 14.2946 11.3698 13.613 11.3698H7.17506C7.07259 11.3698 6.973 11.4038 6.89185 11.4664L4.56082 13.2655L4.54832 11.8293C4.54613 11.5749 4.33924 11.3698 4.08482 11.3698H2.77645C2.09486 11.3698 1.54035 10.8153 1.54035 10.1337V2.81991C1.54035 2.13832 2.09486 1.58381 2.77645 1.58381H13.6131C14.2946 1.58381 14.8492 2.13832 14.8492 2.81991L14.8491 10.1337Z" fill="#646464"/>
</g>
<defs>
<clipPath id="clip0_348_2135">
<rect width="15.1629" height="15.1629" fill="white" transform="translate(0.613281 0.079834)"/>
</clipPath>
</defs>
</svg>
