<svg width="12" height="17" viewBox="0 0 12 17" fill="none" xmlns="http://www.w3.org/2000/svg">
<g clip-path="url(#clip0_348_3220)">
<path d="M6 0.820312C2.68656 0.820312 0 3.50688 0 6.82031C0 9.23938 0.842813 9.915 5.38438 16.4984C5.68222 16.9288 6.31906 16.9288 6.61688 16.4984C11.1562 9.91406 12 9.23906 12 6.82031C12 3.50688 9.3125 0.820312 6 0.820312ZM6 9.29219C4.62094 9.29219 3.5 8.17094 3.5 6.79219C3.5 5.41344 4.62187 4.29219 6 4.29219C7.37813 4.29219 8.5 5.41344 8.5 6.79219C8.5 8.17094 7.37813 9.29219 6 9.29219Z" fill="#5B5B5B"/>
</g>
<defs>
<clipPath id="clip0_348_3220">
<rect width="12" height="16" fill="white" transform="translate(0 0.820312)"/>
</clipPath>
</defs>
</svg>
