<svg width="12" height="13" viewBox="0 0 12 13" fill="none" xmlns="http://www.w3.org/2000/svg">
<g clip-path="url(#clip0_348_3224)">
<path d="M11.9813 9.89052L11.4363 12.253C11.3598 12.587 11.0662 12.8207 10.7224 12.8207C4.80937 12.8202 0 8.01083 0 2.09755C0 1.75396 0.233648 1.46005 0.567656 1.38388L2.93016 0.838956C3.27422 0.759222 3.62578 0.937816 3.76875 1.26364L4.85906 3.80661C4.98652 4.10614 4.90055 4.45513 4.64859 4.66091L3.38672 5.67411C4.18313 7.29646 5.50219 8.61552 7.125 9.41239L8.15812 8.15146C8.36175 7.8988 8.71336 7.81138 9.01289 7.9411L11.5559 9.03118C11.8617 9.19208 12.0609 9.54833 11.9813 9.89052Z" fill="#5B5B5B"/>
</g>
<defs>
<clipPath id="clip0_348_3224">
<rect width="12" height="12" fill="white" transform="translate(0 0.820312)"/>
</clipPath>
</defs>
</svg>
