<svg width="13" height="15" viewBox="0 0 13 15" fill="none" xmlns="http://www.w3.org/2000/svg">
<g clip-path="url(#clip0_288_482)">
<path d="M9.59737 1.79488C9.03543 1.29937 8.37839 0.944348 7.67362 0.755411C6.96885 0.566473 6.23394 0.548332 5.52187 0.702296C4.60631 0.904444 3.764 1.38576 3.09528 2.08891C2.42656 2.79205 1.95962 3.68739 1.75008 4.66827C1.54054 5.64915 1.59724 6.67422 1.91341 7.62138C2.22959 8.56854 2.79192 9.39786 3.53341 10.0105C4.38 10.6778 5.10081 11.5127 5.65729 12.4705L6.03645 13.1495C6.08461 13.2357 6.15267 13.3071 6.23401 13.3566C6.31535 13.4062 6.40721 13.4322 6.50066 13.4322C6.59411 13.4322 6.68597 13.4062 6.76731 13.3566C6.84866 13.3071 6.91671 13.2357 6.96487 13.1495L7.32833 12.4973C7.81291 11.5799 8.47364 10.7845 9.26641 10.164C9.88803 9.70338 10.4018 9.09353 10.7671 8.38254C11.1324 7.67154 11.3393 6.87885 11.3714 6.06702C11.4035 5.25518 11.2601 4.4464 10.9523 3.7045C10.6445 2.96259 10.1809 2.30786 9.59791 1.79196L9.59737 1.79488ZM6.50012 8.18296C6.07159 8.18296 5.65269 8.04611 5.29639 7.78972C4.94008 7.53333 4.66237 7.16892 4.49838 6.74256C4.33439 6.3162 4.29148 5.84704 4.37509 5.39442C4.45869 4.9418 4.66504 4.52604 4.96806 4.19971C5.27107 3.87339 5.65713 3.65116 6.07742 3.56113C6.49772 3.4711 6.93336 3.51731 7.32927 3.69391C7.72517 3.87051 8.06356 4.16958 8.30164 4.5533C8.53971 4.93701 8.66679 5.38814 8.66679 5.84963C8.66679 6.46847 8.43851 7.06196 8.03219 7.49954C7.62586 7.93713 7.07476 8.18296 6.50012 8.18296Z" fill="#252525"/>
</g>
<defs>
<clipPath id="clip0_288_482">
<rect width="13" height="14" fill="white" transform="translate(0 0.0163574)"/>
</clipPath>
</defs>
</svg>
