<svg width="10" height="10" viewBox="0 0 10 10" fill="none" xmlns="http://www.w3.org/2000/svg">
<g clip-path="url(#clip0_288_485)">
<path d="M9.1976 5.92383C8.58536 5.92383 7.98422 5.83765 7.41456 5.66822C7.13542 5.58253 6.79227 5.66114 6.6219 5.81862L5.4975 6.58254C4.19352 5.95608 3.39029 5.2334 2.70372 4.06863L3.52755 3.08304C3.74159 2.89066 3.81836 2.60965 3.72638 2.34597C3.53732 1.83058 3.44128 1.28981 3.44128 0.738561C3.4413 0.340334 3.08133 0.0163574 2.63888 0.0163574H0.802422C0.359974 0.0163574 0 0.340334 0 0.738537C0 5.30299 4.12599 9.01636 9.1976 9.01636C9.64005 9.01636 10 8.69238 10 8.29418V6.64598C10 6.2478 9.64003 5.92383 9.1976 5.92383Z" fill="#252525"/>
</g>
<defs>
<clipPath id="clip0_288_485">
<rect width="10" height="9" fill="white" transform="translate(0 0.0163574)"/>
</clipPath>
</defs>
</svg>
