<svg width="22" height="21" viewBox="0 0 22 21" fill="none" xmlns="http://www.w3.org/2000/svg">
<g clip-path="url(#clip0_109_371)">
<path d="M17.1167 16.625H8.88912C7.9135 16.625 7.049 15.9714 6.78825 15.036L4.00662 5.327C3.84912 4.76525 3.332 4.375 2.74662 4.375H0.567871C0.326371 4.375 0.130371 4.179 0.130371 3.9375C0.130371 3.696 0.326371 3.5 0.567871 3.5H2.74662C3.72225 3.5 4.58675 4.15363 4.8475 5.089L5.39612 7H19.817C20.2361 7 20.6202 7.1925 20.8696 7.5285C21.1199 7.8645 21.1942 8.288 21.0735 8.68875L19.1914 15.12C18.8886 16.0265 18.0565 16.625 17.1167 16.625ZM5.64637 7.875L7.63 14.798C7.78662 15.3598 8.30375 15.75 8.88912 15.75H17.1167C17.6715 15.75 18.1807 15.3834 18.3557 14.8593L20.2361 8.4385C20.2764 8.30463 20.251 8.16375 20.1679 8.05175C20.0847 7.93887 19.957 7.875 19.817 7.875H5.64637Z" fill="#B3B3B3"/>
<path d="M9.75537 21C8.79025 21 8.00537 20.2151 8.00537 19.25C8.00537 18.2849 8.79025 17.5 9.75537 17.5C10.7205 17.5 11.5054 18.2849 11.5054 19.25C11.5054 20.2151 10.7205 21 9.75537 21ZM9.75537 18.375C9.27237 18.375 8.88037 18.7679 8.88037 19.25C8.88037 19.7321 9.27237 20.125 9.75537 20.125C10.2384 20.125 10.6304 19.7321 10.6304 19.25C10.6304 18.7679 10.2384 18.375 9.75537 18.375Z" fill="#B3B3B3"/>
<path d="M15.8804 21C14.9152 21 14.1304 20.2151 14.1304 19.25C14.1304 18.2849 14.9152 17.5 15.8804 17.5C16.8455 17.5 17.6304 18.2849 17.6304 19.25C17.6304 20.2151 16.8455 21 15.8804 21ZM15.8804 18.375C15.3974 18.375 15.0054 18.7679 15.0054 19.25C15.0054 19.7321 15.3974 20.125 15.8804 20.125C16.3634 20.125 16.7554 19.7321 16.7554 19.25C16.7554 18.7679 16.3634 18.375 15.8804 18.375Z" fill="#B3B3B3"/>
</g>
<defs>
<clipPath id="clip0_109_371">
<rect width="21" height="21" fill="white" transform="translate(0.130371)"/>
</clipPath>
</defs>
</svg>
