<svg width="29" height="28" viewBox="0 0 29 28" fill="none" xmlns="http://www.w3.org/2000/svg">
<g clip-path="url(#clip0_109_387)">
<path d="M22.8979 17.249C22.3288 16.1033 20.2927 14.5131 18.3256 12.9766C17.2284 12.1203 16.1917 11.3106 15.5307 10.6725C15.3652 10.5115 15.1175 10.4601 14.8988 10.536C14.4916 10.6783 14.2402 10.788 14.0421 10.8731C13.74 11.0038 13.6385 11.0481 13.2313 11.0878C13.0512 11.1053 12.8894 11.1986 12.7891 11.3433C11.9347 12.5764 11.0502 12.4714 10.4594 12.2801C10.2709 12.2195 10.2371 12.1413 10.2189 12.0666C10.0921 11.5545 10.7289 10.3621 11.5541 9.56529C13.5177 7.66829 14.5302 7.19343 16.669 8.11629C19.0953 9.16393 21.5265 9.98414 21.5507 9.99229C21.8685 10.0984 22.2104 9.93743 22.3204 9.63293C22.4291 9.32843 22.2636 8.99593 21.9482 8.88979C21.924 8.88164 19.5412 8.07779 17.1632 7.04993C14.3925 5.85408 12.8724 6.64158 10.701 8.73929C9.8745 9.53729 8.75194 11.1519 9.04193 12.3361C9.16637 12.8401 9.53375 13.2135 10.0799 13.3873C11.4489 13.8236 12.6983 13.4059 13.6287 12.2136C14.013 12.1565 14.2221 12.0725 14.5362 11.936C14.6498 11.887 14.7827 11.8298 14.9591 11.761C15.6503 12.3875 16.5831 13.1166 17.5655 13.8831C19.3418 15.2703 21.3561 16.843 21.8092 17.753C22.0327 18.2021 21.7922 18.495 21.6291 18.6291C21.3899 18.8275 21.0624 18.8905 20.8848 18.7703C20.6891 18.6408 20.4341 18.6326 20.2323 18.7493C20.0293 18.8659 19.9157 19.0864 19.9411 19.3128C19.9822 19.6838 19.6306 19.8961 19.4783 19.9696C19.0916 20.1586 18.6881 20.126 18.537 19.9906C18.3678 19.839 18.1249 19.7946 17.9099 19.8716C17.6948 19.9498 17.5449 20.1411 17.5232 20.3628C17.4869 20.7454 17.1933 21.1129 16.8103 21.2564C16.6254 21.3241 16.3571 21.3649 16.1167 21.1526C15.9669 21.0219 15.759 20.9717 15.5645 21.0172C15.3676 21.0639 15.2092 21.2016 15.1404 21.3847C15.1174 21.4431 15.0654 21.5831 14.4999 21.5831C14.0976 21.5831 13.3738 21.3206 13.0197 21.0942C12.5956 20.8247 9.93606 18.9091 7.63906 17.0517C7.31644 16.7892 6.75819 16.2269 6.26519 15.7299C5.82775 15.2889 5.42781 14.8887 5.22238 14.7207C4.965 14.5107 4.58438 14.5422 4.3705 14.7896C4.15544 15.0357 4.18681 15.4044 4.44181 15.6121C4.62912 15.7649 4.99162 16.1347 5.39156 16.5372C5.9305 17.0809 6.4875 17.6432 6.86212 17.9466C9.11206 19.7654 11.8163 21.7289 12.3552 22.0707C12.7999 22.3531 13.7581 22.7497 14.5 22.7497C15.0957 22.7497 15.5537 22.6179 15.8714 22.3601C16.2968 22.5199 16.7801 22.5211 17.2453 22.3461C17.7951 22.1407 18.247 21.7266 18.5032 21.2249C18.9792 21.3229 19.5242 21.2541 20.0196 21.0138C20.5042 20.7781 20.8546 20.4176 21.0286 19.9964C21.5095 20.0209 22.0049 19.8564 22.4145 19.5169C23.1082 18.9441 23.2991 18.0528 22.8979 17.249Z" fill="#B3B3B3"/>
<path d="M12.0834 7.58313H6.64593C6.31243 7.58313 6.04175 7.84448 6.04175 8.16648C6.04175 8.48848 6.31243 8.74983 6.64593 8.74983H12.0834C12.4169 8.74983 12.6876 8.48848 12.6876 8.16648C12.6876 7.84448 12.4169 7.58313 12.0834 7.58313Z" fill="#B3B3B3"/>
<path d="M24.6681 16.0077C24.4808 15.7405 24.1062 15.667 23.8295 15.849L22.063 16.9947C21.7863 17.1743 21.7125 17.5372 21.8987 17.8043C22.0158 17.9712 22.2068 18.0622 22.4013 18.0622C22.5162 18.0622 22.6333 18.0307 22.7373 17.963L24.5038 16.8174C24.7805 16.6377 24.8542 16.2749 24.6681 16.0077Z" fill="#B3B3B3"/>
<path d="M20.9175 18.7913C20.485 18.4623 18.5504 16.5502 17.3542 15.3462C17.1234 15.1128 16.7403 15.1047 16.4999 15.3287C16.2582 15.5515 16.2509 15.9213 16.4817 16.1535C16.7923 16.4662 19.5315 19.223 20.1684 19.7084C20.2783 19.7924 20.4112 19.8332 20.5417 19.8332C20.7194 19.8332 20.897 19.7562 21.0178 19.6104C21.2245 19.3583 21.1798 18.9908 20.9175 18.7913Z" fill="#B3B3B3"/>
<path d="M18.5031 19.9615C17.7793 19.4026 15.9608 17.5371 15.55 17.1055C15.3228 16.8675 14.9421 16.8535 14.6956 17.0705C14.4503 17.2886 14.4335 17.6585 14.6594 17.8953C14.6811 17.9175 16.8513 20.1797 17.7479 20.8727C17.8591 20.9578 17.9932 20.9998 18.1249 20.9998C18.3013 20.9998 18.4777 20.924 18.5973 20.7817C18.8053 20.5296 18.763 20.1621 18.5031 19.9615Z" fill="#B3B3B3"/>
<path d="M16.0987 21.1363C15.2372 20.4351 13.4742 18.6233 13.1298 18.2674C12.9015 18.0318 12.5184 18.0189 12.2755 18.2394C12.0315 18.4599 12.0194 18.8286 12.2465 19.0643C12.742 19.5764 14.4288 21.3031 15.3193 22.0288C15.4329 22.1209 15.5707 22.1664 15.7084 22.1664C15.88 22.1664 16.0516 22.0953 16.1712 21.9588C16.3863 21.7114 16.3537 21.3439 16.0987 21.1363Z" fill="#B3B3B3"/>
<path d="M7.0615 6.57639C6.02594 5.62904 1.885 5.32219 0.640436 5.25104C0.468871 5.24289 0.310561 5.29769 0.189746 5.40854C0.068875 5.51819 0 5.67219 0 5.83319V16.3332C0 16.6552 0.270686 16.9165 0.604186 16.9165H4.22919C4.49019 16.9165 4.72219 16.7544 4.80313 16.514C4.89131 16.2527 6.97331 10.0834 7.24756 7.05004C7.26331 6.87269 7.19562 6.69769 7.0615 6.57639ZM3.78812 15.7499H1.20831V6.45854C3.15013 6.60669 5.24537 6.92869 6.00662 7.28569C5.68644 9.84069 4.23762 14.3802 3.78812 15.7499Z" fill="#B3B3B3"/>
<path d="M28.3959 6.4165C23.6519 6.4165 21.0202 7.589 20.9103 7.638C20.7532 7.70915 20.6359 7.841 20.5876 8.00086C20.5393 8.16071 20.5634 8.33221 20.6541 8.4745C21.4008 9.63536 23.7389 16.0824 24.1884 17.655C24.2609 17.9082 24.499 18.0832 24.7709 18.0832H28.3959C28.7294 18.0832 29.0001 17.8218 29.0001 17.4998V6.9998C29.0001 6.67665 28.7294 6.4165 28.3959 6.4165ZM27.7917 16.9165H25.2228C24.6501 15.1152 22.9584 10.4182 22.0147 8.47686C22.9366 8.17471 24.9171 7.6555 27.7917 7.59021V16.9165Z" fill="#B3B3B3"/>
</g>
<defs>
<clipPath id="clip0_109_387">
<rect width="29" height="28" fill="white"/>
</clipPath>
</defs>
</svg>
