<svg width="19" height="21" viewBox="0 0 19 21" fill="none" xmlns="http://www.w3.org/2000/svg">
<g clip-path="url(#clip0_109_379)">
<path d="M15.6299 15.7894L12.597 14.9511L12.3389 13.8101C13.1504 12.922 13.7061 11.7031 13.8708 10.451C14.3204 10.3119 14.6688 9.88485 14.7289 9.35025L14.9268 7.60024C14.9688 7.23097 14.8659 6.85822 14.6442 6.57735C14.5144 6.41283 14.3505 6.2886 14.1692 6.21247L14.2421 4.56483L14.5382 4.23671C14.9839 3.71257 15.3536 2.81396 14.5809 1.5102C13.9872 0.508389 12.9786 0 11.5821 0C11.0319 0 9.76285 0 8.58169 0.87675C5.20915 0.954639 4.75 2.68624 4.75 4.37501C4.75 4.7679 4.83628 5.65253 4.89328 6.18626C4.68981 6.25714 4.50456 6.38839 4.3605 6.56865C4.13565 6.85129 4.03038 7.22667 4.07235 7.59942L4.27025 9.34943C4.33515 9.92082 4.72785 10.3688 5.22262 10.4756C5.3865 11.6787 5.91375 12.8591 6.6785 13.7323L6.403 14.9512L3.37013 15.7894C1.3854 16.338 0 18.2997 0 20.5625C0 20.804 0.177346 21 0.395846 21H18.6042C18.8227 21 19 20.8023 19 20.5608C19 18.2997 17.6146 16.338 15.6299 15.7894ZM0.81225 20.125C0.974529 18.4547 2.0599 17.0538 3.5625 16.6382L6.82497 15.7369C6.96669 15.6975 7.0775 15.575 7.11394 15.4184L7.50185 13.7025C7.53747 13.5485 7.49312 13.3858 7.38863 13.2773C6.58903 12.4487 6.06022 11.2333 5.97313 10.0275C5.9565 9.80003 5.78472 9.62505 5.5781 9.62505H5.44907C5.24957 9.62505 5.08094 9.46054 5.05641 9.24181L4.85851 7.49179C4.84426 7.36493 4.87829 7.24328 4.95429 7.14792C5.03029 7.05255 5.13557 7.00005 5.25116 7.00005H5.33269C5.44669 7.00005 5.55516 6.94579 5.62957 6.85219C5.70479 6.75769 5.7396 6.63255 5.72535 6.50832C5.67469 6.05944 5.54169 4.80293 5.54169 4.37505C5.54169 3.01005 5.78394 1.78242 8.71232 1.75005C8.79307 1.74919 8.87304 1.72032 8.93872 1.66868C9.82222 0.969568 10.7706 0.875068 11.5821 0.875068C12.6952 0.875068 13.4805 1.25044 13.9183 1.98983C14.444 2.87794 14.2176 3.33732 13.9698 3.62869L13.5739 4.06621C13.5043 4.14319 13.4631 4.24557 13.4583 4.3541L13.3626 6.54421C13.3578 6.66319 13.3966 6.77869 13.4702 6.86532C13.5438 6.95194 13.646 7.00182 13.7536 7.00268C13.8684 7.00354 13.9729 7.05694 14.0481 7.1523C14.1233 7.2468 14.1566 7.36669 14.1423 7.49179L13.9444 9.24181C13.9199 9.46054 13.7505 9.62505 13.513 9.62505C13.3063 9.62505 13.1346 9.80007 13.1179 10.0275C13.0285 11.2718 12.4743 12.5108 11.6343 13.3429C11.5251 13.4505 11.4792 13.6168 11.5148 13.7743L11.8869 15.4184C11.9225 15.575 12.0334 15.6975 12.1743 15.7369L15.4375 16.6381C16.9393 17.0537 18.0247 18.4537 18.187 20.125H0.81225V20.125Z" fill="#B3B3B3"/>
</g>
<defs>
<clipPath id="clip0_109_379">
<rect width="19" height="21" fill="white"/>
</clipPath>
</defs>
</svg>
