<svg width="29" height="29" viewBox="0 0 29 29" fill="none" xmlns="http://www.w3.org/2000/svg">
<path d="M21.1097 6.52943H17.993V5.54155C17.9923 5.21107 17.8607 4.89433 17.627 4.66065C17.3933 4.42696 17.0766 4.29537 16.7461 4.29468H11.7669C11.4363 4.29508 11.1192 4.42654 10.8853 4.66026C10.6514 4.89398 10.5196 5.21088 10.519 5.54155V6.52943H7.4022C7.08792 6.52977 6.78661 6.65478 6.56438 6.87701C6.34215 7.09924 6.21714 7.40055 6.2168 7.71483V8.99605C6.2172 9.31032 6.34222 9.61159 6.56444 9.83381C6.78666 10.056 7.08794 10.1811 7.4022 10.1815H7.41773V23.0967C7.4182 23.5341 7.59216 23.9535 7.90145 24.2628C8.21074 24.5722 8.63011 24.7462 9.06755 24.7467H19.4444C19.8818 24.7462 20.3012 24.5722 20.6105 24.2628C20.9198 23.9535 21.0937 23.5341 21.0942 23.0967V10.1815H21.1097C21.424 10.1811 21.7252 10.056 21.9474 9.8338C22.1696 9.61157 22.2946 9.3103 22.2949 8.99605V7.71483C22.2946 7.40057 22.1697 7.09926 21.9475 6.87702C21.7253 6.65478 21.424 6.52978 21.1097 6.52943ZM11.2846 5.54155C11.285 5.41385 11.336 5.29151 11.4264 5.20132C11.5168 5.11112 11.6392 5.06042 11.7669 5.0603H16.745C16.8725 5.06071 16.9947 5.11154 17.0849 5.2017C17.175 5.29187 17.2259 5.41404 17.2263 5.54155V6.52943H11.2846V5.54155ZM20.3286 23.0967C20.3283 23.3311 20.2351 23.5559 20.0694 23.7217C19.9036 23.8875 19.6788 23.9808 19.4444 23.9811H9.06755C8.8331 23.9808 8.60834 23.8875 8.44257 23.7217C8.27681 23.5559 8.18359 23.3311 8.18336 23.0967V10.1815H20.3286V23.0967ZM21.5293 8.99605C21.5292 9.10733 21.485 9.21404 21.4064 9.29274C21.3277 9.37145 21.221 9.41572 21.1097 9.41583H7.4022C7.29091 9.41572 7.1842 9.37145 7.1055 9.29275C7.0268 9.21405 6.98254 9.10735 6.98242 8.99605V7.71483C6.98254 7.60354 7.0268 7.49683 7.1055 7.41813C7.1842 7.33943 7.29091 7.29517 7.4022 7.29505H21.1097C21.221 7.29517 21.3277 7.33944 21.4064 7.41814C21.485 7.49685 21.5292 7.60356 21.5293 7.71483V8.99605Z" fill="#9A9A9A"/>
<path d="M14.2559 21.4199C14.3061 21.4199 14.3559 21.41 14.4024 21.3908C14.4488 21.3715 14.4911 21.3434 14.5266 21.3078C14.5622 21.2722 14.5904 21.23 14.6096 21.1836C14.6288 21.1371 14.6387 21.0873 14.6387 21.037V13.1257C14.6387 13.0242 14.5983 12.9268 14.5265 12.855C14.4548 12.7833 14.3574 12.7429 14.2559 12.7429C14.1543 12.7429 14.057 12.7833 13.9852 12.855C13.9134 12.9268 13.873 13.0242 13.873 13.1257V21.037C13.873 21.1386 13.9134 21.2359 13.9852 21.3077C14.057 21.3795 14.1543 21.4199 14.2559 21.4199Z" fill="#9A9A9A"/>
<path d="M17.6094 21.4199C17.7109 21.4199 17.8083 21.3795 17.8801 21.3077C17.9519 21.2359 17.9922 21.1386 17.9922 21.037V13.1257C17.9922 13.0242 17.9519 12.9268 17.8801 12.855C17.8083 12.7833 17.7109 12.7429 17.6094 12.7429C17.5078 12.7429 17.4105 12.7833 17.3387 12.855C17.2669 12.9268 17.2266 13.0242 17.2266 13.1257V21.037C17.2266 21.1386 17.2669 21.2359 17.3387 21.3077C17.4105 21.3795 17.5078 21.4199 17.6094 21.4199Z" fill="#9A9A9A"/>
<path d="M10.9023 21.4199C11.0039 21.4199 11.1012 21.3795 11.173 21.3077C11.2448 21.2359 11.2852 21.1386 11.2852 21.037V13.1257C11.2852 13.0242 11.2448 12.9268 11.173 12.855C11.1012 12.7833 11.0039 12.7429 10.9023 12.7429C10.8008 12.7429 10.7034 12.7833 10.6317 12.855C10.5599 12.9268 10.5195 13.0242 10.5195 13.1257V21.037C10.5195 21.1386 10.5599 21.2359 10.6317 21.3077C10.7034 21.3795 10.8008 21.4199 10.9023 21.4199Z" fill="#9A9A9A"/>
</svg>
