<svg width="17" height="17" viewBox="0 0 17 17" fill="none" xmlns="http://www.w3.org/2000/svg">
<path d="M2.07508 15.7158C2.12152 15.7623 2.17666 15.7992 2.23736 15.8244C2.29806 15.8495 2.36313 15.8625 2.42883 15.8625C2.49454 15.8625 2.5596 15.8495 2.6203 15.8244C2.681 15.7992 2.73615 15.7623 2.78258 15.7158L8.92758 9.57084L15.0751 15.7158C15.1689 15.8097 15.2962 15.8624 15.4288 15.8624C15.5615 15.8624 15.6888 15.8097 15.7826 15.7158C15.8764 15.622 15.9291 15.4948 15.9291 15.3621C15.9291 15.2294 15.8764 15.1022 15.7826 15.0083L9.63508 8.86334L15.7801 2.71584C15.8739 2.62202 15.9266 2.49478 15.9266 2.36209C15.9266 2.22941 15.8739 2.10216 15.7801 2.00834C15.6863 1.91452 15.559 1.86182 15.4263 1.86182C15.2937 1.86182 15.1664 1.91452 15.0726 2.00834L8.92758 8.15584L2.78008 2.01084C2.68443 1.92893 2.5614 1.88613 2.43556 1.89099C2.30972 1.89585 2.19035 1.94802 2.1013 2.03706C2.01225 2.12611 1.96009 2.24548 1.95523 2.37132C1.95037 2.49716 1.99317 2.62019 2.07508 2.71584L8.22008 8.86334L2.07508 15.0108C1.98196 15.1045 1.92969 15.2313 1.92969 15.3633C1.92969 15.4954 1.98196 15.6222 2.07508 15.7158Z" fill="#B8B8B8"/>
</svg>
