<svg width="18" height="17" viewBox="0 0 18 17" fill="none" xmlns="http://www.w3.org/2000/svg">
<g clip-path="url(#clip0_348_1211)">
<path d="M14.9946 5.63214C14.8118 5.47492 14.628 5.32474 14.4438 5.18091L12.2955 7.32918C12.4264 7.69531 12.498 8.08947 12.498 8.50003C12.498 10.4224 10.934 11.9864 9.01163 11.9864C8.60108 11.9864 8.20692 11.9148 7.84079 11.7839L6.22852 13.3962C7.17002 13.7824 8.10386 13.9785 9.01163 13.9785C10.0959 13.9785 11.2174 13.6998 12.3447 13.15C13.23 12.7182 14.1215 12.1186 14.9946 11.3679C16.4706 10.0987 17.38 8.84368 17.4179 8.79085C17.5429 8.61713 17.5429 8.38295 17.4179 8.2092C17.3799 8.15637 16.4706 6.90136 14.9946 5.63214Z" fill="#424242"/>
<path d="M9.01204 10.9901C10.3852 10.9901 11.5023 9.87295 11.5023 8.49984C11.5023 8.38037 11.4933 8.26296 11.4769 8.14795L8.66016 10.9647C8.77521 10.9811 8.89258 10.9901 9.01204 10.9901Z" fill="#424242"/>
<path d="M17.3659 0.145853C17.1714 -0.0486177 16.856 -0.0486177 16.6615 0.145853L12.7486 4.05877C12.614 3.98546 12.4793 3.91564 12.3448 3.85006C11.2175 3.30022 10.0961 3.02144 9.01174 3.02144C7.92743 3.02144 6.80599 3.30022 5.67868 3.85003C4.79342 4.28183 3.90185 4.88142 3.02877 5.63207C1.55276 6.90129 0.64346 8.15631 0.605476 8.20913C0.480466 8.38285 0.480466 8.61703 0.605476 8.79078C0.64346 8.84361 1.55273 10.0987 3.02877 11.3678C3.4811 11.7568 3.93841 12.1047 4.39721 12.4101L0.657638 16.1498C0.463134 16.3442 0.463134 16.6596 0.657638 16.8541C0.75489 16.9513 0.882324 17 1.00979 17C1.13726 17 1.26472 16.9513 1.36194 16.8541L17.3658 0.850158C17.5604 0.655687 17.5604 0.340324 17.3659 0.145853ZM5.52542 8.49996C5.52542 6.5776 7.08938 5.01363 9.01174 5.01363C9.79371 5.01363 10.5163 5.27242 11.0986 5.70884L10.384 6.42337C9.99027 6.16226 9.51859 6.00972 9.01174 6.00972C7.63863 6.00972 6.52151 7.12684 6.52151 8.49996C6.52151 9.00677 6.67404 9.47845 6.93515 9.87224L6.22062 10.5868C5.7842 10.0046 5.52542 9.28193 5.52542 8.49996Z" fill="#424242"/>
</g>
<defs>
<clipPath id="clip0_348_1211">
<rect width="17" height="17" fill="white" transform="translate(0.511719)"/>
</clipPath>
</defs>
</svg>
