<svg width="25" height="24" viewBox="0 0 25 24" fill="none" xmlns="http://www.w3.org/2000/svg">
<path d="M23.176 3.48153C21.9429 2.13837 20.2323 1.39868 18.3594 1.39868C15.7252 1.39868 14.0575 2.90899 13.1223 4.17603C12.8797 4.50481 12.6733 4.83448 12.5 5.1447C12.3267 4.83448 12.1204 4.50481 11.8777 4.17603C10.9425 2.90899 9.2748 1.39868 6.64062 1.39868C4.76768 1.39868 3.05708 2.13842 1.82397 3.48157C0.647803 4.76285 0 6.47885 0 8.31345C0 10.3105 0.812158 12.1679 2.55591 14.1588C4.11436 15.9381 6.3564 17.7723 8.95264 19.8961C9.92007 20.6876 10.9205 21.506 11.9856 22.4006L12.0176 22.4275C12.1557 22.5436 12.3278 22.6016 12.5 22.6016C12.6722 22.6016 12.8443 22.5435 12.9824 22.4275L13.0144 22.4006C14.0795 21.506 15.0799 20.6876 16.0475 19.896C18.6436 17.7723 20.8856 15.9382 22.4441 14.1588C24.1878 12.1678 25 10.3105 25 8.31345C25 6.47885 24.3522 4.76285 23.176 3.48153ZM15.0973 18.8258C14.2633 19.508 13.405 20.2101 12.5 20.9654C11.595 20.2102 10.7367 19.508 9.90254 18.8257C4.82153 14.6691 1.46484 11.9232 1.46484 8.31345C1.46484 6.82142 1.98267 5.4356 2.92295 4.41134C3.87402 3.37545 5.19429 2.80493 6.64062 2.80493C8.64888 2.80493 9.94707 3.99265 10.6824 4.98903C11.342 5.88265 11.6862 6.78349 11.8036 7.12929C11.9018 7.41874 12.1829 7.61463 12.5 7.61463C12.8171 7.61463 13.0982 7.41874 13.1964 7.12929C13.3138 6.78349 13.658 5.88265 14.3176 4.98898C15.0529 3.99265 16.3511 2.80493 18.3594 2.80493C19.8057 2.80493 21.126 3.37545 22.077 4.41134C23.0173 5.4356 23.5352 6.82142 23.5352 8.31345C23.5352 11.9232 20.1785 14.6691 15.0973 18.8258Z" fill="#FF1B6D"/>
<path d="M15.0973 18.8258C14.2633 19.508 13.405 20.2101 12.5 20.9654C11.595 20.2102 10.7367 19.508 9.90254 18.8257C4.82153 14.6691 1.46484 11.9232 1.46484 8.31345C1.46484 6.82142 1.98267 5.4356 2.92295 4.41134C3.87402 3.37545 5.19429 2.80493 6.64062 2.80493C8.64888 2.80493 9.94707 3.99265 10.6824 4.98903C11.342 5.88265 11.6862 6.78349 11.8036 7.12929C11.9018 7.41874 12.1829 7.61463 12.5 7.61463C12.8171 7.61463 13.0982 7.41874 13.1964 7.12929C13.3138 6.78349 13.658 5.88265 14.3176 4.98898C15.0529 3.99265 16.3511 2.80493 18.3594 2.80493C19.8057 2.80493 21.126 3.37545 22.077 4.41134C23.0173 5.4356 23.5352 6.82142 23.5352 8.31345C23.5352 11.9232 20.1785 14.6691 15.0973 18.8258Z" fill="#FF1B6D"/>
</svg>
