<svg width="26" height="25" viewBox="0 0 26 25" fill="none" xmlns="http://www.w3.org/2000/svg">
<g clip-path="url(#clip0_348_2199)">
<path d="M23.3908 3.56307C22.1578 2.21991 20.4472 1.48022 18.5742 1.48022C15.94 1.48022 14.2723 2.99054 13.3372 4.25757C13.0945 4.58635 12.8881 4.91602 12.7148 5.22624C12.5416 4.91602 12.3352 4.58635 12.0925 4.25757C11.1574 2.99054 9.48965 1.48022 6.85547 1.48022C4.98252 1.48022 3.27192 2.21996 2.03882 3.56312C0.862647 4.8444 0.214844 6.5604 0.214844 8.39499C0.214844 10.392 1.027 12.2494 2.77075 14.2403C4.3292 16.0197 6.57124 17.8538 9.16748 19.9777C10.1349 20.7691 11.1354 21.5875 12.2004 22.4821L12.2324 22.5091C12.3705 22.6251 12.5427 22.6831 12.7148 22.6831C12.887 22.6831 13.0592 22.6251 13.1973 22.5091L13.2292 22.4821C14.2943 21.5875 15.2948 20.7691 16.2624 19.9776C18.8584 17.8539 21.1005 16.0197 22.6589 14.2403C24.4027 12.2494 25.2148 10.392 25.2148 8.39499C25.2148 6.5604 24.567 4.8444 23.3908 3.56307ZM15.3122 18.9073C14.4782 19.5895 13.6199 20.2917 12.7148 21.047C11.8099 20.2918 10.9515 19.5896 10.1174 18.9072C5.03638 14.7507 1.67969 12.0047 1.67969 8.39499C1.67969 6.90296 2.19751 5.51715 3.13779 4.49288C4.08887 3.45699 5.40913 2.88647 6.85547 2.88647C8.86372 2.88647 10.1619 4.07419 10.8973 5.07057C11.5569 5.96419 11.9011 6.86504 12.0185 7.21083C12.1167 7.50029 12.3978 7.69618 12.7148 7.69618C13.0319 7.69618 13.313 7.50029 13.4112 7.21083C13.5286 6.86504 13.8728 5.96419 14.5324 5.07052C15.2678 4.07419 16.566 2.88647 18.5742 2.88647C20.0206 2.88647 21.3408 3.45699 22.2918 4.49288C23.2322 5.51715 23.75 6.90296 23.75 8.39499C23.75 12.0047 20.3933 14.7507 15.3122 18.9073Z" fill="#B8B8B8"/>
</g>
<defs>
<clipPath id="clip0_348_2199">
<rect width="25" height="24" fill="white" transform="translate(0.214844 0.081543)"/>
</clipPath>
</defs>
</svg>
