<svg width="14" height="14" viewBox="0 0 14 14" fill="none" xmlns="http://www.w3.org/2000/svg">
<path d="M12.9785 1.9496C12.288 1.19743 11.3301 0.783203 10.2812 0.783203C8.80611 0.783203 7.87218 1.62898 7.3485 2.33852C7.21263 2.52263 7.09704 2.70725 7 2.88097C6.90296 2.70725 6.7874 2.52263 6.6515 2.33852C6.12782 1.62898 5.19389 0.783203 3.71875 0.783203C2.6699 0.783203 1.71196 1.19745 1.02143 1.94962C0.36277 2.66714 0 3.6281 0 4.65547C0 5.7738 0.454809 6.81396 1.43131 7.92885C2.30404 8.9253 3.55958 9.95241 5.01348 11.1418C5.55524 11.585 6.11548 12.0433 6.71193 12.5443L6.72984 12.5593C6.80717 12.6243 6.90359 12.6568 7 12.6568C7.09641 12.6568 7.19283 12.6243 7.27016 12.5593L7.28807 12.5443C7.88452 12.0433 8.44476 11.585 8.98661 11.1417C10.4404 9.95243 11.696 8.92532 12.5687 7.92885C13.5452 6.81393 14 5.7738 14 4.65547C14 3.6281 13.6372 2.66714 12.9785 1.9496ZM8.4545 10.5424C7.98746 10.9244 7.50682 11.3176 7 11.7406C6.49321 11.3177 6.01254 10.9244 5.54542 10.5423C2.70006 8.21466 0.820312 6.67691 0.820312 4.65547C0.820312 3.81993 1.11029 3.04388 1.63685 2.47029C2.16945 1.89019 2.9088 1.5707 3.71875 1.5707C4.84337 1.5707 5.57036 2.23583 5.98216 2.7938C6.35154 3.29423 6.54429 3.7987 6.61002 3.99234C6.66501 4.15444 6.82243 4.26414 7 4.26414C7.17757 4.26414 7.33499 4.15444 7.38998 3.99234C7.45571 3.7987 7.64846 3.29423 8.01784 2.79377C8.42964 2.23583 9.15663 1.5707 10.2812 1.5707C11.0912 1.5707 11.8305 1.89019 12.3631 2.47029C12.8897 3.04388 13.1797 3.81993 13.1797 4.65547C13.1797 6.67691 11.2999 8.21466 8.4545 10.5424Z" fill="#FF1B6D"/>
</svg>
