<svg width="30" height="30" viewBox="0 0 30 30" fill="none" xmlns="http://www.w3.org/2000/svg">
<path d="M15.1491 24.7143L14.7865 24.3971C6.53967 17.6909 4.31937 15.3346 4.31937 11.4831C4.31937 8.31118 6.90217 5.77368 10.0287 5.77368C12.6569 5.77368 14.1522 7.26899 15.1491 8.4018C16.1459 7.26899 17.6412 5.77368 20.2694 5.77368C23.4412 5.77368 25.9787 8.35649 25.9787 11.4831C25.9787 15.3346 23.7584 17.6909 15.5116 24.3971L15.1491 24.7143ZM10.0287 6.9518C7.53655 6.9518 5.49749 8.99086 5.49749 11.4831C5.49749 14.7909 7.58186 16.9659 15.1491 23.1737C22.7162 16.9659 24.8006 14.7909 24.8006 11.4831C24.8006 8.99086 22.7616 6.9518 20.2694 6.9518C18.0037 6.9518 16.7803 8.31118 15.8287 9.39868L15.1491 10.169L14.4694 9.39868C13.5178 8.31118 12.2944 6.9518 10.0287 6.9518Z" fill="black"/>
</svg>
