<svg width="21" height="22" viewBox="0 0 21 22" fill="none" xmlns="http://www.w3.org/2000/svg">
<path d="M10.498 0C7.44488 0 4.96094 2.60223 4.96094 5.80078C4.96094 8.99933 7.44488 11.6016 10.498 11.6016C13.5512 11.6016 16.0352 8.99933 16.0352 5.80078C16.0352 2.60223 13.5512 0 10.498 0ZM10.498 10.3125C8.12337 10.3125 6.19141 8.28854 6.19141 5.80078C6.19141 3.31302 8.12337 1.28906 10.498 1.28906C12.8727 1.28906 14.8047 3.31302 14.8047 5.80078C14.8047 8.28854 12.8727 10.3125 10.498 10.3125Z" fill="black"/>
<path d="M17.3912 15.3912C15.8752 13.7787 13.8656 12.8906 11.7324 12.8906H9.27148C7.13834 12.8906 5.12866 13.7787 3.61272 15.3912C2.10421 16.9958 1.27344 19.1139 1.27344 21.3555C1.27344 21.7114 1.5489 22 1.88867 22H19.1152C19.455 22 19.7305 21.7114 19.7305 21.3555C19.7305 19.1139 18.8997 16.9958 17.3912 15.3912ZM2.53098 20.7109C2.83921 17.0549 5.74459 14.1797 9.27148 14.1797H11.7324C15.2593 14.1797 18.1647 17.0549 18.4729 20.7109H2.53098Z" fill="black"/>
</svg>
