<svg width="27" height="26" viewBox="0 0 27 26" fill="none" xmlns="http://www.w3.org/2000/svg">
<g clip-path="url(#clip0_353_2504)">
<path d="M26.5992 9.39788C26.2426 8.96715 25.7077 8.72005 25.1316 8.72005H19.9318L17.1121 2.50275C16.9373 2.11727 16.471 1.94111 16.0706 2.10955C15.6703 2.27789 15.4875 2.72695 15.6623 3.11248L18.2054 8.7201H8.79457L11.3377 3.11248C11.5125 2.72695 11.3297 2.27794 10.9294 2.10955C10.5291 1.94111 10.0627 2.11717 9.88791 2.50275L7.06826 8.7201H1.86844C1.29226 8.7201 0.757374 8.96715 0.400837 9.39793C0.0508392 9.82084 -0.0783072 10.3645 0.046515 10.8897L2.82335 22.5694C3.01725 23.3849 3.76645 23.9545 4.64527 23.9545H22.3547C23.2336 23.9545 23.9828 23.3849 24.1767 22.5694L26.9535 10.8896C27.0783 10.3645 26.9492 9.82079 26.5992 9.39788ZM22.3547 22.431H4.64527C4.51095 22.431 4.3933 22.3462 4.36551 22.2293L1.58868 10.5497C1.5669 10.458 1.60344 10.3891 1.63804 10.3474C1.6701 10.3086 1.74272 10.2435 1.86844 10.2435H6.37738L6.17019 10.7004C5.99537 11.086 6.17815 11.535 6.57851 11.7033C6.68155 11.7467 6.78892 11.7672 6.89465 11.7672C7.19956 11.7672 7.49013 11.5965 7.61996 11.3102L8.10369 10.2436H18.8964L19.3801 11.3102C19.51 11.5965 19.8005 11.7672 20.1055 11.7672C20.2111 11.7672 20.3186 11.7467 20.4216 11.7033C20.822 11.535 21.0048 11.086 20.8299 10.7004L20.6227 10.2435H25.1317C25.2574 10.2435 25.33 10.3086 25.3621 10.3474C25.3966 10.3891 25.4332 10.4581 25.4114 10.5497L22.6346 22.2293C22.6068 22.3462 22.4891 22.431 22.3547 22.431Z" fill="black"/>
<path d="M8.75195 14.5442C8.3151 14.5442 7.96094 14.7717 7.96094 15.0524V18.7796C7.96094 19.0603 8.3151 19.2878 8.75195 19.2878C9.1888 19.2878 9.54297 19.0603 9.54297 18.7796V15.0524C9.54297 14.7717 9.18886 14.5442 8.75195 14.5442Z" fill="black"/>
<path d="M13.502 14.5442C13.0651 14.5442 12.7109 14.7717 12.7109 15.0524V18.7796C12.7109 19.0603 13.0651 19.2878 13.502 19.2878C13.9388 19.2878 14.293 19.0603 14.293 18.7796V15.0524C14.293 14.7717 13.9388 14.5442 13.502 14.5442Z" fill="black"/>
<path d="M18.2441 14.5442C17.8073 14.5442 17.4531 14.7717 17.4531 15.0524V18.7796C17.4531 19.0603 17.8073 19.2878 18.2441 19.2878C18.681 19.2878 19.0352 19.0603 19.0352 18.7796V15.0524C19.0351 14.7717 18.681 14.5442 18.2441 14.5442Z" fill="black"/>
</g>
<defs>
<clipPath id="clip0_353_2504">
<rect width="27" height="26" fill="white"/>
</clipPath>
</defs>
</svg>
