<svg width="26" height="25" viewBox="0 0 26 25" fill="none" xmlns="http://www.w3.org/2000/svg">
<g clip-path="url(#clip0_353_2521)">
<path d="M12.8237 24.9999C12.7414 24.9999 12.6581 24.9801 12.5831 24.9405L0.61224 18.6905C0.440365 18.6009 0.332031 18.4228 0.332031 18.2291V6.5103C0.332031 6.3301 0.425781 6.16239 0.578906 6.0676C0.732031 5.9728 0.92474 5.96447 1.08516 6.04468L13.056 12.0343C13.232 12.1228 13.3435 12.303 13.3435 12.4999V24.4791C13.3435 24.6613 13.2487 24.8301 13.0924 24.9249C13.0112 24.9749 12.9174 24.9999 12.8237 24.9999ZM1.3737 17.9134L12.3029 23.6197V12.8218L1.3737 7.35301V17.9134Z" fill="black"/>
<path d="M12.8411 24.9999C12.7474 24.9999 12.6536 24.9749 12.5714 24.9249C12.4161 24.8301 12.3203 24.6614 12.3203 24.4791V12.4999C12.3203 12.3031 12.4318 12.1228 12.6078 12.0343L24.5786 6.04472C24.738 5.96347 24.9318 5.97181 25.0849 6.06764C25.2391 6.16243 25.3328 6.33014 25.3328 6.51035V18.2291C25.3328 18.4228 25.2245 18.601 25.0526 18.6906L13.0818 24.9406C13.0068 24.9801 12.9234 24.9999 12.8411 24.9999ZM13.362 12.8218V23.6197L24.2911 17.9135V7.35306L13.362 12.8218Z" fill="black"/>
<path d="M0.853947 7.03122C0.662281 7.03122 0.478947 6.92601 0.387281 6.74372C0.258114 6.48643 0.363322 6.17393 0.620614 6.04476L12.6081 0.0551758C12.755 -0.0177409 12.9279 -0.0177409 13.0737 0.0551758L25.0446 6.04476C25.3019 6.17393 25.406 6.48643 25.2779 6.74372C25.1487 7.00101 24.8373 7.10413 24.5789 6.97705L12.8414 1.10309L1.08728 6.97601C1.01228 7.01351 0.933114 7.03122 0.853947 7.03122Z" fill="black"/>
<path d="M19.0818 15.6251C18.7943 15.6251 18.5609 15.3918 18.5609 15.1043V9.69696L6.8776 3.85113C6.62031 3.723 6.51614 3.40946 6.64531 3.15217C6.77447 2.89488 7.08697 2.79175 7.34426 2.91884L19.3151 8.90842C19.4911 8.998 19.6026 9.17821 19.6026 9.37509V15.1043C19.6026 15.3918 19.3693 15.6251 19.0818 15.6251Z" fill="black"/>
</g>
<defs>
<clipPath id="clip0_353_2521">
<rect width="25" height="25" fill="white" transform="translate(0.332031)"/>
</clipPath>
</defs>
</svg>
