<svg width="80" height="107" viewBox="0 0 80 107" fill="none" xmlns="http://www.w3.org/2000/svg">
<g clip-path="url(#clip0_109_740)">
<path d="M35.302 43.2067C35.302 43.2067 11.1555 15.5632 6.32073 19.9484C1.45541 24.3375 7.41878 56.1729 34.9536 47.9415L35.302 43.2067Z" fill="#D4CFF3"/>
<path d="M5.80751 20.5428C1.93561 26.6044 8.43314 55.8549 34.9533 47.9414L35.0498 46.5314C10.8129 53.3721 3.59255 28.8428 5.80751 20.5428Z" fill="#D4CFF3"/>
<path d="M34.9534 47.9413L35.3017 43.2066C35.3017 43.2066 28.3692 35.2551 21.1676 28.5808C22.0708 32.1904 22.5443 37.0358 19.2464 38.4265C15.0108 40.2495 10.7977 40.3303 6.67313 34.8716C10.1765 43.9203 18.897 52.7267 34.9534 47.9413Z" fill="#D4CFF3"/>
<path d="M36.8894 47.7834C36.8894 47.7834 19.265 50.5362 11.6654 49.4106C4.06973 48.3154 5.29651 52.5041 7.01618 54.2686C8.76639 56.0291 18.7046 64.6464 37.4056 54.3936L36.8894 47.7834Z" fill="#D4CFF3"/>
<path d="M36.8283 47.7914L37.0457 54.254C17.886 63.6036 8.35831 54.5603 6.68783 52.6963C6.29242 52.2818 5.97278 51.7332 5.74081 51.1421C5.57014 52.2202 6.25977 53.4661 7.01609 54.2686C8.7663 56.0291 18.7045 64.6465 37.4055 54.3936L36.8893 47.7835C36.8893 47.7835 36.8588 47.7874 36.8283 47.7914Z" fill="#D4CFF3"/>
<path d="M37.4054 54.3936L36.8893 47.7835C36.8893 47.7835 30.8312 48.7249 24.2901 49.2942C27.8947 49.7892 31.28 50.7474 31.4793 52.5228C31.8502 55.8598 21.8061 58.8713 12.0475 57.622C16.955 59.7803 25.3725 60.9862 37.4054 54.3936Z" fill="#D4CFF3"/>
<path d="M9.21648 50.1632C9.50161 50.6853 9.3405 51.3583 8.84507 51.609C8.34963 51.8596 7.73366 51.66 7.41799 51.142C7.13285 50.62 7.29396 49.9469 7.7894 49.6962C8.28484 49.4456 8.89684 49.6146 9.21648 50.1632Z" fill="#D4CFF3"/>
<path d="M9.49458 53.2639C9.69881 53.6411 9.69321 54.0766 9.49131 54.196C9.25886 54.3194 8.91777 54.0841 8.71354 53.7069C8.5093 53.3296 8.5149 52.8941 8.71681 52.7748C8.94925 52.6514 9.28638 52.8561 9.49458 53.2639Z" fill="#D4CFF3"/>
<path d="M11.8979 27.2684C12.2957 28.1796 12.1091 29.1355 11.4915 29.402C10.8739 29.6684 10.0882 29.1182 9.68652 28.1765C9.28878 27.2654 9.4753 26.3095 10.0929 26.043C10.7145 25.8071 11.5002 26.3573 11.8979 27.2684Z" fill="#D4CFF3"/>
<path d="M16.0892 32.2836C16.5491 33.4351 16.6506 34.6952 16.3736 35.9113C16.3323 36.072 16.1875 36.1529 16.0269 36.1116C15.9618 36.089 15.8928 36.0358 15.8544 35.9787C15.7231 35.6852 15.6224 35.3877 15.5827 35.0823C15.4028 34.1739 15.345 33.2497 15.5699 32.351C15.6259 32.0642 15.9964 32.0472 16.0892 32.2836Z" fill="#D4CFF3"/>
<path d="M14.5346 33.9449C15.3767 33.494 16.3925 33.4243 17.3298 33.7065C17.4904 33.7477 17.5447 33.927 17.5034 34.0876C17.3824 34.3518 16.9548 34.4073 16.6879 34.504C15.9934 34.6563 15.2564 34.7209 14.5714 34.4681C14.3457 34.4042 14.3327 34.0643 14.5346 33.9449Z" fill="#D4CFF3"/>
<path d="M8.62251 20.4571C9.5931 20.5175 10.4399 21.0598 11.0276 21.76C11.289 22.0987 11.8196 22.8373 11.2286 23.0693C10.9616 23.1661 10.7467 22.9455 10.5436 22.8166C10.034 22.479 9.47791 22.0232 8.99484 21.6511C8.78781 21.4916 8.51176 21.279 8.33131 21.085C8.08581 20.8684 8.27466 20.4091 8.62251 20.4571Z" fill="#D4CFF3"/>
<path d="M41.62 42.3558C41.62 42.3558 56.2919 8.71229 62.2028 11.4236C68.1138 14.1349 72.0998 46.289 43.3711 46.756L41.62 42.3558Z" fill="#D4CFF3"/>
<path d="M62.8466 11.8369C68.3845 16.46 71.0456 46.3015 43.3712 46.7559L42.8569 45.4251C68.0353 44.6424 67.4838 19.0925 62.8466 11.8369Z" fill="#D4CFF3"/>
<path d="M43.375 46.7865L41.6199 42.3558C41.6199 42.3558 45.8301 32.6788 50.653 24.1336C50.8883 27.8609 51.9075 32.6045 55.4618 32.9508C60.0557 33.4106 64.0917 32.2036 66.3918 25.756C65.7573 35.4658 60.1055 46.4789 43.375 46.7865Z" fill="#D4CFF3"/>
<path d="M41.4747 47.2196C41.4747 47.2196 59.1031 44.4973 65.998 41.1491C72.9234 37.797 73.0241 42.1629 71.8807 44.361C70.7373 46.5591 63.9023 57.7878 42.9642 53.6723L41.4747 47.2196Z" fill="#D4CFF3"/>
<path d="M41.5359 47.2116L43.2725 53.4149C64.3932 56.5439 70.7225 45.0082 71.7358 42.7648C71.9778 42.2365 72.1468 41.6245 72.1592 41.0018C72.6565 41.9621 72.3727 43.3654 71.8808 44.361C70.7374 46.559 63.9024 57.7878 42.9643 53.6723L41.4748 47.2195C41.4748 47.2195 41.5053 47.2156 41.5359 47.2116Z" fill="#D4CFF3"/>
<path d="M42.9643 53.6724L41.4748 47.2196C41.4748 47.2196 47.5329 46.2782 53.9285 44.8272C50.6239 46.4051 47.7028 48.3059 48.0549 50.0615C48.7006 53.3628 59.209 53.2104 68.1399 49.0391C64.0997 52.6069 56.4425 56.3024 42.9643 53.6724Z" fill="#D4CFF3"/>
<path d="M68.5686 41.095C68.4607 41.6991 68.8148 42.2743 69.3539 42.3596C69.8929 42.445 70.4336 42.0642 70.572 41.4562C70.68 40.8521 70.3259 40.2769 69.7868 40.1916C69.2172 40.1102 68.6766 40.491 68.5686 41.095Z" fill="#D4CFF3"/>
<path d="M69.2436 44.1442C69.1464 44.5916 69.2895 44.9767 69.5418 45.0061C69.798 45.066 70.0678 44.7515 70.1345 44.3081C70.2317 43.8607 70.0885 43.4755 69.8363 43.4461C69.58 43.3862 69.3103 43.7007 69.2436 44.1442Z" fill="#D4CFF3"/>
<path d="M59.0767 20.1214C58.9897 21.1265 59.4406 21.9687 60.1018 22.0381C60.763 22.1076 61.3478 21.3485 61.4348 20.3434C61.5217 19.3383 61.0708 18.4962 60.4096 18.4267C59.779 18.3533 59.1637 19.1163 59.0767 20.1214Z" fill="#D4CFF3"/>
<path d="M57.1102 26.0291C57.7456 27.0957 58.0302 28.3321 57.9404 29.5549C57.9297 29.7116 57.7889 29.8231 57.6283 29.7818C57.5327 29.7631 57.4676 29.7405 57.4252 29.6529C57.2368 29.3978 57.1361 29.1003 57.0048 28.8068C56.7067 27.9448 56.4961 27.0404 56.591 26.0964C56.6283 25.9053 56.9909 25.8272 57.1102 26.0291Z" fill="#D4CFF3"/>
<path d="M58.7039 27.7788C57.9082 28.3479 56.9427 28.5664 55.9908 28.4104C55.8301 28.3691 55.7492 28.2243 55.76 28.0677C55.7826 28.0026 55.8052 27.9376 55.8623 27.8991C56.0603 27.7492 56.2927 27.6258 56.4986 27.537C57.1773 27.2626 57.8758 27.1409 58.5754 27.2675C58.8317 27.3274 58.9018 27.6289 58.7039 27.7788Z" fill="#D4CFF3"/>
<path d="M59.4265 47.4676C59.4102 48.0598 59.1761 48.6492 58.804 49.1323C58.7243 49.2358 58.5597 49.164 58.5744 49.0378C58.576 48.5718 58.7383 48.147 58.9351 47.7488C59.0108 47.6147 59.1771 47.2205 59.3801 47.3494C59.4146 47.376 59.4186 47.4065 59.4265 47.4676Z" fill="#D4CFF3"/>
<path d="M59.6036 48.5937C59.1415 48.6226 58.6517 48.4378 58.3293 48.1069C58.2603 48.0538 58.2789 47.9582 58.336 47.9197C58.4503 47.8428 58.6414 47.8801 58.7676 47.8948C58.9853 47.8976 60.1375 48.4002 59.6036 48.5937Z" fill="#D4CFF3"/>
<path d="M60.5762 13.2498C60.3755 13.6174 59.9807 14.1656 59.7495 14.5372C59.465 14.9778 59.15 15.4224 58.7621 15.7834C58.5189 16.0634 58.0291 15.8785 58.0426 15.504C58.0979 14.2546 58.971 13.0854 60.1225 12.6254C60.4466 12.4902 60.7424 12.8555 60.5949 13.1542C60.6214 13.1197 60.5762 13.2498 60.5762 13.2498Z" fill="#D4CFF3"/>
<path d="M28.206 30.6491L24.457 33.589C24.457 33.589 24.1983 53.3745 36.7562 47.956C36.7562 47.956 50.0691 45.4832 49.9792 40.9606C49.8892 36.4381 50.208 26.2102 45.4632 26.9812C40.7185 27.7521 28.206 30.6491 28.206 30.6491Z" fill="#FCD260"/>
<path d="M28.206 30.6491L24.457 33.589C24.457 33.589 24.1983 53.3745 36.7562 47.956C36.7562 47.956 50.0691 45.4832 49.9792 40.9606C49.8892 36.4381 50.208 26.2102 45.4632 26.9812C40.7185 27.7521 28.206 30.6491 28.206 30.6491Z" fill="#FCD260"/>
<path d="M28.206 30.6491L24.457 33.589C24.457 33.589 24.1983 53.3745 36.7562 47.956C36.7562 47.956 50.0691 45.4832 49.9792 40.9606C49.8892 36.4381 50.208 26.2102 45.4632 26.9812C40.7185 27.7521 28.206 30.6491 28.206 30.6491Z" fill="#FCD260"/>
<path d="M22.3195 33.1521C22.3195 33.1521 23.8207 38.0195 22.2101 39.9676C20.5996 41.9158 18.6729 39.9918 20.2981 37.9176C20.2981 37.9176 18.2982 38.3013 18.5633 41.062C18.7978 43.8266 21.0686 43.3767 21.0686 43.3767C21.0686 43.3767 19.2813 43.4844 19.621 45.8627C19.9873 48.2065 22.7691 50.0195 25.9138 49.363C29.024 48.6799 31.4714 44.325 24.0765 30.657L22.3195 33.1521Z" fill="#FCD260"/>
<path d="M20.2892 43.3535C18.8625 42.1722 18.7283 40.4194 18.8633 39.0664C18.6133 39.5337 18.4788 40.1722 18.5592 41.0314C18.7201 42.7497 19.62 43.223 20.2892 43.3535Z" fill="#FCD260"/>
<path d="M21.1531 48.3347C22.3303 49.269 24.0667 49.7269 25.91 49.3324C29.0202 48.6493 31.4675 44.2944 24.0727 30.6264L23.2912 31.7837C24.0666 35.8447 26.4162 40.7883 27.2215 43.8826C28.2678 47.8774 23.6939 49.2473 21.1531 48.3347Z" fill="#FCD260"/>
<path d="M49.5802 21.8506C50.4465 24.9369 50.7139 28.1942 50.3506 31.3781C50.2919 31.8826 50.2026 32.3911 50.2394 32.9143C50.2457 33.4414 50.3741 33.9527 50.6779 34.3791C50.9817 34.8055 51.4569 35.1166 51.9535 35.1142C52.4806 35.1079 52.9602 34.7352 53.0495 34.2267C53.1388 33.7182 52.6664 33.1894 52.1738 33.2223C52.7184 32.8721 53.4594 32.838 54.0607 33.1638C54.6274 33.4629 55.02 34.0952 55.0461 34.775C55.0683 35.4243 54.7731 36.0217 54.3399 36.5127C53.9067 37.0037 53.3927 37.3499 52.848 37.7001C53.6885 37.7152 54.5533 37.1993 54.8857 36.4108C55.1366 38.5832 54.7964 40.9877 53.218 42.4658C52.4421 43.1876 51.4738 43.6238 50.4473 43.8502C49.1804 44.1388 47.7528 44.3862 46.755 43.3976C45.5037 42.1314 44.8383 40.3544 44.9218 38.6044C44.9854 36.7017 45.8404 34.9137 46.5121 33.1495C47.6107 30.3671 48.4372 27.4027 48.3888 24.3965C48.3785 23.8388 48.3337 23.2546 48.4802 22.7076C48.5762 22.0119 48.8884 21.785 49.5802 21.8506Z" fill="#FCD260"/>
<path d="M48.4418 22.6506C48.2954 23.1975 48.3402 23.7818 48.3504 24.3395C48.3989 27.3457 47.6029 30.3062 46.4738 33.0925C45.7715 34.8606 44.9471 36.6447 44.8834 38.5474C44.8 40.2974 45.4653 42.0744 46.7166 43.3406C47.7184 44.3597 49.142 44.0818 50.4089 43.7932C51.4355 43.5668 52.4037 43.1306 53.1797 42.4088C53.9516 41.6564 54.4475 40.6914 54.7138 39.632C51.1163 42.3039 48.7021 40.6916 47.6781 39.0232C46.5388 37.1835 48.0309 33.6047 49.497 29.3461C50.4203 26.6486 49.5698 23.6844 48.8739 21.9113C48.6493 22.0957 48.5244 22.3293 48.4418 22.6506Z" fill="#FCD260"/>
<path d="M44.8872 38.5777C44.8037 40.3277 45.4691 42.1047 46.7204 43.3709C47.7222 44.39 49.1458 44.1121 50.4127 43.8235C51.4392 43.5971 52.4075 43.1609 53.1834 42.4391C53.2671 42.3661 53.3203 42.2971 53.3734 42.2281C48.3631 45.0212 44.5482 41.2304 46.4717 35.9497C47.2791 33.7952 47.6605 31.2301 47.844 28.815C47.5031 30.2567 47.0361 31.6838 46.4735 33.0922C45.8058 34.887 44.9508 36.675 44.8872 38.5777Z" fill="#FCD260"/>
<path d="M36.1409 34.8369C36.1409 34.8369 37.2222 38.1439 36.8622 40.3956C36.8622 40.3956 38.4884 40.961 40.0691 39.9794C40.0691 39.9794 38.9074 35.8134 39.6227 34.3851L36.1409 34.8369Z" fill="#FBD0B5"/>
<path d="M36.9087 36.4454C37.7384 36.6173 38.5495 36.8847 39.3154 37.2822C39.3844 37.3354 39.484 37.3845 39.549 37.4072C39.3679 36.2505 39.301 35.017 39.6188 34.3546L36.137 34.8064C36.137 34.8064 36.3424 35.4319 36.5568 36.3668C36.6869 36.4121 36.8131 36.4268 36.9087 36.4454Z" fill="#FBD0B5"/>
<path d="M41.3368 92.828C41.3368 92.828 39.9742 93.098 39.9968 97.1013C40.0194 101.105 41.4269 103.096 43.3193 102.602C45.2118 102.108 45.8506 99.8511 45.2032 97.0158C44.5784 94.1154 43.3919 91.1948 41.3368 92.828Z" fill="#D4CFF3"/>
<path d="M41.047 99.4496C40.2799 98.8038 40.1179 96.8372 40.0697 95.508C40.003 95.9515 39.9787 96.4826 39.9929 97.0708C39.9913 97.5369 40.0162 97.9684 40.0372 98.3694C40.4361 99.5289 41.047 99.4496 41.047 99.4496Z" fill="#D4CFF3"/>
<path opacity="0.5" d="M43.3194 102.602C45.2118 102.108 45.8507 99.8512 45.2033 97.016C44.5519 94.1501 43.3654 91.2295 41.3368 92.8282C41.3368 92.8282 40.9743 92.9063 40.622 93.5421C40.8127 94.2937 41.4559 95.4215 43.592 93.9331C43.592 93.9331 45.2207 96.6721 44.8211 98.6184C44.3909 100.569 41.551 100.223 41.0905 99.7857C41.0905 99.7857 42.6988 101.409 44.7234 99.7801C44.7234 99.7801 44.6894 103.108 41.0653 101.746C41.661 102.507 42.4456 102.809 43.3194 102.602Z" fill="#D4CFF3"/>
<path opacity="0.55" d="M43.6539 100.633C43.7415 100.591 43.8982 100.602 43.9101 100.693C43.914 100.724 43.914 100.724 43.918 100.754C43.862 101.041 43.68 101.313 43.4209 101.471C43.1619 101.629 42.8605 101.699 42.5816 101.704C42.3333 101.705 42.0545 101.71 41.8209 101.585C41.5872 101.46 41.4068 101.266 41.3711 100.992C41.3037 100.472 42.0577 100.778 42.306 100.777C42.7761 100.809 43.2036 100.754 43.6539 100.633Z" fill="#D4CFF3"/>
<path d="M36.5574 75.6219C36.5574 75.6219 40.4783 93.8712 41.4342 94.0577C41.4342 94.0577 42.5626 94.3772 43.1275 93.4653C43.6924 92.5535 42.0762 72.9182 42.0762 72.9182L36.5574 75.6219Z" fill="#FBD0B5"/>
<path d="M43.1275 93.4653C43.6924 92.5534 42.0762 72.9181 42.0762 72.9181L36.5308 75.6564C36.5308 75.6564 36.8472 77.1371 37.3384 79.2473C38.1931 79.8507 39.3108 80.3268 40.6546 80.1524L42.4579 94.0491C42.7209 93.9218 42.9454 93.7374 43.1275 93.4653Z" fill="#FBD0B5"/>
<path d="M46.3981 95.215C46.3625 94.9401 46.1435 94.689 45.9326 94.499C45.4455 94.0964 44.799 93.9007 44.1989 93.8233C43.5377 93.7538 42.8963 93.8371 42.3053 94.069C42.2708 94.0425 42.2363 94.0159 42.1752 94.0238C42.1446 94.0278 42.1181 94.0623 42.0875 94.0662C41.6441 93.9996 41.2086 93.994 40.781 94.0494C40.2923 94.1129 39.7544 94.2758 39.3506 94.5146C39.1487 94.6339 38.9547 94.8144 38.8948 95.0706C38.8615 95.2923 38.8932 95.5367 39.0657 95.6696C39.2422 95.833 39.46 95.8358 39.6658 95.747C39.9288 95.6197 40.1878 95.4618 40.4469 95.304C40.9955 94.9844 41.5135 94.6687 42.0621 94.3491C41.9371 94.5827 41.8122 94.8163 41.6872 95.0499C41.6114 95.1839 41.5515 95.4402 41.7772 95.5041C41.9073 95.5493 42.0176 95.4418 42.0973 95.3383C41.9775 95.8507 41.7926 96.3406 41.5426 96.8078C41.4403 96.9764 41.3272 97.3016 41.6179 97.3881C41.683 97.4107 41.7441 97.4028 41.8012 97.3643C41.8131 97.456 41.9737 97.4972 42.0229 97.3977C42.3395 96.487 42.5261 95.5311 42.5293 94.599C42.9536 95.4756 42.9396 96.5644 42.4624 97.4338C42.4358 97.4683 42.4743 97.5254 42.5127 97.5826C42.7848 97.7646 43.101 97.5683 43.1914 97.3081C43.2593 97.113 43.2355 96.9298 43.2423 96.7425C43.249 96.5553 43.2558 96.3681 43.2586 96.1504C43.2325 95.4705 43.1148 94.8025 42.7035 94.2658C43.2386 94.3206 43.7324 94.5361 44.169 94.79C44.4717 94.9681 44.7743 95.1462 45.1074 95.3204C45.2415 95.3961 45.4061 95.468 45.5707 95.5398C45.7048 95.6155 45.8654 95.6568 46.0181 95.637C46.2133 95.7048 46.4338 95.4899 46.3981 95.215ZM40.815 94.7904C40.6436 94.9058 40.4683 94.9907 40.2664 95.11C40.1216 95.1909 39.9542 95.3369 39.771 95.3607C39.5877 95.3844 39.4723 95.2131 39.483 95.0564C39.4898 94.8692 39.6612 94.7538 39.806 94.6729C40.0955 94.5111 40.4541 94.4024 40.7901 94.3588C41.0344 94.3271 41.3132 94.322 41.5655 94.3514C41.337 94.5053 41.078 94.6631 40.815 94.7904ZM45.5723 95.0737C45.4886 95.1467 45.3665 95.1625 45.2709 95.1439C45.0757 95.076 44.8766 94.9776 44.6736 94.8487C44.4745 94.7503 44.3019 94.6174 44.1028 94.519C43.8042 94.3714 43.475 94.2278 43.1311 94.2103C43.398 94.1136 43.7035 94.074 43.9863 94.0994C44.3912 94.1089 44.8081 94.2101 45.1452 94.4148C45.3138 94.5172 45.4558 94.654 45.5406 94.8294C45.6136 94.9131 45.6255 95.0047 45.5723 95.0737Z" fill="#E05E4C"/>
<path opacity="0.65" d="M46.0542 95.1975C46.0689 95.0714 46.0836 94.9453 46.0372 94.8271C45.7492 94.5228 45.3776 94.2915 44.9873 94.1558C44.528 93.967 44.0275 93.9388 43.5388 94.0022C43.2028 94.0458 42.7832 94.1624 42.4579 94.0493C42.3968 94.0572 42.3397 94.0957 42.3092 94.0996C42.2747 94.0731 42.2402 94.0465 42.1791 94.0544C42.1485 94.0584 42.122 94.0929 42.0914 94.0968L42.0609 94.1008C42.0383 94.1658 41.9811 94.2043 41.9161 94.1817C41.8165 94.1325 41.6904 94.1178 41.5682 94.1337C41.4845 94.2066 41.4314 94.2756 41.3477 94.3486C41.4393 94.3367 41.5043 94.3593 41.596 94.3475C41.3369 94.5053 41.0779 94.6631 40.8149 94.7904C40.6436 94.9058 40.4682 94.9907 40.2663 95.1101C40.1216 95.191 39.9542 95.3369 39.7709 95.3607C39.5876 95.3845 39.4722 95.2131 39.483 95.0564C39.4977 94.9303 39.5774 94.8268 39.6611 94.7538C39.596 94.7312 39.5655 94.7352 39.5005 94.7125C39.4049 94.6939 39.3398 94.6713 39.2787 94.6792C39.1645 94.7561 39.0502 94.8331 38.936 94.91C38.9134 94.9751 38.8602 95.0441 38.8682 95.1052C38.8348 95.3269 38.8665 95.5712 39.0391 95.7041C39.2155 95.8675 39.4333 95.8703 39.6392 95.7815C39.9022 95.6542 40.1612 95.4964 40.4202 95.3385C40.9688 95.0189 41.4869 94.7032 42.0354 94.3836C41.9105 94.6172 41.7855 94.8508 41.6605 95.0844C41.5848 95.2185 41.5249 95.4747 41.7505 95.5386C41.8806 95.5838 41.9909 95.4764 42.0706 95.3728C41.9508 95.8853 41.7659 96.3751 41.516 96.8424C41.4136 97.0109 41.3006 97.3362 41.5913 97.4227C41.5913 97.4227 41.5913 97.4227 41.6218 97.4187C41.6179 97.3881 41.6405 97.3231 41.6365 97.2926C41.6817 97.1625 41.7615 97.0589 41.8412 96.9554C41.9436 96.7869 41.9769 96.5651 42.0448 96.37C42.1765 95.9492 42.2511 95.5668 42.3178 95.1234C42.2646 95.1924 42.2035 95.2003 42.1159 95.2427C42.0548 95.2507 41.9937 95.2586 41.9287 95.236C41.7946 95.1602 41.8093 95.0341 41.8585 94.9345C41.9077 94.835 41.9569 94.7354 42.01 94.6664C42.0632 94.5974 42.0898 94.5629 42.1429 94.4939C42.2001 94.4554 42.2611 94.4475 42.2956 94.4741C42.3301 94.5006 42.3341 94.5312 42.3341 94.5312C42.3341 94.5312 42.3686 94.5578 42.3726 94.5883C42.3805 94.6494 42.3845 94.6799 42.3924 94.741C42.4229 94.737 42.4535 94.7331 42.4574 94.7636C42.4535 94.7331 42.4456 94.672 42.4721 94.6375C42.8964 95.5141 42.8825 96.6029 42.4052 97.4723C42.3786 97.5068 42.4171 97.5639 42.421 97.5945C42.5619 97.483 42.6829 97.2189 42.9165 97.3439C42.9431 97.3093 42.9696 97.2748 42.9657 97.2443C42.9883 97.1793 43.0069 97.0837 42.9951 96.992C43.0058 96.8354 43.0125 96.6482 43.0233 96.4915C43.0673 96.1131 43.0848 95.7692 43.0067 95.4067C42.9326 95.0747 42.7708 94.7851 42.6395 94.4916C42.6011 94.4344 42.6276 94.3999 42.6848 94.3615C42.6503 94.3349 42.6463 94.3043 42.6118 94.2778C43.1469 94.3325 43.6407 94.548 44.0773 94.8019C44.38 94.98 44.6826 95.1581 45.0157 95.3323C45.1153 95.3815 45.2148 95.4307 45.3144 95.4799C45.4405 95.4946 45.5667 95.5093 45.6888 95.4934C45.9066 95.4962 46.0129 95.3582 46.0542 95.1975ZM45.5723 95.0737C45.4886 95.1467 45.3664 95.1626 45.2708 95.1439C45.0757 95.0761 44.8766 94.9777 44.6735 94.8487C44.4744 94.7504 44.3019 94.6175 44.1028 94.5191C43.8041 94.3715 43.4749 94.2279 43.131 94.2104C43.398 94.1136 43.7034 94.074 43.9862 94.0994C44.3912 94.109 44.808 94.2102 45.1451 94.4149C45.3137 94.5172 45.4557 94.6541 45.5406 94.8294C45.6135 94.9131 45.6254 95.0047 45.5723 95.0737Z" fill="#E05E4C"/>
<path d="M48.4532 91.9047C48.4532 91.9047 47.0907 92.1746 47.1133 96.178C47.1359 100.181 48.5434 102.173 50.4358 101.679C52.3282 101.185 52.9671 98.9277 52.3197 96.0924C51.6949 93.1921 50.5084 90.2715 48.4532 91.9047Z" fill="#D4CFF3"/>
<path d="M48.1634 98.5263C47.3964 97.8805 47.2344 95.9139 47.1861 94.5847C47.1194 95.0282 47.0952 95.5593 47.1094 96.1475C47.1078 96.6135 47.1327 97.0451 47.1537 97.4461C47.5526 98.6055 48.1634 98.5263 48.1634 98.5263Z" fill="#D4CFF3"/>
<path opacity="0.5" d="M50.4358 101.679C52.3283 101.185 52.9671 98.9279 52.3197 96.0926C51.6683 93.2268 50.4819 90.3062 48.4533 91.9048C48.4533 91.9048 48.0907 91.9829 47.7384 92.6187C47.9291 93.3704 48.5724 94.4981 50.7085 93.0097C50.7085 93.0097 52.3372 95.7487 51.9376 97.695C51.5074 99.6453 48.6675 99.2995 48.207 98.8624C48.207 98.8624 49.8152 100.486 51.8399 98.8568C51.8399 98.8568 51.8058 102.184 48.1818 100.822C48.7775 101.583 49.562 101.885 50.4358 101.679Z" fill="#D4CFF3"/>
<path opacity="0.55" d="M50.7398 99.7138C50.8275 99.6714 50.9841 99.6821 50.996 99.7737C51 99.8043 51 99.8043 51.0039 99.8348C50.948 100.122 50.7659 100.394 50.5069 100.551C50.2478 100.709 49.9464 100.779 49.6675 100.785C49.4192 100.786 49.1404 100.791 48.9068 100.666C48.6732 100.541 48.4927 100.347 48.4571 100.072C48.3897 99.5529 49.1437 99.8588 49.392 99.8576C49.8925 99.8859 50.3201 99.8304 50.7398 99.7138Z" fill="#D4CFF3"/>
<path d="M43.6738 74.6986C43.6738 74.6986 47.5947 92.9479 48.5506 93.1344C48.5506 93.1344 49.679 93.4538 50.2439 92.542C50.8089 91.6302 49.1926 71.9948 49.1926 71.9948L43.6738 74.6986Z" fill="#FBD0B5"/>
<path d="M43.6738 74.6986C43.6738 74.6986 44.1305 76.7822 44.7355 79.5298C45.1587 80.1582 45.6084 80.752 46.0581 81.3458C46.7387 82.2824 47.3966 83.284 47.8487 84.3744C48.0807 84.9654 48.2821 85.5604 48.3959 86.1978C48.5096 86.8353 48.5929 87.4767 48.7027 88.0835C48.9076 89.4234 49.1125 90.7633 49.3785 92.0953C49.4527 92.4273 49.5268 92.7593 49.6009 93.0913C49.8373 92.9985 50.0658 92.8446 50.2439 92.542C50.8089 91.6302 49.1926 71.9948 49.1926 71.9948L43.6738 74.6986Z" fill="#FBD0B5"/>
<path d="M46.0887 95.2241C46.057 94.9798 46.178 94.7157 46.3375 94.5086C46.6524 94.064 47.1705 93.7483 47.6739 93.5588C48.2078 93.3653 48.7881 93.29 49.3231 93.3448C49.3497 93.3103 49.3763 93.2758 49.4413 93.2984C49.4719 93.2944 49.5064 93.321 49.5064 93.321C49.857 93.1513 50.2156 93.0426 50.6166 93.0217C51.0442 92.9662 51.5103 92.9678 51.9311 93.0995C52.1262 93.1674 52.3253 93.2658 52.4142 93.4716C52.499 93.647 52.5268 93.8608 52.4244 94.0293C52.3221 94.1979 52.1428 94.2522 51.9516 94.2149C51.6994 94.1855 51.4392 94.0951 51.2095 94.0006C50.6931 93.8503 50.1767 93.6999 49.6603 93.5495C49.8062 93.7169 49.9827 93.8803 50.1286 94.0477C50.2361 94.158 50.325 94.3639 50.1496 94.4487C50.062 94.4912 49.9319 94.4459 49.8323 94.3967C50.0405 94.8045 50.3058 95.1738 50.6283 95.5047C50.7397 95.6455 50.9241 95.87 50.6917 95.9933C50.6346 96.0318 50.5735 96.0397 50.5084 96.0171C50.5203 96.1087 50.4061 96.1857 50.3291 96.0714C49.8675 95.386 49.4896 94.6276 49.2604 93.8188C49.0886 94.6485 49.3642 95.5755 49.94 96.184C49.9745 96.2106 49.9519 96.2757 49.9253 96.3102C49.7353 96.5212 49.4446 96.4347 49.2947 96.2367C49.2138 96.0919 49.1634 95.9432 49.1091 95.7639C49.0587 95.6152 49.0044 95.4359 48.9846 95.2831C48.8482 94.7108 48.7995 94.096 49.0415 93.5677C48.6258 93.7148 48.2299 94.0146 47.8991 94.337C47.6785 94.552 47.4619 94.7975 47.2374 94.9819C47.1271 95.0894 47.0168 95.1969 46.9026 95.2738C46.7884 95.3507 46.6741 95.4277 46.5559 95.4741C46.354 95.5934 46.1204 95.4685 46.0887 95.2241ZM50.6959 93.6325C50.8565 93.6738 51.0517 93.7416 51.2123 93.7829C51.3424 93.8281 51.5375 93.896 51.6903 93.8761C51.843 93.8563 51.8842 93.6957 51.8684 93.5735C51.818 93.4248 51.6534 93.353 51.4928 93.3117C51.2021 93.2252 50.8927 93.2343 50.6178 93.27C50.404 93.2977 50.1942 93.356 49.9843 93.4143C50.21 93.4782 50.4662 93.5381 50.6959 93.6325ZM46.7634 94.9192C46.8324 94.9724 46.9546 94.9565 47.0078 94.8875C47.1831 94.8026 47.316 94.6301 47.4263 94.5226C47.5631 94.3806 47.7 94.2387 47.8408 94.1272C48.0613 93.9123 48.3204 93.7544 48.5834 93.6271C48.3351 93.6283 48.0602 93.6639 47.8198 93.7262C47.4918 93.8309 47.1411 94.0006 46.9245 94.2461C46.8142 94.3536 46.7119 94.5221 46.6706 94.6828C46.6825 94.7744 46.6944 94.866 46.7634 94.9192Z" fill="#E05E4C"/>
<path opacity="0.65" d="M46.3861 95.1233C46.3437 95.0357 46.3278 94.9135 46.3159 94.8219C46.4901 94.4887 46.7678 94.2353 47.0494 94.0124C47.4187 93.7471 47.8079 93.6345 48.2315 93.5485C48.5369 93.5088 48.9074 93.4918 49.1664 93.334C49.2275 93.326 49.262 93.3526 49.3231 93.3447C49.3497 93.3102 49.3762 93.2757 49.4413 93.2983C49.4718 93.2943 49.5063 93.3209 49.5063 93.3209C49.5063 93.3209 49.5063 93.3209 49.5369 93.317C49.5714 93.3435 49.6364 93.3661 49.6975 93.3582C49.7852 93.3158 49.8728 93.2734 49.9605 93.2309C50.0295 93.2841 50.1291 93.3333 50.1941 93.3559C50.133 93.3638 50.0454 93.4063 49.9843 93.4142C50.2405 93.4741 50.4702 93.5685 50.7264 93.6284C50.887 93.6697 51.0822 93.7376 51.2428 93.7788C51.3729 93.8241 51.568 93.8919 51.7207 93.8721C51.8735 93.8523 51.9147 93.6916 51.8989 93.5695C51.8525 93.4513 51.7835 93.3981 51.6839 93.3489C51.7105 93.3144 51.7716 93.3065 51.7982 93.272C51.8553 93.2335 51.9164 93.2256 51.9735 93.1871C52.1036 93.2323 52.2031 93.2815 52.3293 93.2962C52.3677 93.3533 52.4022 93.3799 52.4407 93.437C52.5256 93.6124 52.5533 93.8262 52.451 93.9947C52.3486 94.1633 52.1693 94.2176 51.9781 94.1803C51.7259 94.1509 51.4657 94.0605 51.236 93.966C50.7196 93.8157 50.2032 93.6653 49.6868 93.5149C49.8327 93.6823 50.0092 93.8457 50.1552 94.0131C50.2626 94.1234 50.3515 94.3293 50.1761 94.4141C50.0885 94.4566 49.9584 94.4113 49.8588 94.3622C50.067 94.7699 50.3323 95.1392 50.6548 95.4701C50.7662 95.6109 50.9506 95.8354 50.7182 95.9587C50.7182 95.9587 50.7182 95.9587 50.6877 95.9627C50.6837 95.9322 50.6797 95.9016 50.6413 95.8445C50.5683 95.7608 50.4648 95.6811 50.3918 95.5974C50.2804 95.4565 50.1995 95.3117 50.084 95.1404C49.8877 94.8242 49.722 94.5041 49.5523 94.1535C49.6173 94.1761 49.6823 94.1987 49.7434 94.1908C49.8045 94.1829 49.8351 94.1789 49.8922 94.1404C49.9759 94.0675 49.96 93.9453 49.887 93.8616C49.8446 93.7739 49.7756 93.7208 49.7066 93.6676C49.6721 93.641 49.6031 93.5879 49.5686 93.5613C49.5341 93.5347 49.473 93.5426 49.4159 93.5811C49.3893 93.6156 49.3893 93.6156 49.3932 93.6462L49.3667 93.6807C49.3706 93.7112 49.3786 93.7723 49.3865 93.8334C49.3559 93.8373 49.3559 93.8373 49.3294 93.8718C49.3254 93.8413 49.3214 93.8108 49.283 93.7536C49.1111 94.5834 49.3867 95.5104 49.9626 96.1189C49.9971 96.1455 49.9745 96.2105 49.9784 96.2411C49.8444 96.1653 49.6679 96.0019 49.5005 96.1478C49.466 96.1212 49.462 96.0907 49.4275 96.0641C49.389 96.007 49.3506 95.9499 49.3387 95.8582C49.2883 95.7095 49.2419 95.5913 49.1916 95.4425C49.0908 95.145 48.9901 94.8475 48.9771 94.5076C48.972 94.2288 49.0279 93.942 49.0839 93.6552C49.0759 93.5942 49.072 93.5636 49.0414 93.5676C49.0375 93.537 49.064 93.5025 49.0601 93.472C48.6444 93.6191 48.2485 93.9189 47.9177 94.2414C47.6971 94.4563 47.4805 94.7018 47.256 94.8862C47.1723 94.9592 47.1191 95.0282 47.0315 95.0707C46.9438 95.1131 46.8256 95.1595 46.7034 95.1753C46.5705 95.3479 46.467 95.2681 46.3861 95.1233ZM46.7634 94.9191C46.8324 94.9723 46.9545 94.9564 47.0077 94.8874C47.183 94.8025 47.3159 94.63 47.4262 94.5225C47.5631 94.3806 47.6999 94.2386 47.8407 94.1271C48.0613 93.9122 48.3203 93.7543 48.5833 93.627C48.335 93.6282 48.0601 93.6639 47.8197 93.7261C47.4917 93.8308 47.1411 94.0005 46.9245 94.246C46.8142 94.3535 46.7118 94.5221 46.6706 94.6827C46.6825 94.7743 46.6943 94.866 46.7634 94.9191Z" fill="#E05E4C"/>
<path d="M32.4217 44.947C32.4217 44.947 28.1564 57.5503 27.3413 61.3208C27.3413 61.3208 28.9151 62.9178 29.9045 60.4913C30.894 58.0647 35.299 45.1016 35.299 45.1016L32.4217 44.947Z" fill="#FBD0B5"/>
<path d="M31.9056 46.4736C32.4355 46.2496 33.1459 46.2195 33.6392 47.1493C34.549 48.8946 28.606 60.5356 27.3414 61.3208C27.3414 61.3208 28.9151 62.9179 29.9046 60.4913C30.8941 58.0647 35.299 45.1016 35.299 45.1016L32.4483 44.9125C32.4218 44.947 32.2182 45.5324 31.9056 46.4736Z" fill="#FBD0B5"/>
<path d="M45.3984 42.5173C45.3984 42.5173 54.8474 51.9125 57.2567 54.9229C57.2567 54.9229 56.5715 57.0615 54.6035 55.2982C52.6395 53.5654 42.9104 43.9271 42.9104 43.9271L45.3984 42.5173Z" fill="#FBD0B5"/>
<path d="M46.5383 43.643C45.954 43.6878 45.3059 43.9582 45.2879 45.0165C45.2322 46.9802 55.7738 54.7429 57.2529 54.8926C57.2529 54.8926 56.5677 57.0313 54.5997 55.268C52.6357 53.5352 42.9066 43.8969 42.9066 43.8969L45.3905 42.4565C45.3985 42.5176 45.8244 42.9282 46.5383 43.643Z" fill="#FBD0B5"/>
<path d="M35.6787 38.9342C35.6787 38.9342 34.1894 38.2268 33.0719 39.4277C31.9544 40.6286 31.5429 42.4833 31.5429 42.4833C31.5429 42.4833 33.2439 44.3434 35.8829 43.3798L35.6787 38.9342Z" fill="#E0618B"/>
<path d="M31.5431 42.4833C31.2535 42.6451 30.8616 42.9755 30.33 43.6656C30.33 43.6656 31.2365 46.3431 35.8388 46.1496L35.4979 43.523C33.0676 44.1799 31.5431 42.4833 31.5431 42.4833Z" fill="#E0618B"/>
<path opacity="0.65" d="M34.3373 43.6735C34.3492 43.7651 34.3305 43.8607 34.3424 43.9523C34.3368 44.3878 34.2396 44.8352 33.8663 45.07C33.4054 45.3472 32.885 45.1663 32.4257 44.9774C31.9704 44.8191 31.5948 44.5573 31.2723 44.2265C31.0229 43.9793 30.8 43.6977 30.5771 43.416C30.4934 43.489 30.4442 43.5886 30.3645 43.6921C30.3645 43.6921 31.2709 46.3695 35.8732 46.1761L35.5284 43.5189C35.1088 43.6355 34.7077 43.6565 34.3373 43.6735Z" fill="#E0618B"/>
<path d="M31.8809 45.3276L32.7347 43.2913C32.4361 43.1438 32.168 42.9922 31.9915 42.8288C31.7376 43.2655 31.2829 44.0698 30.9798 44.606C31.1987 44.8571 31.4788 45.1003 31.8809 45.3276Z" fill="#E0618B"/>
<path d="M34.0236 46.0433L34.1766 43.6321C33.8937 43.6067 33.6415 43.5773 33.4158 43.5135L33.0637 45.8263C33.3239 45.9167 33.6757 45.9953 34.0236 46.0433Z" fill="#E0618B"/>
<path d="M35.8386 46.1494L35.4978 43.5228C35.2879 43.5811 35.1047 43.6049 34.9214 43.6287L34.9676 46.1382C35.2504 46.1637 35.5598 46.1546 35.8386 46.1494Z" fill="#E0618B"/>
<path opacity="0.5" d="M33.072 39.4276C31.9545 40.6286 31.543 42.4832 31.543 42.4832C32.021 42.5765 32.8722 42.435 33.2781 41.0158C33.5523 40.0175 34.1557 39.1628 34.9712 38.7464C34.4362 38.6916 33.6992 38.7562 33.072 39.4276Z" fill="#E0618B"/>
<path d="M40.7183 38.2803C40.7183 38.2803 41.9777 37.2162 43.3647 38.0921C44.7517 38.9681 45.623 40.6563 45.623 40.6563C45.623 40.6563 44.453 42.8889 41.6555 42.6308L40.7183 38.2803Z" fill="#E0618B"/>
<path d="M45.6229 40.6563C45.9442 40.7389 46.4074 40.9583 47.0975 41.4898C47.0975 41.4898 46.9045 44.31 42.4052 45.2975L42.0644 42.6709C44.5819 42.6858 45.6229 40.6563 45.6229 40.6563Z" fill="#E0618B"/>
<path opacity="0.65" d="M43.225 42.5203C43.2369 42.612 43.2793 42.6996 43.2912 42.7913C43.4078 43.2109 43.616 43.6187 44.0368 43.7504C44.5532 43.9008 45.0102 43.5931 45.4061 43.2932C45.8059 43.024 46.1022 42.6749 46.3296 42.2728C46.5077 41.9701 46.6513 41.6409 46.7949 41.3117C46.8945 41.3609 46.9674 41.4446 47.071 41.5244C47.071 41.5244 46.8779 44.3445 42.3786 45.3321L42.0338 42.6749C42.4999 42.6765 42.8624 42.5984 43.225 42.5203Z" fill="#E0618B"/>
<path d="M46.0526 43.4887L44.7073 41.7377C44.9584 41.5188 45.179 41.3039 45.3079 41.1008C45.6649 41.4582 46.3097 42.1199 46.7396 42.561C46.5615 42.8636 46.3529 43.1702 46.0526 43.4887Z" fill="#E0618B"/>
<path d="M44.1331 44.7317L43.3698 42.4394C43.6367 42.3426 43.8731 42.2498 44.0751 42.1305L45.0058 44.2768C44.7773 44.4307 44.4877 44.5925 44.1331 44.7317Z" fill="#E0618B"/>
<path d="M42.4053 45.2975L42.0645 42.6709C42.2822 42.6737 42.4655 42.6499 42.6487 42.6261L43.2446 45.0644C42.9777 45.1611 42.7067 45.2273 42.4053 45.2975Z" fill="#E0618B"/>
<path opacity="0.5" d="M43.3648 38.0921C44.7518 38.968 45.623 40.6562 45.623 40.6562C45.1847 40.8684 44.3256 40.9488 43.5709 39.6803C43.051 38.785 42.2494 38.1126 41.3546 37.9181C41.858 37.7286 42.587 37.6029 43.3648 38.0921Z" fill="#E0618B"/>
<path d="M35.1771 38.6577C35.1771 38.6577 37.5056 37.4549 41.5604 37.8294C41.5604 37.8294 43.1737 47.8686 44.9908 50.8627C44.9908 50.8627 42.466 55.8177 35.5603 53.5771C35.5603 53.5771 34.4748 52.631 34.7093 51.3273C34.9399 49.993 34.7719 41.0395 35.1771 38.6577Z" fill="#E0618B"/>
<path d="M45.0213 50.8588C43.2003 47.8342 41.5909 37.8254 41.5909 37.8254C41.0864 37.7667 40.5898 37.769 40.1238 37.7674C40.5098 40.2639 41.4088 46.2343 41.52 48.7665C41.6652 52.0396 38.0922 51.789 36.8141 52.9486C36.4222 53.279 36.4658 53.615 36.7498 53.8887C42.7652 55.251 45.0213 50.8588 45.0213 50.8588Z" fill="#E0618B"/>
<path d="M42.6694 49.4869C42.1671 53.9931 40.6473 53.2897 40.6473 53.2897C41.1364 52.5119 40.6962 51.5131 40.6962 51.5131C40.8576 52.5171 39.8622 53.7021 39.8622 53.7021C38.6671 53.8262 37.9561 52.8936 37.9561 52.8936C38.0619 53.4699 38.7362 53.8793 39.4822 54.1241C40.4369 54.0623 41.2192 53.8677 41.9244 53.5588C43.026 52.2357 42.6694 49.4869 42.6694 49.4869Z" fill="#E0618B"/>
<path d="M35.0686 48.113C35.2899 48.8607 35.98 49.3923 35.98 49.3923C34.7931 47.186 35.407 40.4292 35.6115 38.4151C35.314 38.5158 35.1692 38.5967 35.1692 38.5967C34.764 40.9785 34.936 49.9626 34.732 51.2623C34.4974 52.5661 35.5829 53.5122 35.5829 53.5122C35.8431 53.6027 36.0993 53.6626 36.3595 53.753C34.5935 51.8704 35.0686 48.113 35.0686 48.113Z" fill="#E0618B"/>
<path d="M38.6316 43.0232C41.1706 42.7248 40.8013 38.9217 40.6468 37.7306C38.679 37.6443 37.1943 37.9301 36.2979 38.2017C36.1895 39.5201 36.1232 43.3176 38.6316 43.0232Z" fill="#FBD0B5"/>
<path d="M62.1999 55.6792C59.6344 56.0122 50.5422 55.1112 44.9908 50.8625C44.8884 51.0311 42.3359 55.7723 35.5563 53.5464C35.5563 53.5464 35.4872 53.4933 35.4143 53.4096C34.5836 54.6665 33.5148 56.4822 32.7526 58.5066C31.3414 62.2302 23.9033 63.7854 21.0449 65.2122C18.1866 66.6391 15.7842 69.1869 17.4542 71.7652C19.0937 74.3476 23.3309 72.0586 23.3309 72.0586C23.3309 72.0586 21.4097 77.8359 25.6269 77.7856C29.844 77.7353 31.1433 74.5852 31.1433 74.5852C31.1433 74.5852 32.1083 79.1495 37.2897 78.6325C42.4712 78.1154 43.7253 75.0955 43.7253 75.0955C43.7253 75.0955 46.6568 79.4977 51.0174 77.4412C55.3779 75.3847 56.2406 71.9807 56.2406 71.9807C56.2406 71.9807 61.1695 73.8257 63.5814 70.8729C65.9933 67.9201 63.7596 66.5019 63.7596 66.5019C63.7596 66.5019 70.9195 65.9144 72.3932 60.0398C73.867 54.1653 65.0403 55.3107 62.1999 55.6792Z" fill="#E0618B"/>
<path d="M62.2 55.6792C59.6345 56.0121 50.5422 55.1112 44.9908 50.8625C44.8885 51.0311 42.336 55.7723 35.5564 53.5464C35.5564 53.5464 35.4873 53.4933 35.4144 53.4096C34.7657 54.3944 33.9735 55.7084 33.2967 57.1937C34.0218 57.0375 34.7785 57.1257 35.4715 57.4395C36.6316 58.0033 37.3319 59.0925 37.5555 60.3368C37.6047 60.2373 37.6539 60.1377 37.6991 60.0076C38.1459 59.1422 38.8301 58.4323 39.7068 58.0079C40.5834 57.5836 41.6072 57.575 42.4912 57.9261C44.0988 58.5871 44.8026 60.4213 45.2225 61.9817C45.8399 64.1066 46.4878 66.2275 46.9564 68.4028C47.1907 69.4904 47.3678 70.6165 47.4494 71.724C47.5191 72.7398 47.4972 73.7675 47.2841 74.7579C47.1349 75.5226 46.8595 76.2726 46.3121 76.8406C46.2018 76.9481 46.0916 77.0555 45.9813 77.163C47.2608 77.9287 48.9972 78.3866 51.048 77.4372C55.4085 75.3807 56.2712 71.9768 56.2712 71.9768C56.2712 71.9768 61.2001 73.8217 63.612 70.8689C66.0239 67.9161 63.7902 66.4979 63.7902 66.4979C63.7902 66.4979 70.9501 65.9104 72.4239 60.0359C73.8671 54.1653 65.0404 55.3107 62.2 55.6792Z" fill="#E0618B"/>
<path d="M22.3608 71.2837C21.9689 71.614 21.5346 71.8567 21.0538 71.9812C18.99 72.5907 17.7637 71.756 17.0526 70.8234C17.1533 71.1209 17.2885 71.445 17.4848 71.7611C19.1243 74.3434 23.3615 72.0545 23.3615 72.0545C23.3615 72.0545 23.2032 72.5098 23.0992 73.1444C23.621 71.1823 24.541 69.4169 24.973 68.6776C24.3431 69.5668 23.061 70.6959 22.3608 71.2837Z" fill="#E0618B"/>
<path d="M34.8683 68.1079C33.496 71.1742 32.2491 73.2926 31.1979 74.7644C31.3144 75.1841 31.7756 76.5839 33.0602 77.6284C32.182 74.4504 34.8683 68.1079 34.8683 68.1079Z" fill="#E0618B"/>
<path d="M49.3283 69.9273C49.8934 70.6925 52.4934 74.4545 51.6056 75.7499C50.6154 77.2138 48.1299 75.0518 48.1299 75.0518C50.6641 77.8286 46.7512 77.591 46.7512 77.591C47.934 78.0897 49.3825 78.2434 51.0521 77.4677C53.6859 76.2253 55.072 74.4615 55.7274 73.2895C52.0985 73.3256 49.8165 70.5782 49.3283 69.9273Z" fill="#E0618B"/>
<path d="M59.8268 72.5713C61.1559 72.5231 62.5942 72.119 63.5855 70.9034C65.9975 67.9506 63.7637 66.5324 63.7637 66.5324C63.7637 66.5324 63.947 66.5086 64.2829 66.465C62.4492 66.4545 60.0222 66.1794 57.1641 65.2148C57.1641 65.2148 65.9214 70.4761 59.8268 72.5713Z" fill="#E0618B"/>
<path d="M72.424 60.0359C73.4624 55.8328 69.2232 55.2338 65.6978 55.3496C74.277 56.8451 71.043 62.0785 68.3562 65.0669C70.0671 64.1306 71.7903 62.5716 72.424 60.0359Z" fill="#E0618B"/>
<path d="M35.7501 55.7574C35.7501 55.7574 37.3912 53.8053 36.7496 56.2799C36.7496 56.2799 37.1154 55.2697 37.8298 55.2702C38.5136 55.2746 34.7561 67.0046 34.7561 67.0046C34.7561 67.0046 36.2725 62.8947 36.7687 63.6068C37.2953 64.3148 35.9988 67.2471 35.9988 67.2471C35.9988 67.2471 37.7327 65.5314 38.0687 61.4194C38.4047 57.3074 38.9277 55.5936 39.0246 57.5375C39.0246 57.5375 39.0911 55.4171 39.8015 55.387C40.4813 55.3609 40.6809 62.8817 40.5899 63.8563C40.6261 63.4168 41.4139 54.6498 42.086 68.4448C42.086 68.4448 42.6412 62.1925 44.0204 68.7528C44.0204 68.7528 42.6645 59.0218 41.1917 55.3308C41.1917 55.3308 41.9049 55.083 42.3122 55.5891C42.3122 55.5891 45.2461 60.488 46.0129 63.5252C46.0129 63.5252 46.025 61.2255 42.7188 55.1327C42.7188 55.1327 43.3262 54.3085 43.7985 54.8373C44.3014 55.3621 46.9537 60.4838 46.9537 60.4838C46.9537 60.4838 43.9771 53.8203 43.9137 53.3316C43.8503 52.8429 45.6451 53.5107 47.606 57.8526C47.606 57.8526 47.354 55.4318 44.9352 52.8264C44.9352 52.8264 45.4378 51.6742 46.9798 53.0269C48.3799 54.2428 52.9355 56.3225 57.9286 55.5503C54.0451 55.0605 48.7175 53.7331 44.9949 50.8932C44.8925 51.0617 42.34 55.8029 35.5604 53.577C35.5604 53.577 35.4913 53.5239 35.4184 53.4402C35.2097 53.7468 35.005 54.0839 34.8003 54.421C35.5004 53.8333 36.0807 53.758 35.7501 55.7574Z" fill="#E0618B"/>
<path d="M24.0537 63.2689C24.0537 63.2689 26.491 64.1017 28.9104 61.9244C28.9104 61.9244 28.9617 60.6444 26.4516 61.4049C24.0066 62.1881 24.0537 63.2689 24.0537 63.2689Z" fill="#FBD0B5"/>
<path opacity="0.75" d="M24.0537 63.2689C24.0537 63.2689 26.491 64.1017 28.9104 61.9244C28.9104 61.9244 28.9617 60.6444 26.4516 61.4049C24.0066 62.1881 24.0537 63.2689 24.0537 63.2689Z" fill="#FBD0B5"/>
<path d="M28.5188 61.5405C28.5188 61.5405 29.1795 62.3244 28.5603 63.0569C27.9411 63.7895 27.9264 63.9156 28.2369 64.1548C28.5475 64.394 30.2289 63.71 30.2366 62.094C30.2138 60.4821 29.0457 59.8572 27.8189 59.7369C26.5921 59.6166 24.9825 60.136 23.3311 61.5305C21.6797 62.9249 21.2008 64.2604 21.7517 64.4373C21.7517 64.4373 21.6359 64.9803 22.1364 65.0085C22.1364 65.0085 22.564 64.953 22.6997 64.5628C22.6997 64.5628 22.9583 65.1193 23.4791 64.5858C24.0305 64.0484 25.0058 61.0336 28.5188 61.5405Z" fill="#FBD0B5"/>
<path d="M23.985 62.5015C23.985 62.5015 22.4732 63.5362 22.7075 64.6239C22.7075 64.6239 22.7036 64.5933 22.7341 64.5894C22.7341 64.5894 22.7726 64.6465 22.8456 64.7302C22.7901 64.3026 22.9472 63.599 23.985 62.5015Z" fill="#FBD0B5"/>
<path d="M23.7011 62.2278C23.7011 62.2278 22.1378 62.8655 21.6216 64.3921C21.6561 64.4187 21.6946 64.4758 21.7557 64.4679C21.7557 64.4679 21.7224 64.6896 21.8033 64.8344C21.7172 64.4108 22.0152 63.5957 23.7011 62.2278Z" fill="#FBD0B5"/>
<path d="M60.0071 56.4917C60.0071 56.4917 58.1487 57.7266 55.6214 56.4396C55.6214 56.4396 55.2995 55.3944 57.5461 55.4756C59.7926 55.5568 60.0071 56.4917 60.0071 56.4917Z" fill="#FBD0B5"/>
<path opacity="0.75" d="M60.0071 56.4917C60.0071 56.4917 58.1487 57.7266 55.6214 56.4396C55.6214 56.4396 55.2995 55.3944 57.5461 55.4756C59.7926 55.5568 60.0071 56.4917 60.0071 56.4917Z" fill="#FBD0B5"/>
<path d="M55.9058 55.9991C55.9058 55.9991 55.5467 56.8221 56.2249 57.262C56.9071 57.7325 56.9535 57.8507 56.7369 58.0962C56.5203 58.3417 54.9762 58.1694 54.6146 56.8188C54.253 55.4682 55.1166 54.704 56.1233 54.3249C57.13 53.9458 58.6012 54.0344 60.2896 54.8402C61.9781 55.6459 62.6665 56.6436 62.2361 56.9168C62.2361 56.9168 62.4483 57.3551 62.0286 57.4717C62.0286 57.4717 61.6621 57.5192 61.4353 57.2071C61.4353 57.2071 61.3499 57.7461 60.7792 57.4164C60.2124 57.1173 58.7308 54.794 55.9058 55.9991Z" fill="#FBD0B5"/>
<path d="M59.9199 55.8198C59.9199 55.8198 61.416 56.34 61.4472 57.2987C61.4472 57.2987 61.4433 57.2681 61.4127 57.2721C61.4127 57.2721 61.3901 57.3371 61.3675 57.4022C61.3239 57.0662 61.0309 56.4831 59.9199 55.8198Z" fill="#FBD0B5"/>
<path d="M60.0981 55.5171C60.0981 55.5171 61.5506 55.7013 62.32 56.8437C62.2934 56.8782 62.2669 56.9127 62.2097 56.9512C62.2097 56.9512 62.2946 57.1265 62.2533 57.2872C62.2323 56.8861 61.8132 56.2883 60.0981 55.5171Z" fill="#FBD0B5"/>
<path d="M46.1731 74.0948C46.5273 74.0488 46.7772 73.7244 46.7312 73.3702C46.6853 73.016 46.3608 72.7661 46.0066 72.812C45.6524 72.858 45.4025 73.1824 45.4485 73.5367C45.4944 73.8909 45.8188 74.1408 46.1731 74.0948Z" fill="#E0618B"/>
<path d="M45.3299 71.906C45.3537 72.0893 45.5223 72.1916 45.675 72.1718C45.8277 72.152 45.9606 71.9795 45.9408 71.8267C45.917 71.6435 45.7484 71.5411 45.5957 71.561C45.443 71.5808 45.3061 71.7228 45.3299 71.906Z" fill="#E0618B"/>
<path d="M42.5434 65.0314C42.5592 65.1536 42.6627 65.2333 42.7849 65.2175C42.9071 65.2016 42.9868 65.0981 42.971 64.9759C42.9551 64.8538 42.8516 64.774 42.7294 64.7899C42.6073 64.8057 42.5275 64.9093 42.5434 65.0314Z" fill="#E0618B"/>
<path d="M39.7447 76.7302C39.7685 76.9135 39.9371 77.0158 40.0898 76.996C40.273 76.9722 40.3754 76.8037 40.3556 76.651C40.3318 76.4677 40.1632 76.3654 40.0105 76.3852C39.8578 76.405 39.7209 76.547 39.7447 76.7302Z" fill="#E0618B"/>
<path d="M19.8534 67.7583C19.8771 67.9416 20.0457 68.0439 20.1984 68.0241C20.3817 68.0003 20.484 67.8317 20.4642 67.679C20.4404 67.4958 20.2719 67.3934 20.1191 67.4132C19.9664 67.4331 19.8335 67.6056 19.8534 67.7583Z" fill="#E0618B"/>
<path d="M29.1596 66.2402C29.1754 66.3623 29.2789 66.4421 29.4011 66.4262C29.5233 66.4104 29.603 66.3068 29.5872 66.1847C29.5713 66.0625 29.4678 65.9828 29.3456 65.9986C29.2235 66.0145 29.1437 66.118 29.1596 66.2402Z" fill="#E0618B"/>
<path d="M47.3354 71.0868C47.3512 71.209 47.4547 71.2887 47.5769 71.2729C47.6991 71.257 47.7788 71.1535 47.7629 71.0314C47.7471 70.9092 47.6436 70.8295 47.5214 70.8453C47.4298 70.8572 47.3195 70.9647 47.3354 71.0868Z" fill="#E0618B"/>
<path d="M54.9072 70.3216C54.931 70.5048 55.1074 70.6683 55.3212 70.6405C55.5045 70.6168 55.6679 70.4403 55.6402 70.2265C55.6164 70.0432 55.4399 69.8798 55.2261 69.9075C55.0163 69.9658 54.8834 70.1383 54.9072 70.3216Z" fill="#E0618B"/>
<path d="M38.427 69.4477C38.6294 69.4214 38.7722 69.236 38.7459 69.0336C38.7196 68.8312 38.5343 68.6884 38.3318 68.7146C38.1294 68.7409 37.9866 68.9263 38.0129 69.1287C38.0392 69.3311 38.2245 69.4739 38.427 69.4477Z" fill="#E0618B"/>
<path d="M60.3005 64.4974C60.3243 64.6806 60.5008 64.8441 60.7146 64.8163C60.9284 64.7886 61.0612 64.616 61.0335 64.4022C61.0097 64.219 60.8332 64.0556 60.6194 64.0833C60.4056 64.111 60.2767 64.3141 60.3005 64.4974Z" fill="#E0618B"/>
<path d="M28.2542 70.2708C28.5223 70.4223 28.7412 70.6734 28.838 70.9404C28.8884 71.0891 28.9121 71.2724 28.8709 71.433C28.7804 71.6932 28.4563 71.8284 28.1815 71.8641C27.876 71.9037 27.5282 71.8557 27.2561 71.6736C26.984 71.4915 26.8183 71.1714 26.8092 70.862C26.8707 70.1397 27.7525 69.9942 28.2542 70.2708Z" fill="#E0618B"/>
<path d="M27.7263 73.3829C27.9519 73.4468 28.1629 73.6368 28.2557 73.8732C28.3525 74.1402 28.2089 74.4694 27.9843 74.6538C27.7598 74.8382 27.4239 74.8818 27.1676 74.8219C27.072 74.8032 26.9725 74.754 26.9035 74.7009C26.8345 74.6477 26.792 74.5601 26.7496 74.4724C26.4792 73.8242 27.1143 73.2139 27.7263 73.3829Z" fill="#E0618B"/>
<path d="M25.9031 75.6069C26.1406 75.7624 26.3024 76.052 26.2159 76.3427C26.1294 76.6335 25.8054 76.7687 25.4999 76.8083C25.3778 76.8242 25.2516 76.8095 25.156 76.7908C24.9304 76.7269 24.742 76.4719 24.7408 76.2236C24.6842 75.5477 25.4013 75.3304 25.9031 75.6069Z" fill="#E0618B"/>
<path d="M35.8627 74.0973C36.042 74.0429 36.2292 74.0497 36.3672 74.156C36.5012 74.2318 36.5556 74.4111 36.5448 74.5678C36.5341 74.7244 36.4278 74.8624 36.283 74.9434C36.1382 75.0243 35.9855 75.0441 35.8249 75.0028C35.7598 74.9802 35.7293 74.9841 35.6603 74.931C35.5262 74.8552 35.4453 74.7104 35.4295 74.5883C35.3898 74.2828 35.6223 74.1595 35.8627 74.0973Z" fill="#E0618B"/>
<path d="M44.5962 71.0384C44.7184 71.0225 44.8406 71.0067 44.9096 71.0598C44.9786 71.113 45.025 71.2312 45.0063 71.3268C44.9877 71.4224 44.9385 71.5219 44.8203 71.5683C44.7326 71.6108 44.6105 71.6266 44.5149 71.608C44.4843 71.6119 44.4498 71.5853 44.4153 71.5588C44.3463 71.5056 44.2733 71.4219 44.2614 71.3303C44.3027 71.1696 44.4475 71.0887 44.5962 71.0384Z" fill="#E0618B"/>
<path d="M37.1356 72.6587C37.3268 72.696 37.5033 72.8594 37.5005 73.0772C37.5163 73.1993 37.4672 73.2989 37.3874 73.4024C37.3382 73.5019 37.2545 73.5749 37.1708 73.6479C37.0871 73.7209 36.965 73.7367 36.8694 73.7181C36.6782 73.6808 36.5322 73.5134 36.5085 73.3301C36.4581 73.1814 36.4835 72.8986 36.5938 72.7911C36.7001 72.6531 36.975 72.6174 37.1356 72.6587Z" fill="#E0618B"/>
<path d="M46.2098 74.6179C46.401 74.6552 46.5775 74.8186 46.5747 75.0364C46.5906 75.1585 46.5414 75.2581 46.4616 75.3616C46.4124 75.4612 46.3287 75.5341 46.245 75.6071C46.1613 75.6801 46.0392 75.6959 45.9436 75.6773C45.7524 75.64 45.6065 75.4726 45.5827 75.2893C45.5323 75.1406 45.5577 74.8578 45.668 74.7503C45.7743 74.6123 46.0492 74.5766 46.2098 74.6179Z" fill="#E0618B"/>
<path d="M38.0827 71.8214C38.1172 71.848 38.1823 71.8706 38.1902 71.9317C38.2326 72.0194 38.2445 72.111 38.2219 72.1761C38.1993 72.2411 38.2033 72.2716 38.1767 72.3062C38.1235 72.3752 38.0398 72.4481 37.9482 72.46C37.8566 72.4719 37.761 72.4533 37.6654 72.4346C37.6003 72.412 37.5313 72.3588 37.5234 72.2978C37.5194 72.2672 37.5115 72.2061 37.5076 72.1756C37.4877 72.0229 37.5024 71.8967 37.6472 71.8158C37.796 71.7655 37.9526 71.7762 38.0827 71.8214Z" fill="#E0618B"/>
<path d="M41.2005 71.9139C41.4222 71.9472 41.6293 72.1067 41.657 72.3205C41.6689 72.4121 41.6463 72.4771 41.6237 72.5422C41.5558 72.7373 41.419 72.8793 41.2436 72.9642C41.0683 73.0491 40.8545 73.0768 40.6594 73.0089C40.5943 72.9863 40.5598 72.9598 40.4948 72.9371C40.4563 72.88 40.4218 72.8534 40.3833 72.7963C40.2945 72.5904 40.3239 72.3382 40.4528 72.1351C40.6123 71.9281 40.9483 71.8845 41.2005 71.9139Z" fill="#E0618B"/>
<path d="M20.2983 69.7503C20.4284 69.7956 20.4827 69.9749 20.4335 70.0744C20.4109 70.1395 20.3843 70.174 20.3272 70.2124C20.3006 70.2469 20.2701 70.2509 20.213 70.2894C20.1253 70.3318 20.0297 70.3132 19.9607 70.26C19.8917 70.2068 19.8493 70.1192 19.8413 70.0581C19.8334 69.997 19.856 69.932 19.8786 69.8669C19.9199 69.7063 20.1948 69.6706 20.2983 69.7503Z" fill="#E0618B"/>
<path d="M25.8735 70.1138C26.0036 70.159 26.0539 70.3077 26.0698 70.4299C26.0737 70.4604 26.0817 70.5215 26.0856 70.5521C26.067 70.6477 26.0138 70.7167 25.9607 70.7857C25.877 70.8587 25.7893 70.9011 25.6671 70.9169C25.541 70.9023 25.4375 70.8225 25.3911 70.7043C25.2904 70.4068 25.4792 69.9475 25.8735 70.1138Z" fill="#E0618B"/>
<path d="M35.756 72.5584C35.821 72.581 35.8635 72.6686 35.8714 72.7297C35.8754 72.7603 35.8793 72.7908 35.8793 72.7908C35.8873 72.8519 35.8301 72.8904 35.8036 72.9249C35.7464 72.9633 35.6893 73.0018 35.6282 73.0097C35.5671 73.0177 35.4981 72.9645 35.4557 72.8768C35.4014 72.6975 35.5224 72.4334 35.756 72.5584Z" fill="#E0618B"/>
<path d="M68.6782 59.6525C68.491 59.6457 68.3117 59.7 68.2054 59.8381C68.0951 59.9455 68.0884 60.1328 68.1387 60.2815C68.1891 60.4303 68.3271 60.5366 68.4877 60.5778C68.6484 60.6191 68.8011 60.5993 68.9459 60.5184C69.003 60.4799 69.0335 60.476 69.0867 60.407C69.197 60.2995 69.2382 60.1388 69.2224 60.0167C69.1788 59.6807 68.9265 59.6513 68.6782 59.6525Z" fill="#E0618B"/>
<path d="M67.0763 58.5559C66.9009 58.6408 66.772 58.8438 66.8303 59.0537C66.8461 59.1758 66.9191 59.2595 67.0226 59.3393C67.0956 59.423 67.1952 59.4722 67.2947 59.5213C67.3943 59.5705 67.5164 59.5547 67.6041 59.5123C67.7794 59.4274 67.8778 59.2283 67.854 59.045C67.8648 58.8884 67.768 58.6214 67.6339 58.5456C67.4959 58.4393 67.221 58.475 67.0763 58.5559Z" fill="#E0618B"/>
<path d="M65.9506 58.0189C65.924 58.0534 65.8669 58.0919 65.8748 58.153C65.8561 58.2486 65.868 58.3402 65.9065 58.3973C65.945 58.4544 65.9489 58.485 65.9834 58.5116C66.0524 58.5647 66.152 58.6139 66.2436 58.602C66.3352 58.5901 66.4229 58.5477 66.5106 58.5053C66.5677 58.4668 66.6208 58.3978 66.6129 58.3367C66.609 58.3062 66.601 58.2451 66.5971 58.2145C66.5773 58.0618 66.5309 57.9436 66.3702 57.9024C66.2096 57.8611 66.0608 57.9114 65.9506 58.0189Z" fill="#E0618B"/>
<path d="M62.9557 58.8732C62.7499 58.962 62.5904 59.1691 62.6181 59.3828C62.63 59.4745 62.6685 59.5316 62.707 59.5887C62.8224 59.7601 62.9909 59.8624 63.1821 59.8997C63.3733 59.937 63.5871 59.9093 63.7585 59.7939C63.8156 59.7554 63.8422 59.7209 63.8993 59.6825C63.9219 59.6174 63.9485 59.5829 63.9711 59.5178C64.0044 59.2961 63.9116 59.0597 63.7352 58.8963C63.5281 58.7368 63.1922 58.7804 62.9557 58.8732Z" fill="#E0618B"/>
<path d="M68.3845 58.1066C68.3274 58.1451 68.3087 58.2407 68.3166 58.3018C68.3206 58.3323 68.3246 58.3629 68.3246 58.3629C68.3325 58.424 68.3975 58.4466 68.4321 58.4732C68.4971 58.4958 68.5621 58.5184 68.6232 58.5105C68.6843 58.5025 68.7375 58.4335 68.7561 58.3379C68.7669 58.1813 68.5824 57.9567 68.3845 58.1066Z" fill="#E0618B"/>
<path d="M25.1334 72.7877C25.2635 72.8329 25.3139 72.9816 25.3297 73.1038C25.3337 73.1344 25.3416 73.1954 25.3456 73.226C25.3269 73.3216 25.2738 73.3906 25.2206 73.4596C25.1369 73.5326 25.0492 73.575 24.9271 73.5909C24.8009 73.5762 24.6974 73.4964 24.651 73.3782C24.5464 73.0502 24.7352 72.5909 25.1334 72.7877Z" fill="#E0618B"/>
<path d="M60.2574 69.1924C60.3225 69.2151 60.3915 69.2682 60.4034 69.3598C60.4419 69.417 60.4232 69.5126 60.3701 69.5816C60.3169 69.6506 60.2598 69.689 60.1721 69.7315C60.0805 69.7434 60.0194 69.7513 59.9198 69.7021C59.8853 69.6755 59.8548 69.6795 59.8508 69.6489C59.7779 69.5652 59.7541 69.382 59.8338 69.2785C59.9441 69.171 60.1274 69.1472 60.2574 69.1924Z" fill="#E0618B"/>
<path d="M67.4228 62.4241C67.5224 62.4733 67.5688 62.5915 67.5846 62.7137C67.5926 62.7747 67.6044 62.8664 67.5818 62.9314C67.5406 63.0921 67.3387 63.2114 67.1554 63.2352C66.9416 63.263 66.708 63.138 66.6497 62.9282C66.5331 62.5085 67.1162 62.2154 67.4228 62.4241Z" fill="#E0618B"/>
<path d="M44.6745 73.0781C44.7701 73.0968 44.8391 73.1499 44.8776 73.207C44.8815 73.2376 44.8855 73.2681 44.8895 73.2987C44.8934 73.3292 44.8629 73.3332 44.8363 73.3677C44.7792 73.4062 44.7221 73.4446 44.661 73.4525C44.5999 73.4605 44.5348 73.4379 44.4658 73.3847C44.381 73.2094 44.5178 73.0674 44.6745 73.0781Z" fill="#E0618B"/>
<path d="M38.6948 48.2945C38.7424 48.661 39.0529 48.9002 39.4194 48.8526C39.7859 48.8051 40.0251 48.4945 39.9776 48.128C39.93 47.7615 39.6195 47.5223 39.253 47.5698C38.8865 47.6174 38.6512 47.9585 38.6948 48.2945Z" fill="#E0618B"/>
<path d="M38.6068 46.6599C38.6306 46.8432 38.7991 46.9455 38.9518 46.9257C39.1351 46.9019 39.2374 46.7334 39.2176 46.5806C39.1938 46.3974 39.0253 46.295 38.8726 46.3149C38.6893 46.3386 38.583 46.4767 38.6068 46.6599Z" fill="#E0618B"/>
<path d="M35.7937 39.8199C35.8096 39.942 35.9131 40.0218 36.0353 40.0059C36.1574 39.9901 36.2372 39.8865 36.2213 39.7644C36.2055 39.6422 36.102 39.5625 35.9798 39.5783C35.8842 39.5597 35.7779 39.6977 35.7937 39.8199Z" fill="#E0618B"/>
<path d="M40.6125 45.8408C40.6283 45.9629 40.7318 46.0427 40.854 46.0268C40.9762 46.011 41.0559 45.9074 41.04 45.7853C41.0242 45.6631 40.9207 45.5834 40.7985 45.5992C40.6763 45.6151 40.5966 45.7186 40.6125 45.8408Z" fill="#E0618B"/>
<path d="M37.8731 45.7923C37.9953 45.7764 38.1174 45.7606 38.1864 45.8137C38.2555 45.8669 38.3018 45.9851 38.2832 46.0807C38.2645 46.1763 38.2154 46.2758 38.0971 46.3222C38.0095 46.3647 37.8873 46.3805 37.7917 46.3619C37.7612 46.3658 37.7267 46.3392 37.6922 46.3127C37.6232 46.2595 37.5502 46.1758 37.5383 46.0842C37.5796 45.9235 37.6938 45.8466 37.8731 45.7923Z" fill="#E0618B"/>
<path d="M39.4867 49.3718C39.6779 49.4091 39.8544 49.5725 39.8516 49.7903C39.8674 49.9125 39.8182 50.012 39.7385 50.1155C39.6893 50.2151 39.6056 50.2881 39.5219 50.361C39.4382 50.434 39.316 50.4499 39.2204 50.4312C39.0293 50.3939 38.8833 50.2265 38.8595 50.0432C38.8092 49.8945 38.8346 49.6117 38.9449 49.5042C39.0512 49.3662 39.3261 49.3305 39.4867 49.3718Z" fill="#E0618B"/>
<path d="M37.9514 47.8318C38.047 47.8505 38.116 47.9037 38.1545 47.9608C38.1584 47.9913 38.1624 48.0219 38.1664 48.0524C38.1703 48.0829 38.1398 48.0869 38.1132 48.1214C38.0561 48.1599 37.999 48.1984 37.9379 48.2063C37.8768 48.2142 37.8117 48.1916 37.7427 48.1384C37.6273 47.9671 37.7947 47.8211 37.9514 47.8318Z" fill="#E0618B"/>
<path d="M18.9138 18.8731C18.9138 18.8731 16.8643 20.0708 17.2305 22.4146C17.5968 24.7584 19.8263 24.4691 18.9138 18.8731Z" fill="#E0618B"/>
<path d="M17.7936 21.9688C18.1839 22.1045 18.6274 22.1712 19.0244 22.1197C19.055 22.1157 19.055 22.1157 19.0855 22.1117C19.1697 21.3244 19.1265 20.2741 18.9177 18.9037C18.9177 18.9037 17.329 19.8241 17.1924 21.6431C17.3649 21.776 17.5985 21.901 17.7936 21.9688Z" fill="#E0618B"/>
<path d="M18.9138 18.8731C18.9138 18.8731 17.3556 19.7896 17.1845 21.582C17.3067 21.5662 17.4328 21.5809 17.5629 21.6261C17.8231 21.7166 18.038 21.9371 18.1653 22.2001C18.2887 22.4326 18.2632 22.7154 18.2033 22.9716C18.1394 23.1973 17.9919 23.4959 17.8018 23.7069C18.553 24.2306 19.567 22.9499 18.9138 18.8731Z" fill="#E0618B"/>
<path d="M18.5096 19.8265C18.5096 19.8265 17.1441 18.6372 15.5436 19.466C13.9125 20.2988 14.6723 21.8462 18.5096 19.8265Z" fill="#E0618B"/>
<path d="M15.9881 19.7809C15.9667 20.0943 16.0408 20.4263 16.1721 20.7198C16.1721 20.7198 16.176 20.7503 16.2066 20.7464C16.7789 20.61 17.5532 20.3542 18.479 19.8304C18.479 19.8304 17.428 18.9108 16.0734 19.2419C16.0361 19.4331 15.9988 19.6242 15.9881 19.7809Z" fill="#E0618B"/>
<path d="M18.5098 19.8262C18.5098 19.8262 17.4893 18.9027 16.1347 19.2337C16.1771 19.3214 16.189 19.413 16.2049 19.5352C16.2021 19.753 16.1037 19.9521 15.9363 20.098C15.7994 20.24 15.5896 20.2983 15.4024 20.2915C15.2191 20.3153 14.9669 20.2859 14.7678 20.1875C14.5495 20.8991 15.7204 21.3062 18.5098 19.8262Z" fill="#E0618B"/>
<path d="M21.8789 20.6623C21.8789 20.6623 18.7089 39.5522 38.1013 35.8246C41.9179 35.0809 46.0246 33.461 48.0478 29.9065C49.5141 27.3249 49.5493 24.2458 48.963 21.4025C48.0326 16.8648 45.9431 12.0116 41.7263 9.67059C39.2137 8.25747 36.2595 7.98863 33.4547 8.63209C25.0591 10.4669 23.1175 15.1288 21.8789 20.6623Z" fill="#FBD0B5"/>
<path d="M23.8143 27.6786C26.312 27.5409 28.5286 22.8432 28.5286 22.8432C34.6722 23.0398 37.3928 15.0469 37.3928 15.0469C40.797 13.5182 41.3125 11.0289 41.1862 9.33719C38.8009 8.18706 36.0724 7.9821 33.4469 8.57124C25.0287 10.4711 23.083 15.1025 21.8445 20.636C21.8445 20.636 18.7079 39.3042 37.731 35.8419C23.5746 36.8403 23.8143 27.6786 23.8143 27.6786Z" fill="#FBD0B5"/>
<path d="M49.1997 22.9871L49.2608 22.9792C49.1894 22.4294 49.1221 21.9102 49.0242 21.395C48.0937 16.8572 46.0043 12.0041 41.7874 9.66301C41.5883 9.56462 41.3892 9.46623 41.1901 9.36784C41.1155 9.7502 41.0103 10.1365 40.9397 10.5494C38.9891 20.6474 49.1997 22.9871 49.1997 22.9871Z" fill="#FBD0B5"/>
<path d="M34.6597 31.7994C34.6292 31.8033 34.5947 31.7768 34.5947 31.7768C34.5907 31.7462 34.5867 31.7157 34.6133 31.6812L35.5086 31.1613C35.5391 31.1573 35.5697 31.1533 35.6042 31.1799C35.6082 31.2105 35.6121 31.241 35.5855 31.2755L34.6597 31.7994C34.6903 31.7954 34.6903 31.7954 34.6597 31.7994Z" fill="#D54B38"/>
<path d="M35.1434 31.4573C36.5423 32.4248 38.328 32.7832 39.6128 31.4363C39.9968 31.0449 40.3118 30.6003 40.5883 30.0985C40.6149 30.064 40.6454 30.0601 40.6494 30.0906C40.6839 30.1172 40.6839 30.1172 40.6573 30.1517C40.4459 30.676 40.1388 31.1817 39.7282 31.6077C38.9456 32.5167 37.6215 32.8438 36.5117 32.4288C35.9608 32.2518 35.4551 31.9448 35.0331 31.5648C35.0213 31.4731 35.105 31.4002 35.1434 31.4573Z" fill="#D54B38"/>
<g opacity="0.63">
<path opacity="0.7" d="M32.6218 31.4117C33.4364 32.424 32.7295 33.1989 31.5514 33.6934C29.4888 34.5512 27.7082 34.4717 27.2042 33.6985C26.7001 32.9254 26.8974 31.8129 28.5324 31.0106C30.1635 30.1778 31.6997 30.2891 32.6218 31.4117Z" fill="url(#paint0_radial_109_740)"/>
<path d="M27.9459 32.2358C28.0189 32.3195 28.2593 32.2573 28.5144 32.0689C28.7694 31.8805 28.8944 31.6469 28.8175 31.5327C28.7445 31.449 28.5041 31.5112 28.249 31.6996C27.994 31.888 27.869 32.1216 27.9459 32.2358Z" fill="white"/>
<path d="M27.6203 32.837C27.6853 32.8596 27.773 32.8171 27.8567 32.7442C27.9098 32.6752 27.9285 32.5796 27.8634 32.557C27.7984 32.5343 27.7107 32.5768 27.627 32.6497C27.5739 32.7188 27.5552 32.8143 27.6203 32.837Z" fill="white"/>
</g>
<g opacity="0.63">
<path opacity="0.7" d="M42.7389 28.4838C42.6039 29.8367 43.6633 30.103 44.9687 29.8715C47.274 29.4481 48.8123 28.3789 48.8116 27.4163C48.807 26.4231 47.9856 25.598 46.1186 25.8092C44.221 26.0244 42.9151 26.9702 42.7389 28.4838Z" fill="url(#paint1_radial_109_740)"/>
<path d="M47.3331 26.5522C47.3184 26.6783 47.0514 26.7751 46.7381 26.7536C46.4247 26.7322 46.1606 26.6112 46.1713 26.4545C46.186 26.3284 46.453 26.2316 46.7703 26.2836C47.0836 26.3051 47.3478 26.4261 47.3331 26.5522Z" fill="white"/>
<path d="M47.9384 26.9085C47.9158 26.9736 47.7936 26.9894 47.6635 26.9442C47.564 26.895 47.495 26.8419 47.5481 26.7728C47.5707 26.7078 47.6929 26.6919 47.823 26.7372C47.9225 26.7864 47.9916 26.8395 47.9384 26.9085Z" fill="white"/>
</g>
<path d="M25.2322 27.8363C25.7368 27.8951 26.39 27.9035 26.778 27.5426C26.9946 27.2971 27.3385 27.3145 27.58 27.5006C27.8945 27.7704 27.7826 28.3439 27.363 28.4605C26.9167 28.6115 26.4812 28.6059 26.0604 28.4742C25.7351 28.3611 25.4059 28.2175 25.1339 28.0354C25.0993 28.0088 25.0609 27.9517 25.114 27.8827C25.1406 27.8482 25.1672 27.8137 25.2322 27.8363Z" fill="#400E23"/>
<path d="M30.6413 30.4345C32.0767 29.9535 32.8504 28.3999 32.3694 26.9645C31.8883 25.5291 30.3347 24.7554 28.8993 25.2364C27.4639 25.7175 26.6902 27.271 27.1713 28.7065C27.6523 30.1419 29.2059 30.9155 30.6413 30.4345Z" fill="white"/>
<path d="M28.7915 28.4615C29.2543 29.3952 30.3601 29.7797 31.2939 29.3169C32.2276 28.8541 32.6121 27.7483 32.1493 26.8145C31.6865 25.8808 30.5807 25.4963 29.6469 25.9591C28.7132 26.4219 28.3287 27.5277 28.7915 28.4615Z" fill="#73461E"/>
<path d="M28.9196 28.0102C29.2975 28.7687 30.2081 29.0853 30.9971 28.7034C31.7555 28.3255 32.0722 27.4148 31.6903 26.6258C31.3124 25.8674 30.4017 25.5508 29.6127 25.9327C28.8583 26.3411 28.5722 27.2478 28.9196 28.0102Z" fill="#412A25"/>
<path d="M29.1626 27.7302C29.2475 27.9055 29.4386 27.9428 29.5874 27.8925C29.7627 27.8076 29.8 27.6164 29.7497 27.4677C29.6648 27.2924 29.4736 27.2551 29.3249 27.3054C29.1801 27.3863 29.1122 27.5815 29.1626 27.7302Z" fill="#73461E"/>
<path d="M29.6638 28.721C29.8256 29.0106 30.0672 29.1966 30.2119 29.1157C30.3873 29.0309 30.3782 28.7215 30.2469 28.4279C30.0851 28.1384 29.8436 27.9523 29.6988 28.0332C29.5235 28.1181 29.4981 28.4009 29.6638 28.721Z" fill="#73461E"/>
<path d="M29.1626 27.7302C29.2475 27.9055 29.4386 27.9428 29.5874 27.8925C29.7627 27.8076 29.8 27.6164 29.7497 27.4677C29.6648 27.2924 29.4736 27.2551 29.3249 27.3054C29.1801 27.3863 29.1122 27.5815 29.1626 27.7302Z" fill="#73461E"/>
<path d="M29.8207 26.3403C28.9441 26.7646 28.5783 27.7748 28.8765 28.6367C28.838 28.5796 28.7995 28.5225 28.7571 28.4348C28.2943 27.5011 28.6788 26.3953 29.6125 25.9325C30.5463 25.4697 31.6521 25.8542 32.1149 26.7879C32.1533 26.845 32.1652 26.9367 32.2037 26.9938C31.7302 26.2167 30.6973 25.916 29.8207 26.3403Z" fill="#73461E"/>
<path d="M29.1626 27.73C29.2475 27.9053 29.4386 27.9426 29.5874 27.8922C29.7627 27.8074 29.8 27.6162 29.7497 27.4674C29.6648 27.2921 29.4736 27.2548 29.3249 27.3052C29.1801 27.3861 29.1122 27.5812 29.1626 27.73Z" fill="white"/>
<path d="M28.5901 26.1894C29.9621 25.5145 31.5883 26.0798 32.2593 27.4214C32.3481 27.6272 32.4409 27.8636 32.4992 28.0735C32.558 27.569 32.464 27.0842 32.2134 26.5888C31.5384 25.2167 29.9162 24.6819 28.5442 25.3568C27.4045 25.9084 26.8221 27.1642 27.0723 28.374C27.1711 27.4605 27.7134 26.6137 28.5901 26.1894Z" fill="#E8D7C5"/>
<path d="M27.255 29.0644C25.999 26.805 28.2753 24.2425 30.6554 25.1138C31.3404 25.3665 31.9389 25.91 32.2173 26.6192C32.2212 26.6498 32.2212 26.6498 32.1907 26.6537C32.1601 26.6577 32.1601 26.6577 32.1562 26.6272C31.4665 25.3812 29.8483 24.8769 28.5944 25.5055C27.3366 26.1035 26.7407 27.7336 27.3121 29.0259C27.3466 29.0525 27.2895 29.091 27.255 29.0644Z" fill="#400E23"/>
<path d="M46.5387 23.3013C46.0908 23.9184 45.4172 24.4717 44.6112 24.4831C43.8703 24.5171 43.7887 23.4097 44.5257 23.3451C44.77 23.3134 44.8854 23.4848 45.1337 23.4836C45.5692 23.4892 46.0155 23.3381 46.3927 23.1339C46.5109 23.0875 46.6184 23.1978 46.5387 23.3013Z" fill="#400E23"/>
<path d="M39.4196 24.4423C39.2739 25.9519 40.3804 27.2991 41.8595 27.4488C43.3691 27.5945 44.7162 26.488 44.8659 25.0089C45.0116 23.4993 43.9051 22.1522 42.4261 22.0025C40.9164 21.8567 39.5654 22.9327 39.4196 24.4423Z" fill="white"/>
<path d="M43.626 25.5193C44.0558 24.5749 43.6387 23.461 42.6943 23.0312C41.7499 22.6014 40.636 23.0186 40.2062 23.9629C39.7764 24.9073 40.1935 26.0213 41.1379 26.451C42.0823 26.8808 43.1962 26.4637 43.626 25.5193Z" fill="#73461E"/>
<path d="M40.3579 24.9729C40.6481 25.7738 41.5401 26.186 42.337 25.8652C43.1379 25.5749 43.5501 24.6829 43.2293 23.886C42.939 23.0851 42.047 22.6729 41.2501 22.9937C40.4493 23.284 40.0676 24.172 40.3579 24.9729Z" fill="#412A25"/>
<path d="M40.6355 24.7194C40.6899 24.8987 40.885 24.9665 41.0643 24.9122C41.2436 24.8579 41.3114 24.6627 41.2571 24.4834C41.2028 24.3041 41.0077 24.2363 40.8284 24.2906C40.6491 24.3449 40.5507 24.544 40.6355 24.7194Z" fill="#73461E"/>
<path d="M41.0146 25.7261C41.1193 26.0541 41.3608 26.2402 41.5401 26.1858C41.7194 26.1315 41.7409 25.8182 41.6362 25.4901C41.5315 25.1621 41.29 24.976 41.1107 25.0304C40.9354 25.1152 40.8794 25.402 41.0146 25.7261Z" fill="#73461E"/>
<path d="M40.6355 24.7194C40.6899 24.8987 40.885 24.9665 41.0643 24.9122C41.2436 24.8579 41.3114 24.6627 41.2571 24.4834C41.2028 24.3041 41.0077 24.2363 40.8284 24.2906C40.6491 24.3449 40.5507 24.544 40.6355 24.7194Z" fill="#73461E"/>
<path d="M41.3934 23.3788C40.5049 23.7115 40.0089 24.6765 40.2195 25.5809C40.181 25.5238 40.1731 25.4627 40.1306 25.375C39.7555 24.3988 40.2701 23.3382 41.2157 22.9671C42.1919 22.592 43.2525 23.1065 43.6236 24.0522C43.6621 24.1093 43.674 24.2009 43.6819 24.262C43.2961 23.4425 42.3124 23.0422 41.3934 23.3788Z" fill="#73461E"/>
<path d="M40.6355 24.7194C40.6899 24.8987 40.885 24.9665 41.0643 24.9122C41.2436 24.8579 41.3114 24.6627 41.2571 24.4834C41.2028 24.3041 41.0077 24.2363 40.8284 24.2906C40.6491 24.3449 40.5507 24.544 40.6355 24.7194Z" fill="white"/>
<path d="M42.6817 22.7768C41.1721 22.6311 39.8249 23.7376 39.6753 25.2166C39.6459 25.4689 39.6736 25.6827 39.7014 25.8965C39.4892 25.4582 39.3913 24.9429 39.4461 24.4079C39.5918 22.8982 40.9389 21.7917 42.4525 21.968C43.7099 22.0844 44.7077 23.0729 44.8928 24.2601C44.4499 23.479 43.6562 22.8677 42.6817 22.7768Z" fill="#E8D7C5"/>
<path d="M44.8352 25.0129C44.9085 22.7052 42.3348 21.3 40.5001 22.7182C39.9634 23.1295 39.5806 23.7692 39.454 24.4689C39.458 24.4995 39.4274 24.5034 39.4274 24.5034C39.3969 24.5074 39.3929 24.4768 39.3929 24.4768C39.4064 24.1024 39.485 23.7506 39.6592 23.4174C39.977 22.7551 40.5894 22.2097 41.3371 21.9885C42.8246 21.4849 44.5289 22.4128 44.8837 23.9507C44.9618 24.3132 44.9789 24.6837 44.9308 25.0315C44.9003 25.0355 44.8392 25.0434 44.8352 25.0129Z" fill="#400E23"/>
<path d="M39.2311 20.119C39.2311 20.119 41.1511 18.1617 43.614 20.3888C43.614 20.3888 43.1822 18.7367 41.2066 18.5893C39.5403 18.4329 38.7322 19.6247 39.2311 20.119Z" fill="#412A25"/>
<path d="M30.0754 22.7978C30.0754 22.7978 27.4401 22.1149 26.4541 25.2864C26.4541 25.2864 25.9652 23.6728 27.5833 22.5001C28.9463 21.5157 30.267 22.1207 30.0754 22.7978Z" fill="#412A25"/>
<path d="M48.4873 11.9923C48.4873 11.9923 50.7747 12.6271 51.0187 14.9868C51.2628 17.3465 49.0332 17.6358 48.4873 11.9923Z" fill="#E0618B"/>
<path d="M50.3602 14.6994C50.0175 14.9303 49.6058 15.1079 49.2087 15.1594C49.1782 15.1634 49.1782 15.1634 49.1477 15.1674C48.8653 14.4276 48.6389 13.401 48.4911 12.0227C48.4911 12.0227 50.2621 12.5072 50.8585 14.2311C50.7256 14.4036 50.5316 14.584 50.3602 14.6994Z" fill="#E0618B"/>
<path d="M48.4874 11.9922C48.4874 11.9922 50.2279 12.4807 50.8508 14.1701C50.7287 14.1859 50.6105 14.2323 50.4962 14.3093C50.2677 14.4631 50.1162 14.7313 50.0602 15.018C50.0003 15.2743 50.0971 15.5412 50.2204 15.7737C50.3398 15.9756 50.5587 16.2267 50.7962 16.3822C50.2036 17.0802 48.8963 16.1007 48.4874 11.9922Z" fill="#E0618B"/>
<path d="M49.1216 12.8107C49.1216 12.8107 50.1384 11.3123 51.8975 11.7051C53.6871 12.094 53.3474 13.7841 49.1216 12.8107Z" fill="#E0618B"/>
<path d="M51.5479 12.123C51.6486 12.4205 51.6617 12.7604 51.6097 13.0777C51.6097 13.0777 51.6136 13.1083 51.5831 13.1122C50.9949 13.1265 50.1809 13.0768 49.1521 12.8066C49.1521 12.8066 49.9336 11.6492 51.3278 11.6236C51.4127 11.7989 51.4975 11.9743 51.5479 12.123Z" fill="#E0618B"/>
<path d="M49.1216 12.8105C49.1216 12.8105 49.8725 11.6571 51.2667 11.6315C51.2481 11.7271 51.26 11.8187 51.2758 11.9409C51.3341 12.1507 51.4801 12.3181 51.6792 12.4165C51.8477 12.5188 52.0655 12.5216 52.2448 12.4673C52.428 12.4435 52.6644 12.3507 52.8318 12.2048C53.2205 12.8065 52.1963 13.5295 49.1216 12.8105Z" fill="#E0618B"/>
<path d="M16.5784 10.4497C16.5784 10.4497 15.985 14.2534 20.1516 16.4457L20.6454 16.6612C19.1661 14.8344 17.0288 12.0061 17.6889 11.8273C18.3489 11.6485 20.6454 16.6612 20.6454 16.6612C20.6454 16.6612 20.586 12.1346 16.5784 10.4497Z" fill="#E0618B"/>
<g opacity="0.65">
<path d="M18.249 13.9908C17.8972 13.9122 17.5414 13.8031 17.2083 13.6289C17.7055 14.5892 18.6157 15.6202 20.1475 16.4153L20.6413 16.6307C20.0111 15.8429 19.2655 14.8837 18.6579 14.0309C18.5052 14.0507 18.3791 14.036 18.249 13.9908Z" fill="#E0618B"/>
<path d="M19.3458 14.0657C20.0394 15.3422 20.6493 16.6917 20.6493 16.6917C20.6493 16.6917 20.6356 15.3891 20.0098 13.9174C19.7694 13.9797 19.5596 14.038 19.3458 14.0657Z" fill="#E0618B"/>
</g>
<path d="M12.3126 13.9535C12.3126 13.9535 14.4489 18.2105 20.2134 17.4003L20.8774 17.2521C18.0736 16.4668 13.8999 15.1761 14.4394 14.5471C14.9749 13.8875 20.8774 17.2521 20.8774 17.2521C20.8774 17.2521 17.533 12.7791 12.3126 13.9535Z" fill="#E0618B"/>
<g opacity="0.6">
<path d="M19.242 16.3774C20.1765 16.8773 20.8813 17.2827 20.8813 17.2827C20.8813 17.2827 20.3546 16.5747 19.3805 15.7694C19.3127 15.9645 19.2448 16.1597 19.242 16.3774Z" fill="#E0618B"/>
<path d="M18.7812 16.6547C18.4107 16.6717 18.0522 16.7803 17.7321 16.9461C17.5302 17.0655 17.2977 17.1888 17.0958 17.3082C17.9906 17.5026 19.0223 17.5551 20.24 17.366L20.904 17.2177C20.2349 17.0872 19.4928 16.8729 18.7812 16.6547Z" fill="#E0618B"/>
</g>
<path d="M48.0661 2.76108C48.0661 2.76108 49.6106 6.28742 46.1416 9.47053L45.7192 9.80486C46.6832 7.66109 48.0278 4.38098 47.344 4.37654C46.6602 4.37211 45.7192 9.80486 45.7192 9.80486C45.7192 9.80486 44.6213 5.41308 48.0661 2.76108Z" fill="#E0618B"/>
<g opacity="0.65">
<path d="M47.3543 6.61138C47.6744 6.44561 47.9906 6.24931 48.2683 5.99588C48.0326 7.05133 47.4156 8.28047 46.1375 9.44013L45.7151 9.77445C46.1233 8.8519 46.5994 7.7342 46.9692 6.75453C47.1219 6.73471 47.2401 6.68832 47.3543 6.61138Z" fill="#E0618B"/>
<path d="M46.313 6.96384C45.9682 8.37507 45.7229 9.83549 45.7229 9.83549C45.7229 9.83549 45.4037 8.57253 45.6332 6.98994C45.8815 6.98878 46.0992 6.99158 46.313 6.96384Z" fill="#E0618B"/>
</g>
<path d="M53.0847 5.06011C53.0847 5.06011 52.1057 9.72139 46.3253 10.4094L45.6454 10.4355C48.1559 8.9606 51.862 6.64736 51.1799 6.17687C50.4937 5.67583 45.6454 10.4355 45.6454 10.4355C45.6454 10.4355 47.7375 5.25708 53.0847 5.06011Z" fill="#E0618B"/>
<g opacity="0.6">
<path d="M47.0033 9.17224C46.2273 9.89405 45.6494 10.4659 45.6494 10.4659C45.6494 10.4659 45.9779 9.64691 46.7142 8.61968C46.8296 8.79104 46.9489 8.99295 47.0033 9.17224Z" fill="#E0618B"/>
<path d="M47.5197 9.32263C47.8823 9.24452 48.2567 9.25805 48.6085 9.33662C48.8342 9.40051 49.0904 9.46043 49.3161 9.52431C48.5006 9.9407 47.5164 10.2547 46.2908 10.3827L45.6109 10.4088C46.2246 10.1118 46.8914 9.74578 47.5197 9.32263Z" fill="#E0618B"/>
</g>
<path d="M24.0726 30.6264C23.684 30.0246 23.2116 29.4958 22.6103 29.1701C21.8099 28.746 20.9627 28.9181 20.2586 29.4753C19.5279 30.067 19.1462 30.9551 19.4484 31.8475C19.7585 32.8011 20.56 33.4735 21.5278 33.7517C22.0097 33.8755 22.5142 33.9342 23.0069 33.9014C23.4995 33.8685 24.0532 33.8277 24.5181 33.581C24.6629 33.5001 24.8343 33.3847 24.9406 33.2467C25.3659 32.6946 24.9003 31.9786 24.6151 31.4566C24.4228 31.171 24.265 30.912 24.0726 30.6264Z" fill="#FBD0B5"/>
<path d="M22.0452 32.4733C22.0452 32.4733 24.0249 32.6512 24.4089 32.2598C24.4089 32.2598 23.8768 29.5958 21.7361 30.091C19.5914 30.5557 20.647 32.4684 22.0452 32.4733Z" fill="#FBD0B5"/>
<path d="M24.4089 32.2597C24.4089 32.2597 23.8769 29.5958 21.7361 30.091C21.614 30.1068 21.4957 30.1532 21.4081 30.1957C21.1616 31.4078 23.2075 31.8566 23.2075 31.8566C22.9722 32.1977 22.0294 32.3511 21.5102 32.4185C21.6748 32.4903 21.866 32.5276 22.0532 32.5343C22.0453 32.4733 24.0249 32.6512 24.4089 32.2597Z" fill="#FBD0B5"/>
<path d="M48.835 24.2454C49.0346 23.6295 49.3297 23.0322 49.8014 22.5983C50.4099 22.0224 51.2119 21.9804 51.9699 22.3169C52.7584 22.6494 53.285 23.3574 53.2433 24.2324C53.2095 25.1685 52.6248 25.9276 51.8477 26.4011C51.4744 26.6359 51.0282 26.787 50.574 26.877C50.1198 26.967 49.6351 27.0609 49.1572 26.9677C48.9965 26.9264 48.8319 26.8546 48.7245 26.7443C48.2374 26.3416 48.4517 25.5995 48.5715 25.0871C48.662 24.8269 48.7485 24.5362 48.835 24.2454Z" fill="#FBD0B5"/>
<path d="M51.0676 25.4154C51.0676 25.4154 49.3437 26.0118 48.9376 25.7539C48.9376 25.7539 48.7692 23.2602 50.7822 23.2164C52.7912 23.142 52.296 25.0697 51.0676 25.4154Z" fill="#FBD0B5"/>
<path d="M48.907 25.7578C48.907 25.7578 48.7387 23.2641 50.7517 23.2203C50.8739 23.2044 50.9695 23.2231 51.0651 23.2417C51.5703 24.2632 49.8821 25.1344 49.8821 25.1344C50.166 25.4081 51.0212 25.2972 51.5099 25.2337C51.3691 25.3452 51.2203 25.3955 51.041 25.4499C51.0676 25.4154 49.3437 26.0117 48.907 25.7578Z" fill="#FBD0B5"/>
<path d="M40.6838 9.77507C40.6838 9.77507 41.3748 12.9463 37.866 14.147C37.866 14.147 36.7865 12.051 37.3547 10.2071C37.3547 10.2071 36.9629 20.3512 29.1476 22.1107C29.1476 22.1107 27.8884 20.7834 27.7688 18.9045C27.7688 18.9045 27.7611 24.5888 23.9582 26.6351C23.9582 26.6351 22.3255 23.8655 22.9276 21.0855C22.9276 21.0855 23.5299 29.7963 22.6176 29.9458C22.6176 29.9458 20.5102 30.2192 19.6996 25.169C18.889 20.1189 18.6131 7.70106 32.9949 5.08948C32.9949 5.08948 45.7988 3.24167 49.0441 15.0878C49.0441 15.0878 49.8053 18.5605 52.4517 18.3724C52.4517 18.3724 49.3768 20.0447 47.6135 17.9443C47.6135 17.9443 51.0867 20.5372 50.1792 23.3568C50.1792 23.3568 43.3742 21.4137 42.2582 16.4032C41.2338 11.3807 40.6838 9.77507 40.6838 9.77507Z" fill="#FCD260"/>
<path d="M19.73 25.165C20.5406 30.2151 22.648 29.9417 22.648 29.9417C23.1367 29.8783 23.1901 27.4179 23.1372 25.0955C22.6581 24.7539 22.3385 24.2054 22.3385 24.2054C21.0932 29.926 20.0054 24.4149 19.4251 20.4218C19.388 22.29 19.541 23.9472 19.73 25.165Z" fill="#FCD260"/>
<path d="M29.768 21.6264C28.7962 21.3177 28.0383 16.9129 28.0383 16.9129C27.6471 18.2059 27.9182 19.8167 27.9182 19.8167C28.2572 21.2324 29.1516 22.1412 29.1516 22.1412C33.0439 21.2634 35.0854 18.3277 36.1574 15.5798C33.7112 20.183 29.768 21.6264 29.768 21.6264Z" fill="#FCD260"/>
<path d="M27.7272 19.7795C27.5026 19.9639 26.975 20.6845 25.8939 23.123C24.9072 25.3318 23.9989 25.5118 23.3405 25.2246C23.6387 26.0865 23.9928 26.6617 23.9928 26.6617C26.8659 25.1087 27.5707 21.4458 27.7272 19.7795Z" fill="#FCD260"/>
<path d="M50.2403 23.3487C50.5304 22.4726 50.3543 21.5948 50.0375 20.8284C49.8328 21.1655 49.0228 21.1464 46.8949 20.3045C43.4927 18.9758 41.5156 12.8347 41.5156 12.8347C41.7301 13.7696 42.0029 14.9144 42.3193 16.3951C43.4353 21.4056 50.2403 23.3487 50.2403 23.3487Z" fill="#FCD260"/>
<path d="M52.0745 18.5766C48.0655 19.0347 46.2643 16.1628 45.9871 15.7019C46.8464 17.2985 47.9014 18.2486 48.8703 18.775C50.0491 19.2432 51.3958 18.851 52.0745 18.5766Z" fill="#FCD260"/>
<path d="M52.3375 18.4493C52.4557 18.4029 52.5129 18.3644 52.5129 18.3644C49.8359 18.5565 49.1052 15.0799 49.1052 15.0799C48.4058 12.5619 47.2891 10.6571 45.9224 9.21948C47.6518 12.256 48.4617 16.3435 49.8046 17.5978C50.7216 18.4416 51.639 18.571 52.3375 18.4493Z" fill="#FCD260"/>
<path d="M37.8622 14.1163C37.8661 14.1468 37.8661 14.1468 37.8661 14.1468C40.9593 13.0933 40.7791 10.5079 40.6998 9.89709C40.4469 8.90505 40.1391 8.44809 40.1391 8.44809C39.8369 11.624 38.573 13.3719 37.8622 14.1163Z" fill="#FCD260"/>
<path d="M45.1395 8.45144C40.1605 4.06639 33.0256 5.08541 33.0256 5.08541C26.5331 6.26951 23.0336 9.45658 21.2055 13.079C24.0189 9.39084 32.0839 1.41872 45.1395 8.45144Z" fill="#FCD260"/>
<path d="M30.6184 10.7083C38.9438 8.57207 45.2136 8.78335 48.5088 13.3558C47.7665 11.4645 46.7358 9.98336 45.5614 8.83138C45.4964 8.80876 45.4658 8.81273 45.4008 8.79011C40.5392 7.4644 35.6558 7.1664 30.8891 8.96509C27.9605 10.0905 24.9201 11.7894 22.6613 14.008C21.916 14.7258 21.2475 15.5579 20.6747 16.4086C20.3597 16.8533 20.0753 17.2939 19.8214 17.7306C19.7987 17.7956 19.7456 17.8646 19.723 17.9297C19.511 19.1684 19.4518 20.3873 19.4723 21.5026C20.0948 19.838 23.3156 12.5876 30.6184 10.7083Z" fill="#E0618B"/>
<path opacity="0.65" d="M22.6653 14.0385C21.9199 14.7564 21.2515 15.5884 20.6786 16.4392C20.3636 16.8838 20.0792 17.3244 19.8253 17.7611C19.8027 17.8262 19.7495 17.8952 19.7269 17.9602C19.515 19.1989 19.4557 20.4178 19.4762 21.5332C20.1253 19.834 23.35 12.6142 30.6794 10.7004C32.6024 10.2024 34.4191 9.84244 36.1295 9.6205C33.4236 9.35049 32.768 8.84549 32.8347 8.40205C32.2052 8.57691 31.5796 8.7823 30.9581 9.01824C27.9645 10.121 24.924 11.8199 22.6653 14.0385Z" fill="#E0618B"/>
<path opacity="0.5" d="M45.4049 8.82075C42.7351 8.11126 40.0705 7.68062 37.4082 7.74658C40.523 8.05669 45.5282 9.0532 48.0688 12.3571C47.3898 10.9545 46.5249 9.79344 45.5655 8.86202C45.5004 8.8394 45.4659 8.81282 45.4049 8.82075Z" fill="#E0618B"/>
<path d="M21.6708 16.1863C21.8433 16.3192 21.9932 16.5171 22.0515 16.7269C22.0713 16.8797 22.0645 17.0669 22.0233 17.2275C21.9407 17.5488 21.7626 17.8514 21.546 18.0969C21.4663 18.2004 21.3826 18.2734 21.2644 18.3198C21.1462 18.3662 21.024 18.382 20.9018 18.3979C20.4052 18.4002 19.9872 18.0507 19.714 17.6203C19.637 17.5061 19.5561 17.3613 19.5363 17.2086C19.5125 17.0254 19.5764 16.7997 19.6482 16.6351C19.7426 16.4054 19.9021 16.1984 20.1306 16.0445C20.557 15.7407 21.2567 15.8673 21.6708 16.1863Z" fill="#FBC4D3"/>
<path d="M20.6133 17.1312C20.3027 16.892 19.9509 16.8134 19.5765 16.7999C19.5313 16.93 19.5205 17.0866 19.5364 17.2088C19.5562 17.3615 19.6331 17.4758 19.714 17.6206C19.9873 18.0509 20.4053 18.4004 20.9019 18.3981C21.028 18.4128 21.1462 18.3664 21.2645 18.32C21.295 18.316 21.3216 18.2815 21.3521 18.2776C21.3057 18.1594 21.2593 18.0412 21.209 17.8924C21.0511 17.6334 20.8893 17.3438 20.6133 17.1312Z" fill="#FBC4D3"/>
<path opacity="0.45" d="M20.6133 17.1312C20.3027 16.892 19.9509 16.8134 19.5765 16.7999C19.5313 16.93 19.5205 17.0866 19.5364 17.2088C19.5562 17.3615 19.6331 17.4758 19.714 17.6206C19.9873 18.0509 20.4053 18.4004 20.9019 18.3981C21.028 18.4128 21.1462 18.3664 21.2645 18.32C21.295 18.316 21.3216 18.2815 21.3521 18.2776C21.3057 18.1594 21.2593 18.0412 21.209 17.8924C21.0511 17.6334 20.8893 17.3438 20.6133 17.1312Z" fill="#FBC4D3"/>
<path d="M19.077 17.0198C19.5086 16.9949 19.956 17.0921 20.301 17.3579C20.5426 17.544 20.7349 17.8296 20.8662 18.1231C21.1287 18.7102 21.273 19.3436 21.2606 19.9663C21.2618 20.2146 21.2285 20.4364 21.134 20.666C21.0396 20.8957 20.8762 21.0721 20.7088 21.2181C19.9781 21.8098 18.8972 21.8569 17.9945 21.6014C17.7343 21.5109 17.4436 21.4244 17.2326 21.2344C16.9526 20.9912 16.7828 20.6406 16.6702 20.2514C16.5457 19.7707 16.4823 19.282 16.6061 18.8001C16.8724 17.7407 18.0612 17.0895 19.077 17.0198Z" fill="#FBC4D3"/>
<path d="M20.9006 18.1497C20.7693 17.8562 20.577 17.5706 20.3354 17.3845C20.1974 17.2782 20.0328 17.2064 19.8377 17.1385C20.0487 17.3285 20.172 17.561 20.2993 17.824C20.5618 18.411 20.7061 19.0445 20.6938 19.6672C20.6949 19.9155 20.6616 20.1373 20.5672 20.3669C20.4727 20.5966 20.3093 20.773 20.1419 20.919C19.4152 21.5413 18.3304 21.5578 17.4276 21.3023C17.3626 21.2796 17.2975 21.257 17.2325 21.2344L17.267 21.261C17.478 21.451 17.7382 21.5415 18.0289 21.628C18.9316 21.8835 20.0165 21.867 20.7432 21.2447C20.9411 21.0948 21.074 20.9223 21.1685 20.6926C21.2629 20.463 21.2962 20.2412 21.2951 19.9929C21.2729 19.3436 21.1591 18.7062 20.9006 18.1497Z" fill="#FBC4D3"/>
<path d="M21.6709 16.1864C21.3603 15.9471 20.8745 15.7928 20.4814 15.8749C20.7642 15.9003 21.0589 16.0173 21.2699 16.2073C21.4424 16.3402 21.5923 16.5382 21.6506 16.748C21.6704 16.9007 21.6637 17.0879 21.6224 17.2486C21.5399 17.5698 21.3617 17.8725 21.1451 18.118C21.0654 18.2215 20.9817 18.2945 20.8635 18.3409C20.8329 18.3448 20.7758 18.3833 20.7453 18.3872C20.8103 18.4099 20.8409 18.4059 20.902 18.398C21.0281 18.4127 21.1463 18.3663 21.2645 18.3199C21.3827 18.2735 21.4624 18.17 21.5461 18.097C21.7627 17.8515 21.9409 17.5489 22.0234 17.2276C22.0647 17.067 22.1059 16.9063 22.0516 16.727C21.9933 16.5172 21.8474 16.3498 21.6709 16.1864Z" fill="#FBC4D3"/>
<path opacity="0.5" d="M19.84 17.6351C20.0601 18.1345 19.6467 18.7782 18.9109 19.0911C18.1751 19.404 17.4104 19.2548 17.1943 18.7859C16.9742 18.2865 17.3876 17.6428 18.1234 17.3299C18.8592 17.0171 19.6239 17.1663 19.84 17.6351Z" fill="#FBC4D3"/>
<path d="M45.2886 10.0781C45.1557 10.2506 45.0613 10.4802 45.0585 10.698C45.0783 10.8507 45.1327 11.03 45.2136 11.1748C45.3754 11.4644 45.6248 11.7115 45.8969 11.8936C46.0004 11.9733 46.1 12.0225 46.2261 12.0372C46.3522 12.0519 46.4744 12.036 46.5966 12.0202C47.0773 11.8957 47.3923 11.4511 47.5466 10.9652C47.5919 10.8351 47.6331 10.6745 47.6133 10.5218C47.5895 10.3385 47.4702 10.1366 47.3587 9.99579C47.2088 9.79785 47.0018 9.63838 46.7416 9.54791C46.2478 9.33248 45.6076 9.66401 45.2886 10.0781Z" fill="#FBC4D3"/>
<path d="M46.5521 10.7215C46.7913 10.4109 47.1114 10.2451 47.47 10.1365C47.5469 10.2507 47.5973 10.3995 47.6132 10.5217C47.633 10.6744 47.5877 10.8045 47.5465 10.9651C47.3921 11.451 47.0771 11.8956 46.5964 12.0201C46.4782 12.0665 46.3521 12.0518 46.2259 12.0371C46.1954 12.0411 46.1609 12.0145 46.1303 12.0184C46.145 11.8923 46.1597 11.7662 46.1704 11.6095C46.253 11.2882 46.3661 10.963 46.5521 10.7215Z" fill="#FBC4D3"/>
<path opacity="0.45" d="M46.5521 10.7215C46.7913 10.4109 47.1114 10.2451 47.47 10.1365C47.5469 10.2507 47.5973 10.3995 47.6132 10.5217C47.633 10.6744 47.5877 10.8045 47.5465 10.9651C47.3921 11.451 47.0771 11.8956 46.5964 12.0201C46.4782 12.0665 46.3521 12.0518 46.2259 12.0371C46.1954 12.0411 46.1609 12.0145 46.1303 12.0184C46.145 11.8923 46.1597 11.7662 46.1704 11.6095C46.253 11.2882 46.3661 10.963 46.5521 10.7215Z" fill="#FBC4D3"/>
<path d="M48.009 10.2218C47.5854 10.3079 47.1776 10.516 46.9119 10.8611C46.7258 11.1026 46.6127 11.4279 46.5607 11.7452C46.4567 12.3798 46.4789 13.0291 46.6498 13.6281C46.712 13.8684 46.8008 14.0743 46.9508 14.2723C47.1007 14.4702 47.3037 14.5991 47.5028 14.6975C48.3643 15.1137 49.4174 14.8528 50.2251 14.3753C50.4535 14.2215 50.7126 14.0636 50.8681 13.826C51.0767 13.5195 51.1514 13.1371 51.1609 12.7321C51.1586 12.2355 51.0952 11.7469 50.8525 11.3125C50.3512 10.3216 49.0356 9.99545 48.009 10.2218Z" fill="#FBC4D3"/>
<path d="M46.5607 11.7454C46.6127 11.4281 46.7258 11.1029 46.9118 10.8613C47.0181 10.7233 47.1589 10.6119 47.3303 10.4964C47.1748 10.734 47.1149 10.9903 47.0589 11.277C46.9549 11.9116 46.9771 12.561 47.148 13.1599C47.2102 13.4003 47.299 13.6061 47.449 13.8041C47.5989 14.002 47.8019 14.131 48.001 14.2294C48.8585 14.615 49.9156 14.3846 50.7233 13.9072C50.7804 13.8687 50.8375 13.8302 50.8946 13.7918L50.868 13.8263C50.7125 14.0638 50.484 14.2177 50.225 14.3756C49.4174 14.853 48.3643 15.1139 47.5028 14.6977C47.2732 14.6033 47.1006 14.4704 46.9507 14.2725C46.8008 14.0745 46.712 13.8687 46.6497 13.6283C46.4788 13.0293 46.4567 12.38 46.5607 11.7454Z" fill="#FBC4D3"/>
<path d="M45.2884 10.0781C45.5276 9.76752 45.958 9.49428 46.359 9.4733C46.0921 9.57005 45.837 9.75843 45.6815 9.99601C45.5486 10.1685 45.4542 10.3982 45.4514 10.6159C45.4712 10.7686 45.5255 10.9479 45.6064 11.0927C45.7682 11.3823 46.0177 11.6294 46.2898 11.8115C46.3933 11.8913 46.4928 11.9404 46.619 11.9551C46.6495 11.9512 46.7145 11.9738 46.7451 11.9698C46.688 12.0083 46.6574 12.0123 46.5963 12.0202C46.4781 12.0666 46.352 12.0519 46.2259 12.0372C46.0997 12.0225 45.9962 11.9428 45.8967 11.8936C45.6246 11.7115 45.3751 11.4644 45.2133 11.1748C45.1324 11.03 45.0515 10.8852 45.0583 10.698C45.0611 10.4802 45.1555 10.2506 45.2884 10.0781Z" fill="#FBC4D3"/>
<path opacity="0.5" d="M47.4587 11.0077C47.3734 11.5467 47.9374 12.0636 48.7287 12.1783C49.52 12.293 50.2213 11.9536 50.3106 11.4451C50.3959 10.9061 49.8319 10.3892 49.0406 10.2745C48.2188 10.1637 47.5135 10.4726 47.4587 11.0077Z" fill="#FBC4D3"/>
<path d="M38.649 28.7972C38.7775 29.3085 38.3828 29.8566 37.7533 30.0315C37.1198 30.1758 36.5225 29.8806 36.394 29.3694C36.2656 28.8581 36.7146 28.4892 37.3481 28.3449C37.9776 28.1701 38.5206 28.2859 38.649 28.7972Z" fill="#FBD0B5"/>
<path d="M38.5946 28.6178C38.7231 29.1291 38.3284 29.6772 37.6989 29.8521C37.0654 29.9964 36.4681 29.7012 36.3396 29.1899C36.2112 28.6786 36.6602 28.3098 37.2937 28.1655C37.9232 27.9906 38.4622 28.076 38.5946 28.6178Z" fill="#FBD0B5"/>
<path opacity="0.65" d="M37.609 29.3979C38.1509 29.2654 38.4924 28.7863 38.3719 28.3361C38.364 28.275 38.3295 28.2485 38.3215 28.1874C38.084 28.0319 37.7095 28.0183 37.2859 28.1044C36.8928 28.1864 36.5461 28.3867 36.3946 28.6548C36.4025 28.7159 36.4065 28.7464 36.4144 28.8075C36.5389 29.2883 37.0672 29.5303 37.609 29.3979Z" fill="#FBD0B5"/>
</g>
<defs>
<radialGradient id="paint0_radial_109_740" cx="0" cy="0" r="1" gradientUnits="userSpaceOnUse" gradientTransform="translate(29.3036 31.2436) rotate(160.134) scale(4.23482 3.45965)">
<stop offset="0.1184" stop-color="#FA9699"/>
<stop offset="1" stop-color="white"/>
</radialGradient>
<radialGradient id="paint1_radial_109_740" cx="0" cy="0" r="1" gradientUnits="userSpaceOnUse" gradientTransform="translate(45.57 26.4642) rotate(-13.0123) scale(4.44041 3.62717)">
<stop offset="0.1184" stop-color="#FA9699"/>
<stop offset="1" stop-color="white"/>
</radialGradient>
<clipPath id="clip0_109_740">
<rect width="67.4172" height="98.4002" fill="white" transform="translate(0.175781 8.97534) rotate(-7.39355)"/>
</clipPath>
</defs>
</svg>
