<svg width="37" height="37" viewBox="0 0 37 37" fill="none" xmlns="http://www.w3.org/2000/svg">
<g clip-path="url(#clip0_288_217)">
<path d="M36.3117 23.172L23.912 26.7869C23.7334 26.839 23.6478 27.042 23.7351 27.2063L25.0362 29.6523C25.1163 29.8029 25.0667 29.9899 24.9224 30.0809L15.7535 35.8699C15.6136 35.9583 15.7047 36.1746 15.8657 36.1362L32.4234 32.1886C32.6204 32.1416 32.7116 31.9139 32.6016 31.7439L30.753 28.8878C30.6658 28.753 30.6897 28.5748 30.8093 28.4678L36.4502 23.4218C36.5665 23.3177 36.4614 23.1283 36.3117 23.172Z" fill="#4354E7"/>
<path d="M36.4505 23.4217C36.5668 23.3177 36.4616 23.1283 36.3119 23.172L33.7081 23.931L28.6366 28.4677C28.517 28.5748 28.4931 28.753 28.5802 28.8877L30.4288 31.7438C30.5389 31.9138 30.4476 32.1416 30.2506 32.1885L16.3265 35.5082L15.7538 35.8698C15.6138 35.9582 15.7049 36.1745 15.8659 36.1361L32.4236 32.1885C32.6206 32.1416 32.7119 31.9138 32.6018 31.7438L30.7533 28.8877C30.6661 28.7529 30.6899 28.5748 30.8096 28.4677L36.4505 23.4217Z" fill="#2C3581"/>
<path d="M28.6702 0.140625H15.1718C14.891 0.140625 14.6456 0.33082 14.5751 0.603141L10.5885 15.991C10.4873 16.3815 10.7079 16.7831 11.0911 16.9066L17.2282 18.8826C17.432 18.9483 17.5471 19.1642 17.4882 19.3704L12.8171 35.7268C12.7215 36.0616 13.1493 36.2903 13.3736 36.0243L30.8318 15.3234C31.1442 14.953 30.9739 14.3831 30.5097 14.2457L23.1124 12.0556C22.763 11.9522 22.6091 11.5429 22.8035 11.2342L29.1916 1.08795C29.4507 0.676617 29.1556 0.140625 28.6702 0.140625Z" fill="#4354E7"/>
<path d="M30.5098 14.2457L23.1125 12.0556C22.7632 11.9522 22.6093 11.5429 22.8036 11.2342L29.1918 1.08795C29.4508 0.676547 29.1558 0.140625 28.6703 0.140625H26.4973C26.9828 0.140625 27.2778 0.676547 27.0188 1.08795L20.6305 11.2342C20.4362 11.5429 20.5901 11.9522 20.9395 12.0556L28.3368 14.2457C28.801 14.3831 28.9713 14.953 28.6589 15.3234L13.5164 33.2785L12.8172 35.7268C12.7216 36.0616 13.1494 36.2903 13.3737 36.0243L30.8319 15.3234C31.1443 14.953 30.974 14.3831 30.5098 14.2457Z" fill="#2C3581"/>
<path d="M0.501703 13.9218L2.34663 26.7052C2.37321 26.8893 2.56228 27.0025 2.73715 26.939L5.34117 25.9928C5.50155 25.9345 5.67966 26.0098 5.74969 26.1654L10.1992 36.0539C10.2671 36.2049 10.494 36.1449 10.4786 35.9802L8.88591 19.0331C8.86692 18.8314 8.65423 18.7092 8.4705 18.7944L5.38392 20.2252C5.2383 20.2927 5.0652 20.2442 4.97597 20.1107L0.768399 13.8194C0.681703 13.6898 0.479414 13.7675 0.501703 13.9218Z" fill="#4354E7"/>
<path d="M10.4784 35.9801L8.88577 19.033C8.86685 18.8314 8.65409 18.7091 8.47036 18.7943L6.76465 19.585L8.79563 32.9347L10.1991 36.0538C10.267 36.2048 10.4939 36.1448 10.4784 35.9801Z" fill="#2C3581"/>
<path d="M1.00745 17.4263L2.80274 20.1108C3.26912 20.6638 4.97582 20.1108 4.97582 20.1108L0.768389 13.8194C0.681693 13.6899 0.479475 13.7674 0.501693 13.9217L1.00745 17.4263Z" fill="#2C3581"/>
</g>
<defs>
<clipPath id="clip0_288_217">
<rect width="36" height="36" fill="white" transform="translate(0.5 0.140625)"/>
</clipPath>
</defs>
</svg>
