<svg width="24" height="24" viewBox="0 0 24 24" fill="none" xmlns="http://www.w3.org/2000/svg">
<path d="M8.4644 7.0508C8.855 7.4414 8.855 8.0742 8.4644 8.4649C8.2691 8.6602 8.0132 8.7579 7.7574 8.7579C7.5016 8.7579 7.2457 8.6602 7.0504 8.4649L4.2218 5.6358C3.8312 5.2452 3.8312 4.6124 4.2218 4.2217C4.6124 3.831 5.2452 3.8311 5.6359 4.2217L8.4644 7.0508ZM18.3643 4.2217L15.5357 7.0508C15.1451 7.4414 15.1451 8.0742 15.5357 8.4649C15.731 8.6602 15.9869 8.7579 16.2427 8.7579C16.4985 8.7579 16.7544 8.6602 16.9497 8.4649L19.7783 5.6358C20.1689 5.2452 20.1689 4.6124 19.7783 4.2217C19.3877 3.831 18.755 3.8311 18.3643 4.2217ZM7 12C7 11.4473 6.5522 11 6 11H2C1.4478 11 1 11.4473 1 12C1 12.5527 1.4478 13 2 13H6C6.5522 13 7 12.5527 7 12ZM7.0503 15.5352L4.2217 18.3643C3.8311 18.7549 3.8311 19.3877 4.2217 19.7784C4.417 19.9737 4.6729 20.0714 4.9287 20.0714C5.1845 20.0714 5.4404 19.9737 5.6357 19.7784L8.4643 16.9493C8.8549 16.5587 8.8549 15.9259 8.4643 15.5352C8.0737 15.1445 7.441 15.1446 7.0503 15.5352ZM12 1C11.4478 1 11 1.4473 11 2V6C11 6.5527 11.4478 7 12 7C12.5522 7 13 6.5527 13 6V2C13 1.4473 12.5522 1 12 1Z" fill="#FF1B6D"/>
<path opacity="0.3" d="M19.7783 18.3643C20.1689 18.7549 20.1689 19.3877 19.7783 19.7784C19.583 19.9737 19.3271 20.0714 19.0713 20.0714C18.8155 20.0714 18.5596 19.9737 18.3643 19.7784L15.5357 16.9493C15.1451 16.5587 15.1451 15.9259 15.5357 15.5352C15.9263 15.1445 16.5591 15.1446 16.9498 15.5352L19.7783 18.3643ZM22 11H18C17.4478 11 17 11.4473 17 12C17 12.5527 17.4478 13 18 13H22C22.5522 13 23 12.5527 23 12C23 11.4473 22.5522 11 22 11ZM12 17C11.4478 17 11 17.4473 11 18V22C11 22.5527 11.4478 23 12 23C12.5522 23 13 22.5527 13 22V18C13 17.4473 12.5522 17 12 17Z" fill="#FF1B6D"/>
</svg>
