<svg width="16" height="17" viewBox="0 0 16 17" fill="none" xmlns="http://www.w3.org/2000/svg">
<path d="M15.8603 3.99902L11.0078 8.82024L15.8603 13.6415C15.948 13.4581 16.0012 13.2554 16.0012 13.039V4.60149C16.0012 4.38502 15.948 4.18237 15.8603 3.99902Z" fill="white"/>
<path d="M14.5947 3.19531H1.40716C1.19069 3.19531 0.988031 3.24853 0.804688 3.33625L7.00666 9.50697C7.55503 10.0553 8.44678 10.0553 8.99516 9.50697L15.1971 3.33625C15.0138 3.24853 14.8111 3.19531 14.5947 3.19531Z" fill="white"/>
<path d="M0.140938 3.99902C0.0532188 4.18237 0 4.38502 0 4.60149V13.039C0 13.2555 0.0532188 13.4581 0.140938 13.6415L4.99341 8.82024L0.140938 3.99902Z" fill="white"/>
<path d="M10.3447 9.48315L9.658 10.1698C8.74428 11.0835 7.2575 11.0835 6.34378 10.1698L5.65716 9.48315L0.804688 14.3044C0.988031 14.3921 1.19069 14.4453 1.40716 14.4453H14.5947C14.8111 14.4453 15.0138 14.3921 15.1971 14.3044L10.3447 9.48315Z" fill="white"/>
</svg>
