<svg width="19" height="19" viewBox="0 0 19 19" fill="none" xmlns="http://www.w3.org/2000/svg">
<g clip-path="url(#clip0_353_2483)">
<path d="M9.25616 0.5H9.25166C4.28928 0.5 0.253906 4.5365 0.253906 9.5C0.253906 11.4688 0.888406 13.2935 1.96728 14.7751L0.845656 18.1186L4.30503 17.0128C5.72816 17.9555 7.42578 18.5 9.25616 18.5C14.2185 18.5 18.2539 14.4624 18.2539 9.5C18.2539 4.53763 14.2185 0.5 9.25616 0.5ZM14.493 13.2091C14.2759 13.8223 13.4142 14.3307 12.7268 14.4792C12.2565 14.5794 11.6423 14.6593 9.57453 13.802C6.92966 12.7063 5.22641 10.0186 5.09366 9.84425C4.96653 9.66988 4.02491 8.42112 4.02491 7.12963C4.02491 5.83813 4.68078 5.20925 4.94516 4.93925C5.16228 4.71763 5.52116 4.61637 5.86541 4.61637C5.97678 4.61637 6.07691 4.622 6.16691 4.6265C6.43128 4.63775 6.56403 4.6535 6.73841 5.07088C6.95553 5.594 7.48428 6.8855 7.54728 7.01825C7.61141 7.151 7.67553 7.331 7.58553 7.50538C7.50116 7.68538 7.42691 7.76525 7.29416 7.91825C7.16141 8.07125 7.03541 8.18825 6.90266 8.3525C6.78116 8.49538 6.64391 8.64838 6.79691 8.91275C6.94991 9.1715 7.47866 10.0344 8.25716 10.7274C9.26178 11.6217 10.0763 11.9075 10.3677 12.029C10.5848 12.119 10.8435 12.0976 11.0022 11.9289C11.2035 11.7118 11.4522 11.3518 11.7053 10.9974C11.8853 10.7431 12.1125 10.7116 12.351 10.8016C12.594 10.886 13.8799 11.5216 14.1443 11.6532C14.4087 11.786 14.583 11.849 14.6472 11.9604C14.7102 12.0718 14.7102 12.5949 14.493 13.2091Z" fill="#252525"/>
</g>
<defs>
<clipPath id="clip0_353_2483">
<rect width="18" height="18" fill="white" transform="translate(0.253906 0.5)"/>
</clipPath>
</defs>
</svg>
