<svg width="13" height="14" viewBox="0 0 13 14" fill="none" xmlns="http://www.w3.org/2000/svg">
<g clip-path="url(#clip0_359_1230)">
<path d="M6.5 0C4.60995 0 3.07227 1.65596 3.07227 3.69141C3.07227 5.72685 4.60995 7.38281 6.5 7.38281C8.39005 7.38281 9.92773 5.72685 9.92773 3.69141C9.92773 1.65596 8.39005 0 6.5 0ZM6.5 6.5625C5.02996 6.5625 3.83398 5.27453 3.83398 3.69141C3.83398 2.10829 5.02996 0.820312 6.5 0.820312C7.97004 0.820312 9.16602 2.10829 9.16602 3.69141C9.16602 5.27453 7.97004 6.5625 6.5 6.5625Z" fill="black"/>
<path d="M10.7648 9.79439C9.82632 8.76824 8.58226 8.20312 7.26172 8.20312H5.73828C4.41777 8.20312 3.17368 8.76824 2.23524 9.79439C1.3014 10.8155 0.787109 12.1634 0.787109 13.5898C0.787109 13.8164 0.957633 14 1.16797 14H11.832C12.0424 14 12.2129 13.8164 12.2129 13.5898C12.2129 12.1634 11.6986 10.8155 10.7648 9.79439ZM1.56559 13.1797C1.7564 10.8531 3.55497 9.02344 5.73828 9.02344H7.26172C9.44503 9.02344 11.2436 10.8531 11.4344 13.1797H1.56559Z" fill="black"/>
</g>
<defs>
<clipPath id="clip0_359_1230">
<rect width="13" height="14" fill="white"/>
</clipPath>
</defs>
</svg>
