<svg width="15" height="16" viewBox="0 0 15 16" fill="none" xmlns="http://www.w3.org/2000/svg">
<g clip-path="url(#clip0_359_1252)">
<path d="M6.60568 0.375C2.96341 0.375 0 3.33841 0 6.98068C0 10.6232 2.96341 13.5864 6.60568 13.5864C10.2482 13.5864 13.2114 10.6232 13.2114 6.98068C13.2114 3.33841 10.2482 0.375 6.60568 0.375ZM6.60568 12.3669C3.63577 12.3669 1.21951 9.95062 1.21951 6.98071C1.21951 4.0108 3.63577 1.59451 6.60568 1.59451C9.57559 1.59451 11.9919 4.01077 11.9919 6.98068C11.9919 9.95059 9.57559 12.3669 6.60568 12.3669Z" fill="black"/>
<path d="M14.8212 14.3343L11.3253 10.8383C11.0871 10.6001 10.7013 10.6001 10.4631 10.8383C10.2249 11.0763 10.2249 11.4625 10.4631 11.7005L13.959 15.1965C14.0781 15.3156 14.234 15.3751 14.3901 15.3751C14.546 15.3751 14.7021 15.3156 14.8212 15.1965C15.0594 14.9585 15.0594 14.5723 14.8212 14.3343Z" fill="black"/>
</g>
<defs>
<clipPath id="clip0_359_1252">
<rect width="15" height="15" fill="white" transform="translate(0 0.375)"/>
</clipPath>
</defs>
</svg>
