<svg width="16" height="15" viewBox="0 0 16 15" fill="none" xmlns="http://www.w3.org/2000/svg">
<g clip-path="url(#clip0_359_1223)">
<path d="M7.99467 15.0002C7.942 15.0002 7.88867 14.9883 7.84067 14.9646L0.179333 11.2146C0.0693333 11.1608 0 11.0539 0 10.9377V3.90643C0 3.7983 0.06 3.69768 0.158 3.6408C0.256 3.58393 0.379333 3.57893 0.482 3.62705L8.14333 7.2208C8.256 7.27393 8.32733 7.38205 8.32733 7.50018V14.6877C8.32733 14.7971 8.26667 14.8983 8.16667 14.9552C8.11467 14.9852 8.05467 15.0002 7.99467 15.0002ZM0.666667 10.7483L7.66133 14.1721V7.6933L0.666667 4.41205V10.7483Z" fill="black"/>
<path d="M8.00545 15.0002C7.94545 15.0002 7.88545 14.9852 7.83279 14.9552C7.73345 14.8983 7.67212 14.797 7.67212 14.6877V7.50015C7.67212 7.38203 7.74345 7.2739 7.85612 7.22078L15.5175 3.62703C15.6195 3.57828 15.7435 3.58328 15.8415 3.64078C15.9401 3.69765 16.0001 3.79828 16.0001 3.9064V10.9377C16.0001 11.0539 15.9308 11.1608 15.8208 11.2145L8.15945 14.9645C8.11145 14.9883 8.05812 15.0002 8.00545 15.0002ZM8.33879 7.69328V14.172L15.3335 10.7483V4.41203L8.33879 7.69328Z" fill="black"/>
<path d="M0.333294 4.21893C0.210627 4.21893 0.0932938 4.1558 0.0346271 4.04643C-0.0480395 3.89205 0.0192938 3.70455 0.18396 3.62705L7.85596 0.0333008C7.94996 -0.0104492 8.06063 -0.0104492 8.15396 0.0333008L15.8153 3.62705C15.98 3.70455 16.0466 3.89205 15.9646 4.04643C15.882 4.2008 15.6826 4.26268 15.5173 4.18643L8.00529 0.662051L0.482627 4.1858C0.434627 4.2083 0.38396 4.21893 0.333294 4.21893Z" fill="black"/>
<path d="M12 9.3751C11.816 9.3751 11.6666 9.2351 11.6666 9.0626V5.81823L4.18929 2.31073C4.02462 2.23385 3.95796 2.04573 4.04062 1.89135C4.12329 1.73698 4.32329 1.6751 4.48796 1.75135L12.1493 5.3451C12.262 5.39885 12.3333 5.50698 12.3333 5.6251V9.0626C12.3333 9.2351 12.184 9.3751 12 9.3751Z" fill="black"/>
</g>
<defs>
<clipPath id="clip0_359_1223">
<rect width="16" height="15" fill="white"/>
</clipPath>
</defs>
</svg>
