<svg width="19" height="19" viewBox="0 0 19 19" fill="none" xmlns="http://www.w3.org/2000/svg">
<path d="M1.71289 4.69922C1.71289 4.28447 2.04889 3.94922 2.46289 3.94922H12.2129C12.6269 3.94922 12.9629 4.28447 12.9629 4.69922C12.9629 5.11397 12.6269 5.44922 12.2129 5.44922H2.46289C2.04889 5.44922 1.71289 5.11397 1.71289 4.69922ZM15.9629 9.19922H2.46289C2.04889 9.19922 1.71289 9.53447 1.71289 9.94922C1.71289 10.364 2.04889 10.6992 2.46289 10.6992H15.9629C16.3769 10.6992 16.7129 10.364 16.7129 9.94922C16.7129 9.53447 16.3769 9.19922 15.9629 9.19922ZM9.21289 14.4492H2.46289C2.04889 14.4492 1.71289 14.7845 1.71289 15.1992C1.71289 15.614 2.04889 15.9492 2.46289 15.9492H9.21289C9.62689 15.9492 9.96289 15.614 9.96289 15.1992C9.96289 14.7845 9.62689 14.4492 9.21289 14.4492Z" fill="black"/>
</svg>
