<svg width="15" height="15" viewBox="0 0 15 15" fill="none" xmlns="http://www.w3.org/2000/svg">
<g clip-path="url(#clip0_359_1215)">
<path d="M13.9056 2.17531C13.1658 1.33584 12.1394 0.873535 11.0156 0.873535C9.43512 0.873535 8.43448 1.81748 7.87339 2.60938C7.72781 2.81486 7.60397 3.02091 7.5 3.2148C7.39603 3.02091 7.27222 2.81486 7.12661 2.60938C6.56552 1.81748 5.56488 0.873535 3.98438 0.873535C2.86061 0.873535 1.83425 1.33587 1.09438 2.17534C0.388682 2.97614 0 4.04864 0 5.19526C0 6.4434 0.487295 7.60429 1.53355 8.84859C2.46861 9.96069 3.81384 11.107 5.37158 12.4344C5.95204 12.9291 6.5523 13.4406 7.19136 13.9997L7.21055 14.0166C7.2934 14.0891 7.3967 14.1253 7.5 14.1253C7.6033 14.1253 7.7066 14.0891 7.78945 14.0166L7.80864 13.9997C8.4477 13.4406 9.04796 12.9291 9.62851 12.4344C11.1862 11.1071 12.5314 9.96072 13.4665 8.84859C14.5127 7.60426 15 6.4434 15 5.19526C15 4.04864 14.6113 2.97614 13.9056 2.17531ZM9.05839 11.7655C8.558 12.1919 8.04302 12.6307 7.5 13.1028C6.95701 12.6308 6.442 12.1919 5.94152 11.7654C2.89292 9.16757 0.878906 7.45133 0.878906 5.19526C0.878906 4.26274 1.1896 3.39661 1.75377 2.75645C2.32441 2.10901 3.11657 1.75244 3.98438 1.75244C5.18933 1.75244 5.96824 2.49477 6.40945 3.1175C6.80522 3.67602 7.01174 4.23904 7.08217 4.45517C7.14108 4.63607 7.30975 4.75851 7.5 4.75851C7.69025 4.75851 7.85892 4.63607 7.91783 4.45517C7.98826 4.23904 8.19478 3.67602 8.59055 3.11747C9.03176 2.49477 9.81067 1.75244 11.0156 1.75244C11.8834 1.75244 12.6756 2.10901 13.2462 2.75645C13.8104 3.39661 14.1211 4.26274 14.1211 5.19526C14.1211 7.45133 12.1071 9.16757 9.05839 11.7655Z" fill="black"/>
</g>
<defs>
<clipPath id="clip0_359_1215">
<rect width="15" height="15" fill="white" transform="translate(0 -0.000488281)"/>
</clipPath>
</defs>
</svg>
