<svg width="17" height="16" viewBox="0 0 17 16" fill="none" xmlns="http://www.w3.org/2000/svg">
<g clip-path="url(#clip0_359_1206)">
<path d="M16.7476 5.78275C16.5231 5.51769 16.1864 5.36562 15.8236 5.36562H12.5496L10.7743 1.53959C10.6642 1.30237 10.3706 1.19397 10.1186 1.29762C9.86648 1.40122 9.75136 1.67756 9.86146 1.91481L11.4627 5.36565H5.53732L7.13854 1.91481C7.24861 1.67756 7.13353 1.40125 6.88145 1.29762C6.6294 1.19397 6.33579 1.30231 6.22572 1.53959L4.45038 5.36565H1.17642C0.813645 5.36565 0.476865 5.51768 0.252379 5.78278C0.0320099 6.04303 -0.0493045 6.37759 0.0292873 6.70078L1.77766 13.8883C1.89975 14.3902 2.37147 14.7407 2.9248 14.7407H14.0752C14.6285 14.7407 15.1003 14.3902 15.2223 13.8883L16.9707 6.70075C17.0493 6.37756 16.968 6.043 16.7476 5.78275ZM14.0752 13.8031H2.9248C2.84023 13.8031 2.76615 13.7509 2.74866 13.679L1.00028 6.49156C0.986567 6.43515 1.00958 6.39272 1.03136 6.36706C1.05155 6.34318 1.09727 6.30315 1.17642 6.30315H4.01539L3.88493 6.58431C3.77487 6.82156 3.88995 7.09787 4.14203 7.2015C4.2069 7.22819 4.27451 7.24081 4.34108 7.24081C4.53306 7.24081 4.71601 7.13572 4.79775 6.95956L5.10233 6.30322H11.8977L12.2023 6.95956C12.2841 7.13575 12.467 7.24081 12.659 7.24081C12.7255 7.24081 12.7932 7.22819 12.858 7.2015C13.1101 7.0979 13.2252 6.82156 13.1151 6.58431L12.9847 6.30315H15.8236C15.9028 6.30315 15.9485 6.34318 15.9687 6.36706C15.9905 6.39275 16.0135 6.43519 15.9998 6.49153L14.2514 13.679C14.2339 13.7509 14.1598 13.8031 14.0752 13.8031Z" fill="black"/>
<path d="M5.51172 8.94971C5.23666 8.94971 5.01367 9.08974 5.01367 9.26248V11.5561C5.01367 11.7288 5.23666 11.8689 5.51172 11.8689C5.78677 11.8689 6.00977 11.7288 6.00977 11.5561V9.26248C6.00977 9.08974 5.78681 8.94971 5.51172 8.94971Z" fill="black"/>
<path d="M8.5 8.94971C8.22495 8.94971 8.00195 9.08974 8.00195 9.26248V11.5561C8.00195 11.7288 8.22495 11.8689 8.5 11.8689C8.77505 11.8689 8.99805 11.7288 8.99805 11.5561V9.26248C8.99805 9.08974 8.77505 8.94971 8.5 8.94971Z" fill="black"/>
<path d="M11.4883 8.94971C11.2132 8.94971 10.9902 9.08974 10.9902 9.26248V11.5561C10.9902 11.7288 11.2132 11.8689 11.4883 11.8689C11.7633 11.8689 11.9863 11.7288 11.9863 11.5561V9.26248C11.9863 9.08974 11.7633 8.94971 11.4883 8.94971Z" fill="black"/>
</g>
<defs>
<clipPath id="clip0_359_1206">
<rect width="17" height="16" fill="white" transform="translate(0 -0.000488281)"/>
</clipPath>
</defs>
</svg>
