<svg width="45" height="46" viewBox="0 0 45 46" fill="none" xmlns="http://www.w3.org/2000/svg">
<circle cx="22" cy="22" r="21" transform="matrix(-1 0 0 1 44.7358 1)" stroke="#EBEBEB" stroke-width="2"/>
<path d="M1.69234 23C1.69234 34.622 11.1138 44.0435 22.7358 44.0435C34.3578 44.0435 43.7793 34.622 43.7793 23C43.7793 11.378 34.3578 1.95654 22.7358 1.95654" stroke="#FF1B6D" stroke-width="2"/>
<g clip-path="url(#clip0_283_281)">
<path d="M14.8641 24.0463H29.6508C29.8763 24.0463 30.0802 23.9077 30.1665 23.6958C30.2528 23.4834 30.2051 23.2392 30.0455 23.0768L23.3502 16.2616C23.1321 16.0395 22.7794 16.0395 22.5613 16.2616C22.3432 16.4836 22.3432 16.8426 22.5613 17.0646L28.3037 22.9104H14.8646C14.5557 22.9104 14.3064 23.1648 14.3064 23.4783C14.3064 23.7918 14.5557 24.0463 14.8641 24.0463Z" fill="#FF1B6D"/>
<path d="M22.9548 30.8615C23.0974 30.8615 23.2405 30.8058 23.3495 30.6951L27.8135 26.1516C28.0316 25.9296 28.0316 25.5706 27.8135 25.3486C27.5954 25.1265 27.2427 25.1265 27.0246 25.3486L22.5607 29.892C22.3426 30.1141 22.3426 30.473 22.5607 30.6951C22.6691 30.8058 22.8123 30.8615 22.9548 30.8615Z" fill="#FF1B6D"/>
</g>
<defs>
<clipPath id="clip0_283_281">
<rect width="18.1739" height="18.1739" fill="white" transform="matrix(-1 0 0 1 31.3445 14.3914)"/>
</clipPath>
</defs>
</svg>
