<svg width="48" height="46" viewBox="0 0 48 46" fill="none" xmlns="http://www.w3.org/2000/svg">
<g clip-path="url(#clip0_288_378)">
<path d="M35.589 1.49577C34.271 0.839534 32.6589 1.35372 31.9886 2.64417L12.0736 40.9806C11.4033 42.2709 11.9286 43.8484 13.2469 44.5045C13.6357 44.6979 14.0501 44.7896 14.4583 44.7896C15.4341 44.7896 16.3747 44.2658 16.8474 43.3561L36.7624 5.01961C37.4327 3.72933 36.9073 2.15182 35.589 1.49577Z" fill="#4354E7"/>
<path d="M21.2893 14.1202C21.2893 8.63958 16.7335 4.18066 11.1337 4.18066C5.53424 4.18066 0.978394 8.63958 0.978394 14.1202C0.978394 19.6007 5.53424 24.0596 11.1339 24.0596C16.7337 24.0596 21.2893 19.6007 21.2893 14.1202ZM11.1339 18.8182C8.48722 18.8182 6.33381 16.7106 6.33381 14.1202C6.33381 11.5297 8.48722 9.42213 11.1339 9.42213C13.7807 9.42213 15.9341 11.5296 15.9341 14.1202C15.9339 16.7106 13.7807 18.8182 11.1339 18.8182Z" fill="#4354E7"/>
<path d="M37.8229 21.9409C32.2231 21.9409 27.6673 26.3998 27.6673 31.8803C27.6673 37.3608 32.223 41.8197 37.8229 41.8197C43.4226 41.8197 47.9784 37.361 47.9784 31.8803C47.9784 26.3997 43.4227 21.9409 37.8229 21.9409ZM37.8229 36.5781C35.1761 36.5781 33.0227 34.4705 33.0227 31.8801C33.0227 29.2898 35.1761 27.1822 37.8229 27.1822C40.4696 27.1822 42.623 29.2898 42.623 31.8801C42.623 34.4705 40.4698 36.5781 37.8229 36.5781Z" fill="#4354E7"/>
</g>
<defs>
<clipPath id="clip0_288_378">
<rect width="47" height="46" fill="white" transform="translate(0.978394)"/>
</clipPath>
</defs>
</svg>
