<svg width="23" height="23" viewBox="0 0 23 23" fill="none" xmlns="http://www.w3.org/2000/svg">
<g clip-path="url(#clip0_248_1158)">
<path d="M22.043 10.3198H12.7617V1.03857C12.7617 0.563941 12.377 0.179199 11.9023 0.179199C11.4277 0.179199 11.043 0.563941 11.043 1.03857V10.3198H1.76172C1.28709 10.3198 0.902344 10.7046 0.902344 11.1792C0.902344 11.6538 1.28709 12.0386 1.76172 12.0386H11.043V21.3198C11.043 21.7945 11.4277 22.1792 11.9023 22.1792C12.377 22.1792 12.7617 21.7945 12.7617 21.3198V12.0386H22.043C22.5176 12.0386 22.9023 11.6538 22.9023 11.1792C22.9023 10.7046 22.5176 10.3198 22.043 10.3198Z" fill="black"/>
</g>
<defs>
<clipPath id="clip0_248_1158">
<rect width="22" height="22" fill="white" transform="translate(0.902344 0.179199)"/>
</clipPath>
</defs>
</svg>
