<svg width="45" height="44" viewBox="0 0 45 44" fill="none" xmlns="http://www.w3.org/2000/svg">
<circle cx="22.3445" cy="22" r="21" stroke="#EBEBEB" stroke-width="2"/>
<g clip-path="url(#clip0_283_294)">
<path d="M30.2162 23.0463H15.4295C15.204 23.0463 15.0001 22.9077 14.9138 22.6958C14.8275 22.4834 14.8752 22.2392 15.0348 22.0768L21.7302 15.2616C21.9482 15.0395 22.3009 15.0395 22.519 15.2616C22.7371 15.4836 22.7371 15.8426 22.519 16.0646L16.7766 21.9104H30.2157C30.5246 21.9104 30.774 22.1648 30.774 22.4783C30.774 22.7918 30.5246 23.0463 30.2162 23.0463Z" fill="#FF1B6D"/>
<path d="M22.1255 29.8615C21.983 29.8615 21.8398 29.8058 21.7308 29.6951L17.2668 25.1516C17.0487 24.9296 17.0487 24.5706 17.2668 24.3486C17.4849 24.1265 17.8376 24.1265 18.0557 24.3486L22.5197 28.892C22.7378 29.1141 22.7378 29.473 22.5197 29.6951C22.4112 29.8058 22.2681 29.8615 22.1255 29.8615Z" fill="#FF1B6D"/>
</g>
<defs>
<clipPath id="clip0_283_294">
<rect width="18.1739" height="18.1739" fill="white" transform="translate(13.7358 13.3914)"/>
</clipPath>
</defs>
</svg>
