<svg width="17" height="17" viewBox="0 0 17 17" fill="none" xmlns="http://www.w3.org/2000/svg">
<g clip-path="url(#clip0_348_2141)">
<path d="M16.7008 6.73009C16.5939 6.42306 16.3006 6.20499 15.9537 6.17595L11.2406 5.77857L9.37689 1.72802C9.23947 1.43117 8.92651 1.23901 8.57879 1.23901C8.23107 1.23901 7.91811 1.43117 7.7807 1.72872L5.91702 5.77857L1.20319 6.17595C0.856838 6.20568 0.564311 6.42306 0.456793 6.73009C0.349276 7.03712 0.448571 7.37389 0.710575 7.58617L4.27311 10.4874L3.2226 14.7843C3.14573 15.1003 3.27779 15.4268 3.5601 15.6163C3.71185 15.7181 3.88938 15.77 4.06841 15.77C4.22277 15.77 4.37589 15.7313 4.51331 15.655L8.57879 13.3987L12.6428 15.655C12.9402 15.8211 13.315 15.806 13.5967 15.6163C13.8792 15.4263 14.0111 15.0996 13.9342 14.7843L12.8837 10.4874L16.4463 7.58675C16.7083 7.37389 16.8083 7.0377 16.7008 6.73009Z" fill="#FFC107"/>
</g>
<defs>
<clipPath id="clip0_348_2141">
<rect width="16.3293" height="15.1629" fill="white" transform="translate(0.414062 0.913574)"/>
</clipPath>
</defs>
</svg>
