<svg width="116" height="116" viewBox="0 0 116 116" fill="none" xmlns="http://www.w3.org/2000/svg">
<g clip-path="url(#clip0_348_3790)">
<path d="M106.616 29.9355L92.3968 23.6102L86.0661 9.38562L70.5918 11.0017L58.0024 1.87183L45.4057 11.0017L29.9387 9.38562L23.6125 23.6038L9.38788 29.9355L11.0048 45.4098L1.875 57.9992L11.0048 70.5959L9.38788 86.0629L23.607 92.3882L29.9387 106.613L45.413 104.997L58.0024 114.127L70.5991 104.997L86.0661 106.613L92.3914 92.3937L106.616 86.0629L104.999 70.5886L114.13 57.9992L104.999 45.4025L106.616 29.9355ZM46.7769 80.4502L30.8924 64.5657L36.1872 59.29L46.7769 69.8605L78.5258 38.1116L83.8206 43.4055L46.7769 80.4502Z" fill="#FF1B6D"/>
<path d="M115.646 56.9011L106.935 44.8836L108.478 30.1246C108.563 29.318 108.119 28.5497 107.378 28.2199L93.8181 22.186L87.7842 8.62557C87.4526 7.88652 86.6853 7.44346 85.8795 7.52385L71.1178 9.0668L59.1012 0.356277C58.4462 -0.118759 57.5601 -0.118759 56.905 0.356277L44.8875 9.0668L30.1267 7.52385C29.3219 7.44711 28.5572 7.88926 28.222 8.62374L22.1881 22.1842L8.62764 28.2199C7.88768 28.5488 7.44371 29.3171 7.52775 30.1228L9.07071 44.8836L0.360184 56.9011C-0.114853 57.5561 -0.114853 58.4423 0.360184 59.0973L9.07071 71.1139L7.52775 85.8756C7.44279 86.6814 7.88677 87.4506 8.62764 87.7803L22.1881 93.8142L28.222 107.375C28.5554 108.111 29.321 108.554 30.1267 108.476L44.8875 106.933L56.905 115.644C57.5601 116.119 58.4462 116.119 59.1012 115.644L71.1178 106.933L85.8795 108.476C86.6853 108.558 87.4517 108.115 87.7842 107.377L93.8181 93.816L107.378 87.7803C108.118 87.4506 108.562 86.6832 108.478 85.8774L106.935 71.1157L115.646 59.0991C116.122 58.4441 116.122 57.5561 115.646 56.9011ZM103.485 69.4978C103.214 69.8715 103.09 70.3319 103.139 70.7905L104.613 84.9118L91.6384 90.6881C91.2146 90.8745 90.8747 91.2125 90.6874 91.6364L84.9158 104.611L70.7907 103.135C70.3321 103.087 69.8726 103.212 69.4999 103.483L58.0031 111.816L46.5045 103.483C46.1857 103.25 45.802 103.125 45.4083 103.126C45.3425 103.126 45.2767 103.126 45.221 103.135L31.095 104.611L25.3233 91.6364C25.1352 91.2125 24.7972 90.8736 24.3733 90.6854L11.3911 84.9118L12.8655 70.7905C12.913 70.3319 12.7897 69.8715 12.5193 69.4978L4.18605 57.9992L12.5193 46.5006C12.7897 46.1269 12.913 45.6665 12.8655 45.2079L11.3911 31.0857L24.366 25.3103C24.7898 25.1239 25.1288 24.7859 25.316 24.3621L31.0877 11.3872L45.2137 12.8634C45.6713 12.9091 46.1309 12.7849 46.5045 12.5154L58.0031 4.18215L69.5017 12.5154C69.8745 12.7858 70.334 12.9091 70.7926 12.8634L84.9176 11.3872L90.6893 24.3621C90.8775 24.7859 91.2164 25.1239 91.6403 25.3121L104.615 31.0857L103.141 45.2079C103.092 45.6665 103.216 46.1269 103.487 46.5006L111.819 57.9992L103.485 69.4978Z" fill="#FF88B3"/>
<path d="M79.85 36.7888C79.1192 36.058 77.9352 36.058 77.2044 36.7888L46.7783 67.2149L37.5115 57.9654C36.7816 57.2373 35.5994 57.2373 34.8695 57.9654L29.5656 63.2374C29.2139 63.5882 29.0156 64.0651 29.0156 64.562C29.0156 65.059 29.2139 65.5359 29.5656 65.8867L45.4501 81.7711C46.18 82.501 47.3648 82.501 48.0956 81.7711L85.1393 44.7265C85.8693 43.9966 85.8693 42.8118 85.1393 42.0809L79.85 36.7888ZM46.7783 77.8046L33.5413 64.5675L36.1868 61.9283L45.4574 71.1797C46.1873 71.9086 47.3703 71.9086 48.1011 71.1797L78.5272 40.7563L81.1764 43.4056L46.7783 77.8046Z" fill="#FF88B3"/>
</g>
<defs>
<clipPath id="clip0_348_3790">
<rect width="116" height="116" fill="white"/>
</clipPath>
</defs>
</svg>
