<svg width="15" height="16" viewBox="0 0 15 16" fill="none" xmlns="http://www.w3.org/2000/svg">
<g clip-path="url(#clip0_353_2550)">
<path d="M6.60568 0.375C2.96341 0.375 0 3.33841 0 6.98068C0 10.6232 2.96341 13.5864 6.60568 13.5864C10.2482 13.5864 13.2114 10.6232 13.2114 6.98068C13.2114 3.33841 10.2482 0.375 6.60568 0.375ZM6.60568 12.3669C3.63577 12.3669 1.21951 9.95062 1.21951 6.98071C1.21951 4.0108 3.63577 1.59451 6.60568 1.59451C9.57559 1.59451 11.9919 4.01077 11.9919 6.98068C11.9919 9.95059 9.57559 12.3669 6.60568 12.3669Z" fill="black"/>
<path d="M14.822 14.334L11.326 10.8381C11.0878 10.5999 10.702 10.5999 10.4638 10.8381C10.2256 11.0761 10.2256 11.4623 10.4638 11.7003L13.9598 15.1962C14.0788 15.3153 14.2348 15.3749 14.3909 15.3749C14.5467 15.3749 14.7028 15.3153 14.822 15.1962C15.0602 14.9582 15.0602 14.572 14.822 14.334Z" fill="black"/>
</g>
<defs>
<clipPath id="clip0_353_2550">
<rect width="15" height="15" fill="white" transform="translate(0 0.375)"/>
</clipPath>
</defs>
</svg>
