<svg width="19" height="19" viewBox="0 0 19 19" fill="none" xmlns="http://www.w3.org/2000/svg">
<path d="M9.62622 6.22607C9.47705 6.22603 9.334 6.16676 9.22852 6.06128C9.12304 5.9558 9.06376 5.81275 9.06372 5.66357C9.06349 5.415 8.96464 5.17668 8.78888 5.00092C8.61311 4.82515 8.37479 4.7263 8.12622 4.72607C7.97704 4.72607 7.83396 4.66681 7.72847 4.56132C7.62298 4.45583 7.56372 4.31276 7.56372 4.16357C7.56372 4.01439 7.62298 3.87132 7.72847 3.76583C7.83396 3.66034 7.97704 3.60107 8.12622 3.60107C8.67306 3.60163 9.19734 3.81911 9.58401 4.20578C9.97069 4.59245 10.1882 5.11674 10.1887 5.66357C10.1887 5.81275 10.1294 5.9558 10.0239 6.06128C9.91844 6.16676 9.77539 6.22603 9.62622 6.22607Z" fill="#252525"/>
<path d="M7.37621 12.9761C6.13805 12.9748 4.93271 12.5777 3.9362 11.8428C2.93968 11.108 2.20417 10.0738 1.83704 8.89133C1.46991 7.70884 1.4904 6.43995 1.8955 5.26993C2.30061 4.09991 3.06912 3.09002 4.08884 2.38771C5.10856 1.6854 6.32607 1.32745 7.56364 1.36611C8.8012 1.40478 9.994 1.83804 10.9679 2.60263C11.9418 3.36723 12.6458 4.42312 12.977 5.61614C13.3083 6.80917 13.2495 8.07686 12.8093 9.23413C12.7563 9.3736 12.65 9.48629 12.5139 9.54741C12.3778 9.60853 12.223 9.61308 12.0835 9.56005C11.944 9.50702 11.8313 9.40076 11.7702 9.26464C11.7091 9.12852 11.7045 8.9737 11.7576 8.83422C12.1718 7.75121 12.1704 6.55321 11.7538 5.47113C11.3371 4.38905 10.5347 3.49951 9.50111 2.97394C8.46754 2.44838 7.276 2.32401 6.15618 2.6248C5.03636 2.9256 4.06751 3.63026 3.43639 4.60297C2.80527 5.57568 2.55655 6.74758 2.73817 7.89279C2.91979 9.03799 3.51889 10.0754 4.42 10.8052C5.32111 11.5349 6.46044 11.9052 7.61838 11.8447C8.77632 11.7843 9.87091 11.2974 10.6912 10.4778C10.7969 10.373 10.9398 10.3143 11.0887 10.3146C11.2376 10.315 11.3803 10.3743 11.4855 10.4796C11.5907 10.5849 11.6499 10.7277 11.6501 10.8766C11.6503 11.0255 11.5915 11.1684 11.4866 11.274C10.9479 11.8152 10.3073 12.2443 9.60176 12.5364C8.89625 12.8286 8.13982 12.978 7.37621 12.9761Z" fill="#252525"/>
<path d="M15.3156 17.1656C15.0446 17.1665 14.7761 17.1135 14.5257 17.0097C14.2754 16.9059 14.0482 16.7534 13.8573 16.561L12.2284 14.9328C11.8422 14.5457 11.6252 14.0212 11.6252 13.4744C11.6252 12.9276 11.8422 12.4031 12.2284 12.016C12.6212 11.6407 13.1435 11.4313 13.6867 11.4314C14.2299 11.4315 14.7522 11.641 15.1449 12.0163L16.7738 13.6445C17.0622 13.933 17.2586 14.3005 17.3382 14.7005C17.4178 15.1006 17.377 15.5153 17.2209 15.8922C17.0648 16.269 16.8005 16.5912 16.4613 16.8178C16.1222 17.0445 15.7235 17.1655 15.3156 17.1656ZM13.6866 12.5367C13.5012 12.5368 13.3199 12.5918 13.1658 12.6948C13.0116 12.7979 12.8915 12.9443 12.8205 13.1157C12.7496 13.287 12.731 13.4755 12.7672 13.6574C12.8034 13.8392 12.8927 14.0063 13.0238 14.1374L14.6527 15.766C14.8312 15.9366 15.0686 16.0318 15.3156 16.0318C15.5625 16.0318 15.7999 15.9366 15.9784 15.766C16.1539 15.59 16.2525 15.3515 16.2525 15.1029C16.2525 14.8544 16.1539 14.6159 15.9784 14.4399L14.3495 12.8114C14.2627 12.724 14.1594 12.6547 14.0456 12.6076C13.9318 12.5605 13.8098 12.5364 13.6866 12.5367Z" fill="#252525"/>
<path d="M12.6262 12.976C12.5523 12.9762 12.4791 12.9617 12.4109 12.9334C12.3426 12.9051 12.2806 12.8636 12.2285 12.8112L10.7285 11.3112C10.6236 11.2056 10.5649 11.0628 10.5652 10.914C10.5655 10.7651 10.6247 10.6225 10.7299 10.5173C10.8351 10.412 10.9778 10.3528 11.1266 10.3525C11.2754 10.3523 11.4183 10.411 11.5239 10.5158L13.0239 12.0158C13.1025 12.0945 13.1561 12.1947 13.1778 12.3038C13.1995 12.4129 13.1883 12.526 13.1458 12.6288C13.1032 12.7316 13.0311 12.8194 12.9386 12.8812C12.8462 12.943 12.7374 12.976 12.6262 12.976Z" fill="#252525"/>
</svg>
