<svg width="17" height="18" viewBox="0 0 17 18" fill="none" xmlns="http://www.w3.org/2000/svg">
<path d="M16.5055 5.99123C16.5055 5.84956 16.293 4.71623 15.7971 4.22039C15.1596 3.51206 14.4513 3.44123 14.0971 3.44123H14.0263C11.8305 3.29956 8.57213 3.29956 8.5013 3.29956C8.5013 3.29956 5.17213 3.29956 2.9763 3.44123H2.90547C2.5513 3.44123 1.84297 3.51206 1.20547 4.22039C0.709635 4.78706 0.497135 5.92039 0.497135 6.06206C0.497135 6.13289 0.355469 7.40789 0.355469 8.75373V9.95789C0.355469 11.3037 0.497135 12.5787 0.497135 12.6496C0.497135 12.7912 0.709635 13.9246 1.20547 14.4204C1.77214 15.0579 2.48047 15.1287 2.90547 15.1996C2.9763 15.1996 3.04714 15.1996 3.11797 15.1996C4.39297 15.3412 8.2888 15.3412 8.43047 15.3412C8.43047 15.3412 11.7596 15.3412 13.9555 15.1996H14.0263C14.3805 15.1287 15.0888 15.0579 15.7263 14.4204C16.2221 13.8537 16.4346 12.7204 16.4346 12.5787C16.4346 12.5079 16.5763 11.2329 16.5763 9.88706V8.68289C16.6471 7.40789 16.5055 6.06206 16.5055 5.99123ZM11.2638 9.46206L7.0138 11.7287C6.94297 11.7287 6.94297 11.7996 6.87214 11.7996C6.8013 11.7996 6.73047 11.7996 6.73047 11.7287C6.65964 11.6579 6.5888 11.5871 6.5888 11.4454V6.84123C6.5888 6.69956 6.65964 6.62873 6.73047 6.55789C6.8013 6.48706 6.94297 6.48706 7.08464 6.55789L11.3346 8.82456C11.4763 8.89539 11.5471 8.96623 11.5471 9.10789C11.5471 9.24956 11.4055 9.39123 11.2638 9.46206Z" fill="#848484"/>
</svg>
