<svg width="20" height="21" viewBox="0 0 20 21" fill="none" xmlns="http://www.w3.org/2000/svg">
<path fill-rule="evenodd" clip-rule="evenodd" d="M18.9336 5.97656C19.0727 5.53594 18.9336 5.21562 18.3184 5.21562H16.2727C15.7566 5.21562 15.5184 5.49609 15.3793 5.79609C15.3793 5.79609 14.327 8.35859 12.8574 10.0199C12.3809 10.5004 12.1625 10.6605 11.9043 10.6605C11.7652 10.6605 11.5863 10.5004 11.5863 10.0602V5.95586C11.5863 5.43555 11.4277 5.19531 10.9906 5.19531H7.77344C7.45547 5.19531 7.25703 5.43555 7.25703 5.67578C7.25703 6.17617 7.9918 6.29648 8.07109 7.69766V10.7422C8.07109 11.4027 7.95391 11.5234 7.69375 11.5234C6.99883 11.5234 5.31094 8.94102 4.29844 5.99844C4.10156 5.41562 3.90156 5.19531 3.38516 5.19531H1.31992C0.724219 5.19531 0.625 5.47539 0.625 5.77578C0.625 6.31641 1.31992 9.03867 3.86172 12.6418C5.54961 15.1027 7.95234 16.4254 10.1168 16.4254C11.4277 16.4254 11.5863 16.125 11.5863 15.6246V13.7629C11.5863 13.1625 11.7055 13.0625 12.1227 13.0625C12.4203 13.0625 12.9566 13.2223 14.168 14.4035C15.5578 15.8047 15.7961 16.4453 16.5707 16.4453H18.616C19.2117 16.4453 19.4898 16.1449 19.3309 15.5645C19.1523 14.984 18.477 14.1434 17.6031 13.1426C17.1266 12.5824 16.4117 11.9617 16.1934 11.6613C15.8957 11.2609 15.975 11.1008 16.1934 10.7406C16.1734 10.7406 18.6758 7.17734 18.9336 5.975" fill="#848484"/>
</svg>
