<svg width="19" height="20" viewBox="0 0 19 20" fill="none" xmlns="http://www.w3.org/2000/svg">
<g clip-path="url(#clip0_348_3191)">
<path d="M9.5 0.820312C6.91917 0.820312 6.59696 0.832187 5.58363 0.877313C4.57188 0.924812 3.88313 1.08394 3.2775 1.31906C2.65287 1.56131 2.12246 1.88669 1.59442 2.41473C1.06638 2.94277 0.740208 3.4724 0.49875 4.09781C0.263625 4.70344 0.103708 5.39219 0.057 6.40394C0.0095 7.41727 0 7.73948 0 10.3203C0 12.9011 0.011875 13.2234 0.057 14.2367C0.1045 15.2476 0.263625 15.9372 0.49875 16.5428C0.741 17.1666 1.06638 17.6979 1.59442 18.2259C2.12246 18.7531 2.65208 19.0801 3.2775 19.3216C3.88392 19.5559 4.57267 19.7166 5.58363 19.7633C6.59696 19.8108 6.91917 19.8203 9.5 19.8203C12.0808 19.8203 12.403 19.8084 13.4164 19.7633C14.4273 19.7158 15.1169 19.5559 15.7225 19.3216C16.3463 19.0793 16.8775 18.7531 17.4056 18.2259C17.9328 17.6979 18.2598 17.169 18.5013 16.5428C18.7356 15.9372 18.8963 15.2476 18.943 14.2367C18.9905 13.2234 19 12.9011 19 10.3203C19 7.73948 18.9881 7.41727 18.943 6.40394C18.8955 5.39298 18.7356 4.70265 18.5013 4.09781C18.259 3.47319 17.9328 2.94277 17.4056 2.41473C16.8775 1.88669 16.3487 1.56052 15.7225 1.31906C15.1169 1.08394 14.4273 0.924021 13.4164 0.877313C12.403 0.829812 12.0808 0.820312 9.5 0.820312ZM9.5 2.53031C12.0357 2.53031 12.3381 2.54298 13.3396 2.58652C14.2658 2.63006 14.7685 2.78365 15.1026 2.91506C15.5475 3.08685 15.8626 3.29269 16.1967 3.6244C16.5284 3.9569 16.7342 4.27277 16.906 4.71769C17.0359 5.05177 17.191 5.55448 17.233 6.48073C17.2781 7.48298 17.2884 7.78381 17.2884 10.3203C17.2884 12.8568 17.2765 13.1584 17.2298 14.1599C17.1815 15.0861 17.0272 15.5889 16.8965 15.9229C16.7192 16.3679 16.5173 16.6829 16.1848 17.017C15.8531 17.3487 15.5325 17.5546 15.0923 17.7264C14.7598 17.8562 14.2492 18.0114 13.323 18.0533C12.3144 18.0984 12.0175 18.1087 9.47625 18.1087C6.93421 18.1087 6.63733 18.0969 5.62954 18.0501C4.7025 18.0019 4.19187 17.8475 3.85938 17.7169C3.40892 17.5395 3.09938 17.3376 2.76767 17.0051C2.43438 16.6734 2.22142 16.3528 2.05517 15.9126C1.92454 15.5801 1.77096 15.0695 1.72267 14.1433C1.68704 13.1458 1.67438 12.8378 1.67438 10.3084C1.67438 7.77827 1.68704 7.46952 1.72267 6.46015C1.77096 5.5339 1.92454 5.02406 2.05517 4.69156C2.22142 4.24031 2.43438 3.93156 2.76767 3.59827C3.09938 3.26656 3.40892 3.05281 3.85938 2.88735C4.19187 2.75594 4.69142 2.60156 5.61767 2.55406C6.62704 2.51844 6.92392 2.50656 9.46438 2.50656L9.5 2.53031ZM9.5 5.44206C6.80438 5.44206 4.62175 7.62706 4.62175 10.3203C4.62175 13.0159 6.80675 15.1986 9.5 15.1986C12.1956 15.1986 14.3783 13.0136 14.3783 10.3203C14.3783 7.62469 12.1933 5.44206 9.5 5.44206ZM9.5 13.487C7.75042 13.487 6.33333 12.0699 6.33333 10.3203C6.33333 8.57073 7.75042 7.15365 9.5 7.15365C11.2496 7.15365 12.6667 8.57073 12.6667 10.3203C12.6667 12.0699 11.2496 13.487 9.5 13.487ZM15.7114 5.24969C15.7114 5.87906 15.2 6.38969 14.5714 6.38969C13.942 6.38969 13.4314 5.87827 13.4314 5.24969C13.4314 4.6211 13.9428 4.11048 14.5714 4.11048C15.1992 4.10969 15.7114 4.6211 15.7114 5.24969Z" fill="#848484"/>
</g>
<defs>
<clipPath id="clip0_348_3191">
<rect width="19" height="19" fill="white" transform="translate(0 0.820312)"/>
</clipPath>
</defs>
</svg>
