<svg width="19" height="18" viewBox="0 0 19 18" fill="none" xmlns="http://www.w3.org/2000/svg">
<path d="M9.16795 1.08695C9.3402 0.680299 9.91651 0.680299 10.0888 1.08695L12.1517 5.95737C12.2232 6.12609 12.3812 6.2422 12.5636 6.25999L17.7459 6.76554C18.1781 6.8077 18.3548 7.3429 18.0326 7.6341L14.1137 11.1765C13.9809 11.2966 13.9224 11.4787 13.9605 11.6537L15.0943 16.8649C15.1875 17.2937 14.7226 17.6261 14.347 17.3991L9.88699 14.7034C9.72796 14.6073 9.52875 14.6073 9.36972 14.7034L4.90966 17.3991C4.53408 17.6261 4.06916 17.2937 4.16246 16.8649L5.29624 11.6537C5.33433 11.4787 5.27586 11.2966 5.14296 11.1765L1.2241 7.63409C0.901959 7.3429 1.07865 6.8077 1.51085 6.76554L6.69312 6.25999C6.87548 6.2422 7.03351 6.12609 7.10497 5.95737L9.16795 1.08695Z" fill="#FBBC04"/>
</svg>
