<svg width="19" height="18" viewBox="0 0 19 18" fill="none" xmlns="http://www.w3.org/2000/svg">
<path d="M9.29588 1.08695C9.46813 0.680298 10.0444 0.680299 10.2167 1.08695L12.2797 5.95737C12.3511 6.12609 12.5092 6.2422 12.6915 6.25999L17.8738 6.76554C18.306 6.8077 18.4827 7.3429 18.1605 7.63409L14.2417 11.1765C14.1088 11.2966 14.0503 11.4787 14.0884 11.6537L15.2222 16.8649C15.3155 17.2937 14.8506 17.6261 14.475 17.3991L10.0149 14.7034C9.85589 14.6073 9.65668 14.6073 9.49765 14.7034L5.03759 17.3991C4.66201 17.6261 4.19709 17.2937 4.29039 16.8649L5.42417 11.6537C5.46226 11.4787 5.40379 11.2966 5.27089 11.1765L1.35203 7.63409C1.02989 7.3429 1.20658 6.8077 1.63878 6.76554L6.82105 6.25999C7.00341 6.2422 7.16144 6.12609 7.2329 5.95737L9.29588 1.08695Z" fill="#DBDCE0"/>
</svg>
