<svg width="15" height="15" viewBox="0 0 15 15" fill="none" xmlns="http://www.w3.org/2000/svg">
<g clip-path="url(#clip0_353_2572)">
<path d="M3.56079 6.3382C3.17726 6.3382 2.84061 6.54236 2.65358 6.84765C2.61706 6.8429 2.58013 6.84021 2.54273 6.84021C2.29044 6.84021 2.10279 6.83352 1.8097 6.90553V6.03594C1.8097 -1.25327 12.9543 -1.36152 13.1882 5.80379C13.1928 5.94188 13.3092 6.04976 13.4464 6.04567C13.5845 6.04113 13.6928 5.92556 13.6883 5.78747C13.4335 -2.02007 1.30935 -1.91913 1.30935 6.03594V7.25178C1.30935 7.43371 1.49709 7.55398 1.66198 7.47984C2.00814 7.3349 2.25151 7.34053 2.49948 7.34053C2.49598 7.40219 2.49952 11.8933 2.50005 11.9026H2.35008C1.37964 11.9026 0.590165 11.1131 0.590165 10.1427V9.10047C0.590165 8.8201 0.65405 8.55221 0.780068 8.30424C0.842671 8.1811 0.793577 8.0305 0.670404 7.9679C0.5472 7.90533 0.396666 7.95439 0.334063 8.07757C0.172021 8.39643 0.0898438 8.74058 0.0898438 9.10047V10.1427C0.0898438 11.389 1.10378 12.4029 2.35008 12.4029C2.55899 12.4029 2.69717 12.4156 2.89086 12.328C2.94618 12.3036 2.99255 12.2586 3.01832 12.1997C3.07764 12.0646 2.99793 12.0192 2.99793 11.8417V7.40138C2.99793 7.09103 3.25043 6.83852 3.56079 6.83852C3.87115 6.83852 4.12365 7.09103 4.12365 7.40138V11.8417C4.12365 12.1216 3.91502 12.3613 3.63834 12.3993C3.50147 12.4181 3.40572 12.5443 3.42451 12.6811C3.44343 12.8191 3.57067 12.9137 3.70635 12.895C4.22947 12.8232 4.62397 12.3704 4.62397 11.8417V7.40138C4.62397 6.81513 4.14704 6.3382 3.56079 6.3382Z" fill="black"/>
<path d="M12.6506 6.84015H12.5847V6.14693C12.5847 -0.191578 2.92998 -0.377854 2.43444 5.66462C2.42316 5.80233 2.52563 5.92313 2.66331 5.93442C2.80124 5.94549 2.92179 5.84323 2.93308 5.70555C3.16557 2.87067 5.5784 1.6734 7.72231 1.76164C9.89354 1.85051 12.0844 3.24097 12.0844 6.14693C12.0844 6.98759 12.0857 6.9274 12.0813 6.93005C11.9927 6.98387 11.9452 7.08887 11.9661 7.19294C12.0182 7.44801 12.0027 6.64806 12.0027 11.8417C12.0027 12.152 11.7502 12.4045 11.4398 12.4045C11.1295 12.4045 10.877 12.152 10.877 11.8417V7.40133C10.877 7.12427 11.0832 6.88487 11.3567 6.84453C11.4934 6.82436 11.5878 6.69722 11.5676 6.56054C11.5475 6.42389 11.4203 6.32961 11.2837 6.34959C10.7666 6.42582 10.3767 6.87799 10.3767 7.40133V11.8417C10.3767 12.4279 10.8536 12.9049 11.4398 12.9049C11.8234 12.9049 12.16 12.7007 12.3471 12.3954C12.4474 12.4085 12.6901 12.4028 12.7499 12.4002C12.4792 13.1353 11.9572 13.7425 11.2814 14.1158C11.2527 13.6846 10.8931 13.3426 10.4548 13.3426H9.79814C9.34122 13.3426 8.96948 13.7144 8.96948 14.1713C8.96948 14.6282 9.34122 15 9.79814 15H10.4548C10.6662 15 10.8592 14.9203 11.0057 14.7896C12.1533 14.3694 13.0208 13.4112 13.3315 12.2156C13.3391 12.1866 13.3409 12.1576 13.3383 12.1295C13.3551 11.9601 13.2014 11.8232 13.0351 11.8605C12.8264 11.907 12.69 11.9026 12.5011 11.9026C12.5046 11.8409 12.5011 7.34976 12.5006 7.34047H12.6506C13.621 7.34047 14.4105 8.12998 14.4105 9.10038V10.1426C14.4105 10.44 14.335 10.7337 14.1923 10.9922C14.1255 11.1131 14.1694 11.2653 14.2903 11.3321C14.4115 11.399 14.5636 11.3548 14.6302 11.2341C14.8138 10.9018 14.9108 10.5244 14.9108 10.1426V9.10038C14.9108 7.85408 13.8969 6.84015 12.6506 6.84015ZM9.79817 14.4996C9.61712 14.4996 9.46983 14.3523 9.46983 14.1713C9.46983 13.9902 9.61712 13.843 9.79817 13.843H10.4548C10.6359 13.843 10.7832 13.9902 10.7832 14.1713C10.7832 14.3523 10.6359 14.4996 10.4548 14.4996H9.79817Z" fill="black"/>
</g>
<defs>
<clipPath id="clip0_353_2572">
<rect width="15" height="15" fill="white"/>
</clipPath>
</defs>
</svg>
